<?xml version="1.0" encoding="utf-8"?>
<!-- Generator: Adobe Illustrator 22.1.0, SVG Export Plug-In . SVG Version: 6.00 Build 0)  -->
<svg version="1.1" id="Calque_1" xmlns="http://www.w3.org/2000/svg" xmlns:xlink="http://www.w3.org/1999/xlink" x="0px" y="0px"
	 viewBox="0 0 2276.4 3828.1" style="enable-background:new 0 0 2276.4 3828.1;" xml:space="preserve">
<style type="text/css">
	.st0{fill:#161616;}
	.st1{fill:none;}
	.st2{fill:#707070;}
	.st3{font-family:'Raleway-Medium';}
	.st4{font-size:100px;}
</style>
<title>mulvig_processus</title>
<g>
	<g>
		<path class="st0" d="M687.6,747h-71.8V609L551,688.9h-5.7L480.4,609v138h-69.7V508.9h65.1l73.2,89.3l73.5-89.3h65.1V747z"/>
		<path class="st0" d="M996.5,640.3c0,20.4-3.8,37.8-11.4,52.1c-7.6,14.4-17.7,25.7-30.2,34.1c-12.4,8.3-26.1,14.4-40.5,18
			c-14.2,3.6-28.7,5.5-43.4,5.5c-20.1,0-40-3.5-58.8-10.3c-19-6.8-35.6-19-47.8-35c-12.8-16.5-19.2-37.9-19.2-64.4l-0.7-37h71.6
			l0.8,18.5c0,15.7,2.3,28.7,6.8,38.9s10.8,17.7,18.9,22.5c8.1,4.8,17.6,7.1,28.6,7.1c10.5,0,19.9-2.3,28-7s14.5-12.1,19-22.3
			s6.8-23.1,6.8-38.8l-0.7-18.9h71.8L996.5,640.3z"/>
		<path class="st0" d="M1234.5,747h-180.9V508.9h71.8V690h109.1V747z"/>
		<path class="st0" d="M1474.7,508.9l-107.4,241.2h-47.4l-105.3-241.2h74.7l54.5,137.4l56-137.4L1474.7,508.9L1474.7,508.9z"/>
		<path class="st0" d="M1580.2,747h-71.8l-0.8-143.7h71.8L1580.2,747z"/>
		<path class="st0" d="M1865.6,730.1c-5.2,2-9.6,3.6-13.2,4.8c-3.7,1.3-7.2,2.4-10.6,3.4s-8.3,2.4-14.7,4
			c-10.7,2.5-21.6,4.4-32.6,5.8c-11.4,1.4-22.8,2-34.3,2c-24.2,0-46.5-4.4-67-13.2c-20.2-8.5-37.3-22.8-49.3-41.1
			c-12.3-18.5-18.5-41.3-18.5-68.4c0-17.5,3.3-34.9,9.5-51.3c6.4-16.8,16.1-30.2,29.1-40.3c10-7.9,21-14.3,32.8-19.2
			c10.4-4.2,21.3-7.2,32.4-8.8c11.6-1.6,23.2-2.3,34.9-2.2c21,0,38.3,1.6,51.9,4.7c13.6,3.2,28.6,7.3,44.8,12.4v56.4
			c-10.9-6.3-22.3-11.6-34.2-15.8c-12-4.2-27-6.4-45-6.4c-20.7,0-37.3,3.9-49.7,11.8c-12.4,7.8-21.1,17.2-26,28.1
			c-4.9,10.9-7.3,21.4-7.3,31.6c-0.1,11.6,2.8,23.1,8.4,33.2c5.6,10.1,14.1,18.3,25.4,24.4c11.3,6.1,25,9.2,41.1,9.2
			c9.8-0.1,19.6-1.3,29.2-3.6v-28h-32.3v-47.9h95L1865.6,730.1z"/>
		<rect x="1507.1" y="494.4" class="st0" width="72.4" height="72.4"/>
		<rect x="747.1" y="494.4" class="st0" width="72.4" height="72.4"/>
		<rect x="921.3" y="494.4" class="st0" width="72.4" height="72.4"/>
		<rect x="965.5" y="495.2" class="st0" width="4.5" height="1.5"/>
		<path class="st0" d="M956.5,496.7h-9.1v-1.5h9.1V496.7z M938.3,496.7h-9.1v-1.5h9.1V496.7z M920.2,496.7h-9.1v-1.5h9.1V496.7z
			 M902.1,496.7H893v-1.5h9.1V496.7z M884,496.7h-9.1v-1.5h9.1V496.7z M865.9,496.7h-9.1v-1.5h9.1V496.7z M847.7,496.7h-9v-1.5h9
			V496.7z M829.6,496.7h-9.1v-1.5h9.1V496.7z M811.5,496.7h-9.1v-1.5h9.1V496.7z M793.4,496.7h-9.1v-1.5h9.1V496.7z"/>
		<rect x="770.8" y="495.2" class="st0" width="4.5" height="1.5"/>
		<rect x="965.5" y="565.3" class="st0" width="4.5" height="1.5"/>
		<path class="st0" d="M956.5,566.8h-9.1v-1.5h9.1V566.8z M938.3,566.8h-9.1v-1.5h9.1V566.8z M920.2,566.8h-9.1v-1.5h9.1V566.8z
			 M902.1,566.8H893v-1.5h9.1V566.8z M884,566.8h-9.1v-1.5h9.1V566.8z M865.9,566.8h-9.1v-1.5h9.1V566.8z M847.7,566.8h-9v-1.5h9
			V566.8z M829.6,566.8h-9.1v-1.5h9.1V566.8z M811.5,566.8h-9.1v-1.5h9.1V566.8z M793.4,566.8h-9.1v-1.5h9.1V566.8z"/>
		<rect x="770.8" y="565.3" class="st0" width="4.5" height="1.5"/>
	</g>
	<rect x="621.9" y="981.3" class="st1" width="1044.3" height="110.7"/>
	<text transform="matrix(1 0 0 1 1090.8748 1054.2581)" class="st2 st3 st4">01</text>
</g>
<g>
	<g>
		<path class="st0" d="M687.6,1827.1h-71.8v-138L551,1769h-5.7l-64.9-79.9v138h-69.7v-238.2h65.1l73.2,89.3l73.5-89.3h65.1V1827.1z"
			/>
		<path class="st0" d="M996.5,1720.4c0,20.4-3.8,37.8-11.4,52.1s-17.7,25.7-30.2,34.1c-12.4,8.3-26.1,14.4-40.5,18
			c-14.2,3.6-28.7,5.5-43.4,5.5c-20.1,0-40-3.5-58.8-10.3c-19-6.8-35.6-19-47.8-35c-12.8-16.5-19.3-38-19.3-64.4l-0.7-37H816
			l0.8,18.5c0,15.7,2.3,28.7,6.8,38.9c4.5,10.2,10.8,17.8,18.9,22.5c8.1,4.8,17.6,7.1,28.6,7.1c10.5,0,19.9-2.3,28-7
			s14.5-12.1,19-22.3c4.5-10.2,6.8-23.1,6.8-38.8l-0.7-18.8H996L996.5,1720.4z"/>
		<path class="st0" d="M1234.5,1827.1h-180.9V1589h71.8v181.1h109.1V1827.1z"/>
		<path class="st0" d="M1474.7,1589l-107.4,241.2h-47.4L1214.6,1589h74.7l54.5,137.4l56-137.4H1474.7z"/>
		<path class="st0" d="M1580.2,1827.1h-71.8l-0.8-143.7h71.8L1580.2,1827.1z"/>
		<path class="st0" d="M1865.6,1810.3c-5.2,2-9.6,3.6-13.2,4.8c-3.7,1.3-7.2,2.4-10.6,3.4s-8.3,2.4-14.7,4
			c-10.7,2.5-21.6,4.4-32.6,5.8c-11.4,1.4-22.8,2-34.3,2c-24.2,0-46.5-4.4-67-13.2c-20.1-8.5-37.3-22.8-49.3-41.2
			c-12.3-18.5-18.5-41.3-18.5-68.4c0-17.5,3.3-34.9,9.5-51.3c6.4-16.8,16.1-30.2,29.1-40.3c10-7.9,21-14.3,32.8-19.1
			c10.4-4.2,21.3-7.2,32.4-8.8c11.6-1.6,23.2-2.3,34.9-2.2c21,0,38.3,1.6,51.9,4.7c13.6,3.2,28.6,7.3,44.8,12.5v56.3
			c-10.9-6.3-22.3-11.6-34.2-15.8c-12-4.2-27-6.4-45-6.4c-20.7,0-37.3,3.9-49.7,11.8s-21.1,17.2-26,28.1s-7.3,21.4-7.3,31.6
			c-0.1,11.6,2.8,23.1,8.4,33.2s14.1,18.3,25.4,24.4s25,9.2,41.1,9.2c9.8-0.1,19.6-1.3,29.2-3.6v-28h-32.3v-48h95L1865.6,1810.3z"/>
		<rect x="1507.1" y="1574.5" class="st0" width="72.4" height="72.4"/>
		<rect x="747.1" y="1573.9" class="st0" width="246.6" height="73.7"/>
	</g>
	<rect x="621.9" y="2061.5" class="st1" width="1044.3" height="110.7"/>
	<text transform="matrix(1 0 0 1 1086.626 2134.4646)" class="st2 st3 st4">02</text>
</g>
<g>
	<g>
		<path class="st0" d="M687.6,2988.7h-71.8v-138l-64.8,79.9h-5.7l-64.9-79.9v138h-69.7v-238.2h65.1l73.2,89.3l73.5-89.3h65.1V2988.7
			z"/>
		<path class="st0" d="M996.5,2882c0,20.4-3.8,37.8-11.4,52.1c-7.6,14.3-17.7,25.7-30.2,34.1c-12.4,8.3-26.1,14.4-40.5,18
			c-14.2,3.6-28.7,5.5-43.4,5.5c-20.1,0-40-3.5-58.8-10.3c-19-6.8-35.6-19-47.8-35c-12.8-16.5-19.3-38-19.3-64.4l-0.7-37H816
			l0.8,18.5c0,15.7,2.3,28.7,6.8,38.9c4.5,10.2,10.8,17.8,18.9,22.5c8.1,4.8,17.6,7.1,28.6,7.1c10.5,0,19.9-2.3,28-7
			s14.5-12.1,19-22.3c4.5-10.2,6.8-23.1,6.8-38.8l-0.7-18.8H996L996.5,2882z"/>
		<path class="st0" d="M1234.5,2988.7h-180.9v-238.1h71.8v181.1h109.1V2988.7z"/>
		<path class="st0" d="M1474.7,2750.6l-107.4,241.2h-47.4l-105.3-241.2h74.7l54.5,137.4l56-137.4L1474.7,2750.6z"/>
		<path class="st0" d="M1580.2,2988.7h-71.8l-0.8-143.7h71.8L1580.2,2988.7z"/>
		<path class="st0" d="M1865.6,2971.9c-5.2,1.9-9.6,3.5-13.2,4.8c-3.7,1.3-7.2,2.4-10.6,3.4s-8.3,2.4-14.7,4
			c-10.7,2.5-21.6,4.4-32.6,5.8c-11.4,1.4-22.8,2-34.3,2c-24.2,0-46.5-4.4-67-13.2c-20.1-8.5-37.3-22.8-49.2-41.1
			c-12.3-18.6-18.5-41.3-18.5-68.4c0-17.5,3.3-34.9,9.5-51.3c6.4-16.8,16.1-30.2,29.1-40.3c10-7.9,21-14.3,32.7-19.2
			c10.4-4.2,21.3-7.2,32.4-8.8c11.6-1.6,23.2-2.3,34.9-2.2c21,0,38.3,1.6,51.9,4.7c13.6,3.1,28.6,7.3,44.8,12.5v56.3
			c-10.9-6.3-22.3-11.6-34.2-15.8c-12-4.2-27-6.3-45-6.3c-20.7,0-37.3,3.9-49.7,11.8c-12.4,7.8-21.1,17.2-26,28.1
			c-4.9,10.9-7.3,21.4-7.3,31.6c-0.1,11.6,2.8,23.1,8.4,33.2c5.6,10.1,14.1,18.3,25.4,24.4c11.3,6.1,25,9.2,41.1,9.2
			c9.8-0.1,19.6-1.3,29.2-3.6v-28h-32.3v-47.9h95L1865.6,2971.9z"/>
		<rect x="1507.1" y="2572.7" class="st0" width="72.4" height="72.4"/>
		<rect x="747.1" y="2572" class="st0" width="246.6" height="73.7"/>
		<rect x="746.3" y="2645.7" class="st0" width="1.5" height="4.5"/>
		<path class="st0" d="M747.8,2831.4h-1.5v-9.1h1.5V2831.4z M747.8,2813.3h-1.5v-9.1h1.5V2813.3z M747.8,2795.2h-1.5v-9.1h1.5
			V2795.2z M747.8,2777.1h-1.5v-9.1h1.5V2777.1z M747.8,2758.9h-1.5v-9.1h1.5V2758.9z M747.8,2740.8h-1.5v-9.1h1.5V2740.8z
			 M747.8,2722.7h-1.5v-9.1h1.5V2722.7z M747.8,2704.6h-1.5v-9.1h1.5V2704.6z M747.8,2686.5h-1.5v-9.1h1.5V2686.5z M747.8,2668.4
			h-1.5v-9.1h1.5V2668.4z"/>
		<rect x="746.3" y="2840.5" class="st0" width="1.5" height="4.5"/>
		<rect x="993" y="2645.7" class="st0" width="1.5" height="4.5"/>
		<path class="st0" d="M994.5,2831.4H993v-9.1h1.5V2831.4z M994.5,2813.3H993v-9.1h1.5V2813.3z M994.5,2795.2H993v-9.1h1.5V2795.2z
			 M994.5,2777.1H993v-9.1h1.5V2777.1z M994.5,2758.9H993v-9.1h1.5V2758.9z M994.5,2740.8H993v-9.1h1.5V2740.8z M994.5,2722.7H993
			v-9.1h1.5V2722.7z M994.5,2704.6H993v-9.1h1.5V2704.6z M994.5,2686.5H993v-9.1h1.5V2686.5z M994.5,2668.4H993v-9.1h1.5V2668.4z"/>
		<rect x="993" y="2840.5" class="st0" width="1.5" height="4.5"/>
		<rect x="1506.3" y="2645.7" class="st0" width="1.5" height="4.5"/>
		<path class="st0" d="M1507.8,2831.4h-1.5v-9.1h1.5V2831.4z M1507.8,2813.3h-1.5v-9.1h1.5V2813.3z M1507.8,2795.2h-1.5v-9.1h1.5
			V2795.2z M1507.8,2777.1h-1.5v-9.1h1.5V2777.1z M1507.8,2758.9h-1.5v-9.1h1.5V2758.9z M1507.8,2740.8h-1.5v-9.1h1.5V2740.8z
			 M1507.8,2722.7h-1.5v-9.1h1.5V2722.7z M1507.8,2704.6h-1.5v-9.1h1.5V2704.6z M1507.8,2686.5h-1.5v-9.1h1.5V2686.5z
			 M1507.8,2668.4h-1.5v-9.1h1.5V2668.4z"/>
		<rect x="1506.3" y="2840.5" class="st0" width="1.5" height="4.5"/>
		<rect x="1578.7" y="2645.7" class="st0" width="1.5" height="4.5"/>
		<path class="st0" d="M1580.2,2831.4h-1.5v-9.1h1.5V2831.4z M1580.2,2813.3h-1.5v-9.1h1.5V2813.3z M1580.2,2795.2h-1.5v-9.1h1.5
			V2795.2z M1580.2,2777.1h-1.5v-9.1h1.5V2777.1z M1580.2,2758.9h-1.5v-9.1h1.5V2758.9z M1580.2,2740.8h-1.5v-9.1h1.5V2740.8z
			 M1580.2,2722.7h-1.5v-9.1h1.5V2722.7z M1580.2,2704.6h-1.5v-9.1h1.5V2704.6z M1580.2,2686.5h-1.5v-9.1h1.5V2686.5z
			 M1580.2,2668.4h-1.5v-9.1h1.5V2668.4z"/>
		<rect x="1578.7" y="2840.5" class="st0" width="1.5" height="4.5"/>
	</g>
	<rect x="616" y="3223.1" class="st1" width="1044.3" height="110.7"/>
	<text transform="matrix(1 0 0 1 1080.4755 3296.0708)" class="st2 st3 st4">03</text>
</g>
<title>mulvig_processus</title>
<g>
	<g>
		<g>
			<path class="st0" d="M885.3,6057.3h-71.8v-138l-64.8,79.9H743l-64.9-79.9v138h-69.7v-238.1h65.1l73.2,89.3l73.5-89.3h65.1V6057.3
				z"/>
			<path class="st0" d="M1194.2,5950.6c0,20.4-3.8,37.8-11.4,52.1c-7.6,14.4-17.7,25.7-30.2,34.1c-12.4,8.3-26.1,14.4-40.5,18
				c-14.2,3.6-28.7,5.5-43.4,5.5c-20.1,0-40-3.5-58.8-10.3c-19-6.8-35.6-19-47.8-35c-12.8-16.5-19.2-37.9-19.2-64.4l-0.7-37h71.6
				l0.8,18.5c0,15.7,2.3,28.7,6.8,38.9c4.5,10.2,10.8,17.7,18.9,22.5c8.1,4.8,17.6,7.1,28.6,7.1c10.5,0,19.9-2.3,28-7
				s14.5-12.1,19-22.3c4.5-10.2,6.8-23.1,6.8-38.8l-0.7-18.9h71.8L1194.2,5950.6z"/>
			<path class="st0" d="M1432.2,6057.3h-180.9v-238.1h71.8v181.1h109.1V6057.3z"/>
			<path class="st0" d="M1672.4,5819.2L1565,6060.4h-47.4l-105.3-241.2h74.7l54.5,137.4l56-137.4H1672.4L1672.4,5819.2z"/>
			<path class="st0" d="M1777.9,6057.3h-71.8l-0.8-143.7h71.8L1777.9,6057.3z"/>
			<path class="st0" d="M2063.3,6040.4c-5.2,2-9.6,3.6-13.2,4.8c-3.7,1.3-7.2,2.4-10.6,3.4s-8.3,2.4-14.7,4
				c-10.7,2.5-21.6,4.4-32.6,5.8c-11.4,1.4-22.8,2-34.3,2c-24.2,0-46.5-4.4-67-13.2c-20.2-8.5-37.3-22.8-49.3-41.1
				c-12.3-18.5-18.5-41.3-18.5-68.4c0-17.5,3.3-34.9,9.5-51.3c6.4-16.8,16.1-30.2,29.1-40.3c10-7.9,21-14.3,32.8-19.2
				c10.4-4.2,21.3-7.2,32.4-8.8c11.6-1.6,23.2-2.3,34.9-2.2c21,0,38.3,1.6,51.9,4.7c13.6,3.2,28.6,7.3,44.8,12.4v56.4
				c-10.9-6.3-22.3-11.6-34.2-15.8c-12-4.2-27-6.4-45-6.4c-20.7,0-37.3,3.9-49.7,11.8c-12.4,7.8-21.1,17.2-26,28.1
				s-7.3,21.4-7.3,31.6c-0.1,11.6,2.8,23.1,8.4,33.2c5.6,10.1,14.1,18.3,25.4,24.4c11.3,6.1,25,9.2,41.1,9.2
				c9.8-0.1,19.6-1.3,29.2-3.6v-28h-32.3V5926h95L2063.3,6040.4z"/>
			<rect x="1704.8" y="5804.7" class="st0" width="72.4" height="72.4"/>
			<rect x="944.8" y="5804.7" class="st0" width="72.4" height="72.4"/>
			<rect x="1119" y="5804.7" class="st0" width="72.4" height="72.4"/>
			<rect x="1163.2" y="5805.5" class="st0" width="4.5" height="1.5"/>
			<path class="st0" d="M1154.2,5807h-9.1v-1.5h9.1V5807z M1136,5807h-9.1v-1.5h9.1V5807z M1117.9,5807h-9.1v-1.5h9.1V5807z
				 M1099.8,5807h-9.1v-1.5h9.1V5807z M1081.7,5807h-9.1v-1.5h9.1V5807z M1063.6,5807h-9.1v-1.5h9.1V5807z M1045.4,5807h-9v-1.5h9
				V5807z M1027.3,5807h-9.1v-1.5h9.1V5807z M1009.2,5807h-9.1v-1.5h9.1V5807z M991.1,5807H982v-1.5h9.1V5807z"/>
			<rect x="968.5" y="5805.5" class="st0" width="4.5" height="1.5"/>
			<rect x="1163.2" y="5875.6" class="st0" width="4.5" height="1.5"/>
			<path class="st0" d="M1154.2,5877.1h-9.1v-1.5h9.1V5877.1z M1136,5877.1h-9.1v-1.5h9.1V5877.1z M1117.9,5877.1h-9.1v-1.5h9.1
				V5877.1z M1099.8,5877.1h-9.1v-1.5h9.1V5877.1z M1081.7,5877.1h-9.1v-1.5h9.1V5877.1z M1063.6,5877.1h-9.1v-1.5h9.1V5877.1z
				 M1045.4,5877.1h-9v-1.5h9V5877.1z M1027.3,5877.1h-9.1v-1.5h9.1V5877.1z M1009.2,5877.1h-9.1v-1.5h9.1V5877.1z M991.1,5877.1
				H982v-1.5h9.1V5877.1z"/>
			<rect x="968.5" y="5875.6" class="st0" width="4.5" height="1.5"/>
		</g>
		<rect x="819.6" y="6291.5" class="st1" width="1044.3" height="110.7"/>
		<text transform="matrix(1 0 0 1 1288.5692 6364.5356)" class="st2 st3 st4">01</text>
	</g>
	<g>
		<g>
			<path class="st0" d="M3142.9,6057.2h-71.8v-138l-64.8,79.9h-5.7l-64.9-79.9v138H2866V5819h65.1l73.2,89.3l73.5-89.3h65.1V6057.2z
				"/>
			<path class="st0" d="M3451.8,5950.5c0,20.4-3.8,37.8-11.4,52.1c-7.6,14.3-17.7,25.7-30.2,34.1c-12.4,8.3-26.1,14.4-40.5,18
				c-14.2,3.6-28.7,5.5-43.4,5.5c-20.1,0-40-3.5-58.8-10.3c-19-6.8-35.6-19-47.8-35c-12.8-16.5-19.3-38-19.3-64.4l-0.7-37h71.6
				l0.8,18.5c0,15.7,2.3,28.7,6.8,38.9c4.5,10.2,10.8,17.8,18.9,22.5c8.1,4.8,17.6,7.1,28.6,7.1c10.5,0,19.9-2.3,28-7
				c8.1-4.7,14.5-12.1,19-22.3c4.5-10.2,6.8-23.1,6.8-38.8l-0.7-18.8h71.8L3451.8,5950.5z"/>
			<path class="st0" d="M3689.8,6057.2h-180.9v-238.1h71.8v181.1h109.1V6057.2z"/>
			<path class="st0" d="M3930,5819.1l-107.4,241.2h-47.4l-105.3-241.2h74.7l54.5,137.4l56-137.4H3930z"/>
			<path class="st0" d="M4035.5,6057.2h-71.8l-0.8-143.7h71.8L4035.5,6057.2z"/>
			<path class="st0" d="M4320.9,6040.4c-5.2,2-9.6,3.6-13.2,4.8c-3.7,1.3-7.2,2.4-10.6,3.4s-8.3,2.4-14.7,4
				c-10.7,2.5-21.6,4.4-32.6,5.8c-11.4,1.4-22.8,2-34.3,2c-24.2,0-46.5-4.4-67-13.2c-20.1-8.5-37.3-22.8-49.3-41.2
				c-12.3-18.5-18.5-41.3-18.5-68.4c0-17.5,3.3-34.9,9.5-51.3c6.4-16.8,16.1-30.2,29.1-40.3c10-7.9,21-14.3,32.8-19.1
				c10.4-4.2,21.3-7.2,32.4-8.8c11.6-1.6,23.2-2.3,34.9-2.2c21,0,38.3,1.6,51.9,4.7c13.6,3.2,28.6,7.3,44.8,12.5v56.3
				c-10.9-6.3-22.3-11.6-34.2-15.8c-12-4.2-27-6.4-45-6.4c-20.7,0-37.3,3.9-49.7,11.8s-21.1,17.2-26,28.1s-7.3,21.4-7.3,31.6
				c-0.1,11.6,2.8,23.1,8.4,33.2s14.1,18.3,25.4,24.4c11.3,6.1,25,9.2,41.1,9.2c9.8-0.1,19.6-1.3,29.2-3.6v-28h-32.3v-48h95
				L4320.9,6040.4z"/>
			<rect x="3962.4" y="5804.6" class="st0" width="72.4" height="72.4"/>
			<rect x="3202.4" y="5804" class="st0" width="246.6" height="73.7"/>
		</g>
		<rect x="3077.2" y="6291.5" class="st1" width="1044.3" height="110.7"/>
		<text transform="matrix(1 0 0 1 3541.8594 6364.5356)" class="st2 st3 st4">02</text>
	</g>
	<g>
		<g>
			<path class="st0" d="M5400.4,6057.2h-71.8v-138l-64.8,79.9h-5.7l-64.9-79.9v138h-69.7V5819h65.1l73.2,89.3l73.5-89.3h65.1V6057.2
				z"/>
			<path class="st0" d="M5709.3,5950.5c0,20.4-3.8,37.8-11.4,52.1c-7.6,14.3-17.7,25.7-30.2,34.1c-12.4,8.3-26.1,14.4-40.5,18
				c-14.2,3.6-28.7,5.5-43.4,5.5c-20.1,0-40-3.5-58.8-10.3c-19-6.8-35.6-19-47.8-35c-12.8-16.5-19.3-38-19.3-64.4l-0.7-37h71.6
				l0.8,18.5c0,15.7,2.3,28.7,6.8,38.9c4.5,10.2,10.8,17.8,18.9,22.5c8.1,4.8,17.6,7.1,28.6,7.1c10.5,0,19.9-2.3,28-7
				c8.1-4.7,14.5-12.1,19-22.3c4.5-10.2,6.8-23.1,6.8-38.8l-0.7-18.8h71.8L5709.3,5950.5z"/>
			<path class="st0" d="M5947.3,6057.2h-180.9v-238.1h71.8v181.1h109.1V6057.2z"/>
			<path class="st0" d="M6187.5,5819.1l-107.4,241.2h-47.4l-105.3-241.2h74.7l54.5,137.4l56-137.4H6187.5z"/>
			<path class="st0" d="M6293,6057.2h-71.8l-0.8-143.7h71.8L6293,6057.2z"/>
			<path class="st0" d="M6578.4,6040.4c-5.2,1.9-9.6,3.5-13.2,4.8c-3.7,1.3-7.2,2.4-10.6,3.4c-3.4,1-8.3,2.4-14.7,4
				c-10.7,2.5-21.6,4.4-32.6,5.8c-11.4,1.4-22.8,2-34.3,2c-24.2,0-46.5-4.4-67-13.2c-20.1-8.5-37.3-22.8-49.2-41.1
				c-12.3-18.6-18.5-41.3-18.5-68.4c0-17.5,3.3-34.9,9.5-51.3c6.4-16.8,16.1-30.2,29.1-40.3c10-7.9,21-14.3,32.7-19.2
				c10.4-4.2,21.3-7.2,32.4-8.8c11.6-1.6,23.2-2.3,34.9-2.2c21,0,38.3,1.6,51.9,4.7c13.6,3.1,28.6,7.3,44.8,12.5v56.3
				c-10.9-6.3-22.3-11.6-34.2-15.8c-12-4.2-27-6.3-45-6.3c-20.7,0-37.3,3.9-49.7,11.8c-12.4,7.8-21.1,17.2-26,28.1
				c-4.9,10.9-7.3,21.4-7.3,31.6c-0.1,11.6,2.8,23.1,8.4,33.2c5.6,10.1,14.1,18.3,25.4,24.4c11.3,6.1,25,9.2,41.1,9.2
				c9.8-0.1,19.6-1.3,29.2-3.6v-28h-32.3v-47.9h95L6578.4,6040.4z"/>
			<rect x="6219.9" y="5641.2" class="st0" width="72.4" height="72.4"/>
			<rect x="5459.9" y="5640.5" class="st0" width="246.6" height="73.7"/>
			<rect x="5459.1" y="5714.2" class="st0" width="1.5" height="4.5"/>
			<path class="st0" d="M5460.6,5899.9h-1.5v-9.1h1.5V5899.9z M5460.6,5881.8h-1.5v-9.1h1.5V5881.8z M5460.6,5863.7h-1.5v-9.1h1.5
				V5863.7z M5460.6,5845.6h-1.5v-9.1h1.5V5845.6z M5460.6,5827.4h-1.5v-9.1h1.5V5827.4z M5460.6,5809.3h-1.5v-9.1h1.5V5809.3z
				 M5460.6,5791.2h-1.5v-9.1h1.5V5791.2z M5460.6,5773.1h-1.5v-9.1h1.5V5773.1z M5460.6,5755h-1.5v-9.1h1.5V5755z M5460.6,5736.9
				h-1.5v-9.1h1.5V5736.9z"/>
			<rect x="5459.1" y="5909" class="st0" width="1.5" height="4.5"/>
			<rect x="5705.8" y="5714.2" class="st0" width="1.5" height="4.5"/>
			<path class="st0" d="M5707.3,5899.9h-1.5v-9.1h1.5V5899.9z M5707.3,5881.8h-1.5v-9.1h1.5V5881.8z M5707.3,5863.7h-1.5v-9.1h1.5
				V5863.7z M5707.3,5845.6h-1.5v-9.1h1.5V5845.6z M5707.3,5827.4h-1.5v-9.1h1.5V5827.4z M5707.3,5809.3h-1.5v-9.1h1.5V5809.3z
				 M5707.3,5791.2h-1.5v-9.1h1.5V5791.2z M5707.3,5773.1h-1.5v-9.1h1.5V5773.1z M5707.3,5755h-1.5v-9.1h1.5V5755z M5707.3,5736.9
				h-1.5v-9.1h1.5V5736.9z"/>
			<rect x="5705.8" y="5909" class="st0" width="1.5" height="4.5"/>
			<rect x="6219.1" y="5714.2" class="st0" width="1.5" height="4.5"/>
			<path class="st0" d="M6220.6,5899.9h-1.5v-9.1h1.5V5899.9z M6220.6,5881.8h-1.5v-9.1h1.5V5881.8z M6220.6,5863.7h-1.5v-9.1h1.5
				V5863.7z M6220.6,5845.6h-1.5v-9.1h1.5V5845.6z M6220.6,5827.4h-1.5v-9.1h1.5V5827.4z M6220.6,5809.3h-1.5v-9.1h1.5V5809.3z
				 M6220.6,5791.2h-1.5v-9.1h1.5V5791.2z M6220.6,5773.1h-1.5v-9.1h1.5V5773.1z M6220.6,5755h-1.5v-9.1h1.5V5755z M6220.6,5736.9
				h-1.5v-9.1h1.5V5736.9z"/>
			<rect x="6219.1" y="5909" class="st0" width="1.5" height="4.5"/>
			<rect x="6291.5" y="5714.2" class="st0" width="1.5" height="4.5"/>
			<path class="st0" d="M6293,5899.9h-1.5v-9.1h1.5V5899.9z M6293,5881.8h-1.5v-9.1h1.5V5881.8z M6293,5863.7h-1.5v-9.1h1.5V5863.7z
				 M6293,5845.6h-1.5v-9.1h1.5V5845.6z M6293,5827.4h-1.5v-9.1h1.5V5827.4z M6293,5809.3h-1.5v-9.1h1.5V5809.3z M6293,5791.2h-1.5
				v-9.1h1.5V5791.2z M6293,5773.1h-1.5v-9.1h1.5V5773.1z M6293,5755h-1.5v-9.1h1.5V5755z M6293,5736.9h-1.5v-9.1h1.5V5736.9z"/>
			<rect x="6291.5" y="5909" class="st0" width="1.5" height="4.5"/>
		</g>
		<rect x="5405.3" y="6291.5" class="st1" width="1044.3" height="110.7"/>
		<text transform="matrix(1 0 0 1 5869.6973 6364.5356)" class="st2 st3 st4">03</text>
	</g>
</g>
</svg>
