<?xml version="1.0" encoding="utf-8"?>
<!-- Generator: Adobe Illustrator 22.1.0, SVG Export Plug-In . SVG Version: 6.00 Build 0)  -->
<svg version="1.1" id="Calque_1" xmlns="http://www.w3.org/2000/svg" xmlns:xlink="http://www.w3.org/1999/xlink" x="0px" y="0px"
	 viewBox="0 0 1521.1 605.6" style="enable-background:new 0 0 1521.1 605.6;" xml:space="preserve">
<style type="text/css">
	.st0{fill:#1D1D1B;}
</style>
<g>
	<title>mulvig_logo</title>
	<path class="st0" d="M350.4,316.9H285V191.3l-59,72.7h-5.2l-59.1-72.7v125.6H98.3V100.1h59.3l66.6,81.4l66.9-81.4h59.3L350.4,316.9
		z"/>
	<path class="st0" d="M631.6,219.7c0,18.6-3.5,34.4-10.4,47.5c-6.9,13.1-16.1,23.4-27.5,31c-11.3,7.6-23.8,13.1-36.9,16.4
		c-12.9,3.3-26.2,5-39.5,5c-18.3,0-36.4-3.2-53.6-9.4c-17.4-6.3-31.9-16.9-43.6-31.9c-11.7-15-17.5-34.6-17.5-58.7l-0.7-33.7h65.2
		l0.7,16.8c0,14.3,2.1,26.1,6.2,35.4c4.1,9.3,9.9,16.2,17.2,20.5c7.4,4.3,16,6.5,26,6.5c9.6,0,18.1-2.1,25.5-6.4
		c7.4-4.3,13.2-11.1,17.3-20.3c4.1-9.3,6.2-21.1,6.2-35.3l-0.7-17.1H631L631.6,219.7z"/>
	<path class="st0" d="M848.3,316.9H683.6V100.1H749v164.9h99.3V316.9z"/>
	<path class="st0" d="M1067,100.1l-97.8,219.6H926l-95.9-219.6h68l49.6,125.1l51-125.1H1067z"/>
	<path class="st0" d="M1163,316.9h-65.4l-0.7-130.8h65.4L1163,316.9z"/>
	<path class="st0" d="M1422.8,301.5c-4.7,1.8-8.7,3.2-12,4.4s-6.5,2.2-9.6,3.2c-3.1,0.9-7.5,2.1-13.4,3.6c-9.8,2.3-19.7,4-29.6,5.2
		c-10.4,1.2-20.8,1.8-31.2,1.8c-22,0-42.3-4-61-12c-18.3-7.7-33.9-20.8-44.8-37.4c-11.2-16.9-16.8-37.6-16.8-62.2
		c0-16,3-31.8,8.7-46.7c5.8-15.3,14.6-27.5,26.5-36.7c9.8-7.6,19.7-13.4,29.8-17.4c9.5-3.9,19.4-6.6,29.5-8.1
		c10.5-1.4,21.1-2.1,31.7-2c19.1,0,34.8,1.4,47.2,4.3s26,6.7,40.8,11.4v51.3c-9.9-5.8-20.3-10.6-31.1-14.4
		c-10.9-3.9-24.6-5.8-41-5.8c-18.9,0-34,3.6-45.3,10.7c-11.3,7.1-19.2,15.6-23.6,25.5c-4.4,9.9-6.6,19.5-6.6,28.8
		c-0.1,10.6,2.5,21,7.7,30.3c5.1,9.2,12.8,16.7,23.2,22.2c10.3,5.6,22.8,8.4,37.4,8.4c9-0.1,17.9-1.2,26.6-3.3V241h-29.4v-43.6h86.5
		V301.5z"/>
	<path class="st0" d="M401.9,446.5h7.9l30.3,71.2h-9.8l-7.2-17.5h-35.6l-7.3,17.5h-9.6L401.9,446.5z M405.7,457.3h-0.2l-14.8,35
		h29.1L405.7,457.3z"/>
	<path class="st0" d="M469.7,446.5h18.2c3.4,0,6.8,0.2,10.2,0.6c3.2,0.3,6.2,1.2,9.1,2.6c2.7,1.3,4.9,3.4,6.5,5.9
		c1.7,2.6,2.5,6.1,2.5,10.5c0,5.2-1.6,9.5-4.7,12.7c-3.2,3.2-7.5,5.3-13.1,6.1l20.2,32.8h-10.4l-19.3-32h-10.9v32h-8.5V446.5z
		 M478.1,477.8h7.5c2.4,0,4.8-0.1,7.3-0.2c2.4-0.1,4.7-0.5,6.9-1.3c2-0.7,3.8-1.9,5.2-3.5c1.4-1.6,2.1-3.8,2.1-6.8
		c0.1-2.1-0.4-4.3-1.5-6.1c-1-1.5-2.3-2.8-4-3.6c-1.7-0.9-3.6-1.4-5.5-1.7c-2.1-0.3-4.1-0.4-6.2-0.4h-11.9L478.1,477.8z"/>
	<path class="st0" d="M601.1,461.1c-2.1-2.8-4.8-5-7.9-6.5c-3.1-1.4-6.4-2.2-9.8-2.2c-3.8,0-7.5,0.8-10.9,2.4
		c-3.3,1.6-6.2,3.8-8.6,6.5c-2.4,2.8-4.4,6-5.6,9.5c-1.3,3.6-2,7.4-2,11.2c0,4,0.7,7.9,2,11.6c1.3,3.4,3.1,6.6,5.6,9.4
		c2.4,2.7,5.3,4.8,8.5,6.3c7.3,3.2,15.5,3.1,22.7-0.3c3.5-1.8,6.6-4.3,8.9-7.4l6.3,5.3c-3,4.1-7,7.4-11.6,9.5
		c-4.8,2.1-10.1,3.1-15.3,3c-4.9,0-9.8-0.9-14.3-2.8c-4.3-1.8-8.2-4.5-11.5-7.8c-3.3-3.4-5.9-7.4-7.6-11.8c-1.9-4.8-2.8-9.9-2.8-15
		c0-5,0.9-10,2.7-14.7c5.3-13.9,18.7-22.9,33.6-22.7c4.8,0,9.5,0.9,13.9,2.6c4.5,1.7,8.3,4.7,11.2,8.5L601.1,461.1z"/>
	<path class="st0" d="M642.1,446.5h8.5v30.2h38v-30.2h8.4v71.2h-8.4v-33.2h-38v33.2h-8.5V446.5z"/>
	<path class="st0" d="M734.9,446.5h8.5v71.2h-8.5V446.5z"/>
	<path class="st0" d="M828.9,454.3h-23.5v63.3h-8.5v-63.3h-23.5v-7.8h55.5L828.9,454.3z"/>
	<path class="st0" d="M859,446.5h44.8v7.8h-36.3v22.3h33.9v7.8h-33.9v25.4h38.1v7.8H859L859,446.5z"/>
	<path class="st0" d="M988.6,461.1c-2.1-2.8-4.8-5-7.9-6.5c-3.1-1.4-6.4-2.2-9.8-2.2c-3.8,0-7.5,0.8-10.9,2.4
		c-3.3,1.6-6.2,3.8-8.6,6.5c-2.4,2.8-4.4,6-5.6,9.5c-1.3,3.6-2,7.4-2,11.2c0,4,0.6,7.9,2,11.6c1.3,3.4,3.2,6.6,5.6,9.4
		c2.4,2.7,5.3,4.8,8.5,6.3c7.3,3.2,15.5,3.1,22.7-0.3c3.5-1.8,6.5-4.3,8.9-7.4l6.3,5.3c-3,4.1-7,7.4-11.6,9.5
		c-4.8,2.1-10.1,3.1-15.3,3c-4.9,0-9.8-0.9-14.3-2.8c-4.3-1.8-8.2-4.5-11.5-7.8c-3.3-3.4-5.9-7.4-7.6-11.8c-1.9-4.8-2.8-9.9-2.8-15
		c0-5,0.9-10,2.7-14.7c3.4-8.9,10.2-16,19-19.8c4.6-2,9.6-3,14.6-2.9c4.8,0,9.5,0.9,13.9,2.6c4.5,1.8,8.3,4.7,11.2,8.6L988.6,461.1z
		"/>
	<path class="st0" d="M1077.4,454.3h-23.5v63.3h-8.5v-63.3h-23.5v-7.8h55.5L1077.4,454.3z"/>
	<path class="st0" d="M1107.5,446.5h44.8v7.8H1116v22.3h33.9v7.8H1116v25.4h38.1v7.8h-46.6V446.5z"/>
</g>
</svg>
