<svg id="Calque_1" data-name="Calque 1" xmlns="http://www.w3.org/2000/svg" viewBox="0 0 6709.09 1142.07"><defs><style>.cls-1{fill:#161616;}.cls-2{font-size:100px;fill:#707070;font-family:Raleway-Medium, Raleway;}</style></defs><title>processus_mulvig01</title><path class="cls-1" d="M735.92,607h-71.8V469l-64.8,79.9h-5.7L528.72,469V607H459V368.87h65.1l73.2,89.3,73.5-89.3h65.1Z"/><path class="cls-1" d="M1044.82,500.27q0,30.6-11.4,52.1a91.85,91.85,0,0,1-30.2,34.1,129.16,129.16,0,0,1-40.5,18,176.21,176.21,0,0,1-43.4,5.5,172.89,172.89,0,0,1-58.8-10.3,104.41,104.41,0,0,1-47.8-35c-12.8-16.5-19.2-37.9-19.2-64.4l-.7-37h71.6l.8,18.5c0,15.7,2.3,28.7,6.8,38.9s10.8,17.7,18.9,22.5,17.6,7.1,28.6,7.1c10.5,0,19.9-2.3,28-7s14.5-12.1,19-22.3,6.8-23.1,6.8-38.8l-.7-18.9h71.8Z"/><path class="cls-1" d="M1282.82,607h-180.9V368.87h71.8V550h109.1Z"/><path class="cls-1" d="M1523,368.87l-107.4,241.2h-47.4l-105.3-241.2h74.7l54.5,137.4,56-137.4Z"/><path class="cls-1" d="M1628.52,607h-71.8l-.8-143.7h71.8Z"/><path class="cls-1" d="M1913.92,590.07q-7.8,3-13.2,4.8c-3.7,1.3-7.2,2.4-10.6,3.4s-8.3,2.4-14.7,4a322.05,322.05,0,0,1-32.6,5.8,280.64,280.64,0,0,1-34.3,2q-36.3,0-67-13.2a109.86,109.86,0,0,1-49.3-41.1q-18.45-27.75-18.5-68.4a145.28,145.28,0,0,1,9.5-51.3q9.6-25.2,29.1-40.3a138.29,138.29,0,0,1,32.8-19.2,140,140,0,0,1,32.4-8.8,239.68,239.68,0,0,1,34.9-2.2c21,0,38.3,1.6,51.9,4.7s28.6,7.3,44.8,12.4v56.4a203.85,203.85,0,0,0-34.2-15.8c-12-4.2-27-6.4-45-6.4q-31.05,0-49.7,11.8c-12.4,7.8-21.1,17.2-26,28.1s-7.3,21.4-7.3,31.6a67.43,67.43,0,0,0,8.4,33.2c5.6,10.1,14.1,18.3,25.4,24.4s25,9.2,41.1,9.2a131.09,131.09,0,0,0,29.2-3.6v-28h-32.3v-47.9h95Z"/><rect class="cls-1" x="1555.42" y="354.37" width="72.4" height="72.4"/><rect class="cls-1" x="795.42" y="354.37" width="72.4" height="72.4"/><rect class="cls-1" x="969.62" y="354.37" width="72.4" height="72.4"/><rect class="cls-1" x="1013.82" y="355.17" width="4.5" height="1.5"/><path class="cls-1" d="M1004.82,356.67h-9.1v-1.5h9.1Zm-18.2,0h-9.1v-1.5h9.1Zm-18.1,0h-9.1v-1.5h9.1Zm-18.1,0h-9.1v-1.5h9.1Zm-18.1,0h-9.1v-1.5h9.1Zm-18.1,0h-9.1v-1.5h9.1Zm-18.2,0h-9v-1.5h9Zm-18.1,0h-9.1v-1.5h9.1Zm-18.1,0h-9.1v-1.5h9.1Zm-18.1,0h-9.1v-1.5h9.1Z"/><rect class="cls-1" x="819.12" y="355.17" width="4.5" height="1.5"/><rect class="cls-1" x="1013.82" y="425.27" width="4.5" height="1.5"/><path class="cls-1" d="M1004.82,426.77h-9.1v-1.5h9.1Zm-18.2,0h-9.1v-1.5h9.1Zm-18.1,0h-9.1v-1.5h9.1Zm-18.1,0h-9.1v-1.5h9.1Zm-18.1,0h-9.1v-1.5h9.1Zm-18.1,0h-9.1v-1.5h9.1Zm-18.2,0h-9v-1.5h9Zm-18.1,0h-9.1v-1.5h9.1Zm-18.1,0h-9.1v-1.5h9.1Zm-18.1,0h-9.1v-1.5h9.1Z"/><rect class="cls-1" x="819.12" y="425.27" width="4.5" height="1.5"/><text class="cls-2" transform="translate(1139.17 914.25)">01</text><path class="cls-1" d="M2993.46,606.87h-71.8v-138l-64.8,79.9h-5.7l-64.9-79.9v138h-69.7V368.67h65.1l73.2,89.3,73.5-89.3h65.1Z"/><path class="cls-1" d="M3302.36,500.17q0,30.6-11.4,52.1t-30.2,34.1a129.16,129.16,0,0,1-40.5,18,176.21,176.21,0,0,1-43.4,5.5,172.89,172.89,0,0,1-58.8-10.3,104.41,104.41,0,0,1-47.8-35c-12.8-16.5-19.3-38-19.3-64.4l-.7-37h71.6l.8,18.5c0,15.7,2.3,28.7,6.8,38.9s10.8,17.8,18.9,22.5,17.6,7.1,28.6,7.1c10.5,0,19.9-2.3,28-7s14.5-12.1,19-22.3,6.8-23.1,6.8-38.8l-.7-18.8h71.8Z"/><path class="cls-1" d="M3540.36,606.87h-180.9V368.77h71.8v181.1h109.1Z"/><path class="cls-1" d="M3780.56,368.77,3673.16,610h-47.4l-105.3-241.2h74.7l54.5,137.4,56-137.4Z"/><path class="cls-1" d="M3886.06,606.87h-71.8l-.8-143.7h71.8Z"/><path class="cls-1" d="M4171.46,590.07q-7.8,3-13.2,4.8c-3.7,1.3-7.2,2.4-10.6,3.4s-8.3,2.4-14.7,4a322.05,322.05,0,0,1-32.6,5.8,280.64,280.64,0,0,1-34.3,2q-36.3,0-67-13.2a110,110,0,0,1-49.3-41.2q-18.45-27.75-18.5-68.4a145.28,145.28,0,0,1,9.5-51.3q9.6-25.2,29.1-40.3a134.64,134.64,0,0,1,32.8-19.1,140,140,0,0,1,32.4-8.8,239.68,239.68,0,0,1,34.9-2.2c21,0,38.3,1.6,51.9,4.7s28.6,7.3,44.8,12.5v56.3a203.85,203.85,0,0,0-34.2-15.8c-12-4.2-27-6.4-45-6.4q-31,0-49.7,11.8c-12.4,7.9-21.1,17.2-26,28.1s-7.3,21.4-7.3,31.6a67.43,67.43,0,0,0,8.4,33.2c5.6,10.1,14.1,18.3,25.4,24.4s25,9.2,41.1,9.2a131.09,131.09,0,0,0,29.2-3.6v-28h-32.3v-48h95Z"/><rect class="cls-1" x="3812.96" y="354.27" width="72.4" height="72.4"/><rect class="cls-1" x="3052.96" y="353.67" width="246.6" height="73.7"/><text class="cls-2" transform="translate(3392.46 914.25)">02</text><path class="cls-1" d="M5251,606.87h-71.8v-138l-64.8,79.9h-5.7l-64.9-79.9v138h-69.7V368.67h65.1l73.2,89.3,73.5-89.3H5251Z"/><path class="cls-1" d="M5559.89,500.17q0,30.6-11.4,52.1t-30.2,34.1a129.16,129.16,0,0,1-40.5,18,176.21,176.21,0,0,1-43.4,5.5,172.89,172.89,0,0,1-58.8-10.3,104.41,104.41,0,0,1-47.8-35c-12.8-16.5-19.3-38-19.3-64.4l-.7-37h71.6l.8,18.5c0,15.7,2.3,28.7,6.8,38.9s10.8,17.8,18.9,22.5,17.6,7.1,28.6,7.1c10.5,0,19.9-2.3,28-7s14.5-12.1,19-22.3,6.8-23.1,6.8-38.8l-.7-18.8h71.8Z"/><path class="cls-1" d="M5797.89,606.87H5617V368.77h71.8v181.1h109.1Z"/><path class="cls-1" d="M6038.09,368.77,5930.69,610h-47.4L5778,368.77h74.7l54.5,137.4,56-137.4Z"/><path class="cls-1" d="M6143.59,606.87h-71.8l-.8-143.7h71.8Z"/><path class="cls-1" d="M6429,590.07l-13.2,4.8c-3.7,1.3-7.2,2.4-10.6,3.4s-8.3,2.4-14.7,4a321.37,321.37,0,0,1-32.59,5.8,280.92,280.92,0,0,1-34.31,2q-36.29,0-67-13.2a109.53,109.53,0,0,1-49.19-41.1c-12.31-18.6-18.5-41.3-18.5-68.4a145.28,145.28,0,0,1,9.5-51.3q9.6-25.2,29.09-40.3a134.93,134.93,0,0,1,65.1-28,239.68,239.68,0,0,1,34.9-2.2c21,0,38.31,1.6,51.91,4.7s28.59,7.3,44.8,12.5v56.3a203.85,203.85,0,0,0-34.2-15.8q-18-6.3-45-6.3-31,0-49.7,11.8c-12.4,7.8-21.1,17.2-26,28.1s-7.3,21.4-7.3,31.6a67.43,67.43,0,0,0,8.4,33.2c5.6,10.1,14.1,18.3,25.4,24.4s25,9.2,41.1,9.2a131.09,131.09,0,0,0,29.2-3.6v-28h-32.3v-47.9h95Z"/><rect class="cls-1" x="6070.49" y="190.87" width="72.4" height="72.4"/><rect class="cls-1" x="5310.49" y="190.17" width="246.6" height="73.7"/><rect class="cls-1" x="5309.69" y="263.87" width="1.5" height="4.5"/><path class="cls-1" d="M5311.19,449.57h-1.5v-9.1h1.5Zm0-18.1h-1.5v-9.1h1.5Zm0-18.1h-1.5v-9.1h1.5Zm0-18.1h-1.5v-9.1h1.5Zm0-18.2h-1.5V368h1.5Zm0-18.1h-1.5v-9.1h1.5Zm0-18.1h-1.5v-9.1h1.5Zm0-18.1h-1.5v-9.1h1.5Zm0-18.1h-1.5v-9.1h1.5Zm0-18.1h-1.5v-9.1h1.5Z"/><rect class="cls-1" x="5309.69" y="458.67" width="1.5" height="4.5"/><rect class="cls-1" x="5556.39" y="263.87" width="1.5" height="4.5"/><path class="cls-1" d="M5557.89,449.57h-1.5v-9.1h1.5Zm0-18.1h-1.5v-9.1h1.5Zm0-18.1h-1.5v-9.1h1.5Zm0-18.1h-1.5v-9.1h1.5Zm0-18.2h-1.5V368h1.5Zm0-18.1h-1.5v-9.1h1.5Zm0-18.1h-1.5v-9.1h1.5Zm0-18.1h-1.5v-9.1h1.5Zm0-18.1h-1.5v-9.1h1.5Zm0-18.1h-1.5v-9.1h1.5Z"/><rect class="cls-1" x="5556.39" y="458.67" width="1.5" height="4.5"/><rect class="cls-1" x="6069.69" y="263.87" width="1.5" height="4.5"/><path class="cls-1" d="M6071.19,449.57h-1.5v-9.1h1.5Zm0-18.1h-1.5v-9.1h1.5Zm0-18.1h-1.5v-9.1h1.5Zm0-18.1h-1.5v-9.1h1.5Zm0-18.2h-1.5V368h1.5Zm0-18.1h-1.5v-9.1h1.5Zm0-18.1h-1.5v-9.1h1.5Zm0-18.1h-1.5v-9.1h1.5Zm0-18.1h-1.5v-9.1h1.5Zm0-18.1h-1.5v-9.1h1.5Z"/><rect class="cls-1" x="6069.69" y="458.67" width="1.5" height="4.5"/><rect class="cls-1" x="6142.09" y="263.87" width="1.5" height="4.5"/><path class="cls-1" d="M6143.59,449.57h-1.5v-9.1h1.5Zm0-18.1h-1.5v-9.1h1.5Zm0-18.1h-1.5v-9.1h1.5Zm0-18.1h-1.5v-9.1h1.5Zm0-18.2h-1.5V368h1.5Zm0-18.1h-1.5v-9.1h1.5Zm0-18.1h-1.5v-9.1h1.5Zm0-18.1h-1.5v-9.1h1.5Zm0-18.1h-1.5v-9.1h1.5Zm0-18.1h-1.5v-9.1h1.5Z"/><rect class="cls-1" x="6142.09" y="458.67" width="1.5" height="4.5"/><text class="cls-2" transform="translate(5720.29 914.25)">03</text></svg>