<svg id="Calque_1" data-name="Calque 1" xmlns="http://www.w3.org/2000/svg" viewBox="0 0 380 350"><defs><style>.cls-1{fill:#51c9bd;}.cls-2{fill:#b1f8f0;}.cls-3{fill:#dcfdfa;}.cls-4{fill:#86f1e6;}.cls-5,.cls-7,.cls-8{fill:none;}.cls-5{stroke:#86f1e6;stroke-width:0.82px;}.cls-6{fill:#c83820;}.cls-8{stroke:#fff;stroke-width:0.49px;opacity:0.15;isolation:isolate;}</style></defs><title>cover_mobile_mihivai</title><rect class="cls-1" x="-402.54" y="-0.28" width="790.46" height="350.28"/><path class="cls-2" d="M-31,57.92S-17.15,26,5,26C22.91,26,24.91,48.59,41.37,48S66.14,37.12,81,37.12c18.72,0,34.16,20.78,34.16,20.78Z"/><path id="Tracé_23" data-name="Tracé 23" class="cls-3" d="M-527.13,350.64s29.76-80.32,142.09-84S-220,180-124.82,176.37s131,103.69,256.42,98.16,177.12,76.18,177.12,76.18Z"/><path id="Tracé_25" data-name="Tracé 25" class="cls-4" d="M173.18,92.25a58.49,58.49,0,0,1-1.25,12c-5.43,26.46-28.76,35.42-56.61,35.42-32,0-57.9-15.28-57.9-47.47A58.06,58.06,0,0,1,115.32,34h0a58,58,0,0,1,57.89,58.13v.06h0"/><path id="Tracé_26" data-name="Tracé 26" class="cls-3" d="M122.91,86.81c-.58,1.17-1.17,2.49-1.81,3.89-3.62,7.7-7.95,17.33-12.3,15.63,0,0,.78-6.73-4.77-6.71a5.05,5.05,0,0,0-5.29,4.8h0v.47c0,4,3,6.11,5.92,8.25a16.75,16.75,0,0,1,4.88,4.53c2.18,3.62-1.81,22.61-1.81,22.61L124,146.72,125.28,131c5.43.33,11.95,0,15.47-2.34,7.51-5,10-18.85,10.75-26.86A82.12,82.12,0,0,1,122.91,86.81Z"/><path id="Tracé_27" data-name="Tracé 27" class="cls-4" d="M140.34,106.32l4,9.73H139.7Z"/><path id="Tracé_28" data-name="Tracé 28" class="cls-2" d="M136.11,106.73c0,1.93-1.24,3.46-2.54,3.38s-2.26-1.7-2.17-3.61,1.23-3.46,2.53-3.39,2.26,1.7,2.18,3.62"/><path id="Tracé_29" data-name="Tracé 29" class="cls-2" d="M148.25,106.42c0,1.94-1.24,3.46-2.52,3.39s-2.29-1.81-2.16-3.62,1.22-3.46,2.5-3.39,2.29,1.81,2.18,3.62"/><path id="Tracé_30" data-name="Tracé 30" class="cls-5" d="M138.56,120.49a5.94,5.94,0,0,1-5.91-2.3"/><path id="Tracé_31" data-name="Tracé 31" class="cls-4" d="M176.68,374l-1.38,12.19s25.79,6.83,35.49,16.93H162.7l1.8-34.92Zm55.37-56.65,5.54,11s25.33-8.69,39-5.61l-39.81,26.56-18.09-29.93Z"/><path id="Tracé_32" data-name="Tracé 32" class="cls-3" d="M163.91,371.33l12.79,5.12-.12,10.12-13.07-.49ZM220,321.7l13.5-2.84,5.43,8.52-11.21,6.87Z"/><path id="Tracé_33" data-name="Tracé 33" class="cls-4" d="M161.11,200.11,71.82,226.67,70,243.74c-1.18,16.77,14.93,31.2,31.62,31.2h0l58.48-.41-1.35,104.94h30.63l6.6-72.38,19.4,28.5,26-17.49-47.3-97.7C183.31,201.3,177.62,196.35,161.11,200.11Z"/><path id="Tracé_34" data-name="Tracé 34" class="cls-4" d="M168.57,232.89h0l-67,42.05,58.48-.39-1.37,104.94H189.4l10.52-114.82c2.62-20.9-10.4-31.81-31.34-31.81"/><path id="Tracé_35" data-name="Tracé 35" class="cls-6" d="M96.8,231H93.23v-.18l3.62.23"/><path id="Tracé_36" data-name="Tracé 36" class="cls-2" d="M172.45,271.45,160.13,273l-19.72-31.08-.71-10.34-30.07-.44L96.94,231h0l-3.62-.24c-16.18-1.14-38.58-4.3-40.1-13.06C50.41,201.78,71.51,171,74,167.4l.22-.35a40.67,40.67,0,0,1,10.42-11.14,32.09,32.09,0,0,1,18.25-5l1.56-11.25L128,142.94l-1.28,9.35c6.89.67,11.58,2,16,6.09,14.06,13,15.12,61.82,15.12,61.82Z"/><path id="Tracé_37" data-name="Tracé 37" class="cls-4" d="M159.58,258.71l-44.8-5.19a2.44,2.44,0,0,1-2.12-2.66v-.38l17.81-63a2.4,2.4,0,0,1,2.57-1.81l44.85,5.29A2.43,2.43,0,0,1,180,193.6V194l-17.73,63a2.37,2.37,0,0,1-2.58,1.81"/><path id="Tracé_38" data-name="Tracé 38" class="cls-3" d="M172.24,271.47a107.24,107.24,0,0,1,6.74,8.46,51.77,51.77,0,0,1,2.39,11.87c0,1.67-5.08,9.21-5.08,9.21-3.1-.76-1.06-4.67-1.06-4.67s-2.77,2.4-3.92,2.33c-10.86-.36-10.3-5.91-10-6.6.57-1.56,3.5.22,3.5.22s-5.57-11.4-4.23-19.38Zm-33.08-42.41s1.92.49,2,1.72c0,.35-11.73,2.59-11.73,2.59l2.55.14,2.63-.13s1.38.25,1.47,1.42c0,.45-2.42.95-5.29,1.32a25.07,25.07,0,0,1-10.72-.78l-.76-.22a29.75,29.75,0,0,1-8.79-3.25,38.37,38.37,0,0,1-5.64-4l3-11.08,4.11-1.41A29.12,29.12,0,0,1,117,214c2-.38,4-.24,6-.45l-1.17,4.34a4.39,4.39,0,0,0-.4.56l.27.26c.87.78,2.46,2.16,9.37,3.9a50.93,50.93,0,0,0,6,.42c1.37.18,4.24.45,4.41,2.12a1.58,1.58,0,0,1-.46.86,2,2,0,0,1,1.92,1.81c.14.61-3.89,1.25-3.89,1.25Z"/><path id="Tracé_40" data-name="Tracé 40" class="cls-4" d="M125.51,131.06s-6.47.2-9.24-1.32l8.91,5.65Z"/><path id="Tracé_41" data-name="Tracé 41" class="cls-7" d="M139.3,231.5c1.81-22,13.65-26.71,5-51.44"/><path id="Tracé_42" data-name="Tracé 42" class="cls-8" d="M167,277.12a11.87,11.87,0,0,0,6.77,7.62c1.81.62,1.38,8.08,5.87,7.23"/><path id="Tracé_43" data-name="Tracé 43" class="cls-7" d="M92.54,184.39,81.2,203.26l28.13,11.2"/><path id="Tracé_44" data-name="Tracé 44" class="cls-2" d="M117.45,253.83,162.26,259a2.37,2.37,0,0,0,2.57-1.8l17.71-63a2.4,2.4,0,0,0-1.64-3l-.38-.09L135.7,186a2.37,2.37,0,0,0-2.58,1.81l-9.05,32.4a35.58,35.58,0,0,0,7.24,2.41,45.29,45.29,0,0,0,6,.41h.32c1.45.18,3.94.53,4.12,2a1.53,1.53,0,0,1-.44.84,2,2,0,0,1,1.92,1.81c0,.66-4,1.3-4,1.3s1.93.51,2,1.72c0,.34-11.75,2.59-11.75,2.59l2.55.14,2.65-.12s1.38.27,1.46,1.4c0,.48-2.43,1-5.29,1.35a25.4,25.4,0,0,1-10.72-.8h-.27l-4.48,15.53a2.38,2.38,0,0,0,1.62,3h0Z"/><path id="Tracé_45" data-name="Tracé 45" class="cls-4" d="M137.67,191.88c-.36,1.12-1.06,1.81-1.68,1.68s-.75-1.24-.41-2.36,1.06-1.81,1.7-1.69.74,1.25.39,2.37"/><path class="cls-2" d="M238.34,255.94S265.21,194,308.09,194c34.78,0,38.65,43.82,70.56,42.75s48-21.16,76.77-21.16c36.3,0,66.24,40.28,66.24,40.28Z"/><path class="cls-2" d="M301.76,78.14c-2.53-2.52-4.67-4.84-6.5-6.93h-3.08c2.19,2.53,4.91,5.5,8.21,8.86l1.31,1.37L303,80.18c3.35-3.41,6.12-6.37,8.32-9h-3C306.49,73.3,304.3,75.57,301.76,78.14Z"/><path class="cls-2" d="M290.13,50.77a6.89,6.89,0,0,1,9.57,1.84,7.41,7.41,0,0,1,.72,1.4l.3.69h2.14l.3-.69a7,7,0,0,1,4.49-4.18,6.77,6.77,0,0,1,8.44,4.52l0,.06a5.78,5.78,0,0,1,.24,2.48h2.32a9.13,9.13,0,0,0-16.91-5.22,9.06,9.06,0,0,0-12.42-3.09l-.1.07A9.19,9.19,0,0,0,284.82,57h2.32A7.2,7.2,0,0,1,290.13,50.77Z"/><path class="cls-2" d="M316,59.16c-.19.64-.36,1.26-.58,1.83a13.36,13.36,0,0,1-.57,1.31H288.55A8.14,8.14,0,0,1,288,61a7.21,7.21,0,0,1-.51-1.83h-2.37a18.32,18.32,0,0,0,.77,2.65,29,29,0,0,0,4.43,7.08h3A46.77,46.77,0,0,1,290,64.57h23.53c-1,1.44-2.14,2.88-3.24,4.32h3a30.15,30.15,0,0,0,4.42-7.08,14.27,14.27,0,0,0,.82-2.65Z"/><path class="cls-2" d="M281.32,93.06a4.84,4.84,0,0,1,1.18,3.66v6.38h-2.59v-6a3.2,3.2,0,0,0-.64-2.23,2.39,2.39,0,0,0-1.86-.73,2.66,2.66,0,0,0-2.07.86,3.38,3.38,0,0,0-.79,2.44V103h-2.64V97a3.22,3.22,0,0,0-.63-2.29,2.37,2.37,0,0,0-1.86-.74,2.92,2.92,0,0,0-2.18.85,3.67,3.67,0,0,0-.79,2.51V103h-2.68V92h2.49v1.44a3.85,3.85,0,0,1,1.6-1.17,5.28,5.28,0,0,1,2.11-.4,5.06,5.06,0,0,1,2.22.49,3.14,3.14,0,0,1,1.44,1.44,4.68,4.68,0,0,1,1.8-1.44,5.48,5.48,0,0,1,2.43-.49A4.76,4.76,0,0,1,281.32,93.06Z"/><path class="cls-2" d="M286,89.7a1.72,1.72,0,0,1-.49-1.15,1.46,1.46,0,0,1,.49-1.16,1.84,1.84,0,0,1,1.21-.42,2,2,0,0,1,1.22.42,1.49,1.49,0,0,1,.49,1.06,1.56,1.56,0,0,1-.49,1.17,1.8,1.8,0,0,1-1.22.49A1.43,1.43,0,0,1,286,89.7Zm-.13,2.3h2.59v11.1h-2.59Z"/><path class="cls-2" d="M301.52,93.06a4.78,4.78,0,0,1,1.28,3.66v6.38h-2.6v-6a3.18,3.18,0,0,0-.73-2.23,2.54,2.54,0,0,0-1.92-.73,3,3,0,0,0-2.29.86,4,4,0,0,0-.86,2.49v5.59h-2.55V87.54h2.59v5.77A3.93,3.93,0,0,1,296,92.24a5.24,5.24,0,0,1,2.07-.37A4.48,4.48,0,0,1,301.52,93.06Z"/><path class="cls-2" d="M306.24,89.7a1.75,1.75,0,0,1-.47-1.15,1.49,1.49,0,0,1,.47-1.16,1.77,1.77,0,0,1,1.23-.42,2,2,0,0,1,1.22.42,1.53,1.53,0,0,1,.49,1.06,1.56,1.56,0,0,1-.49,1.17,2,2,0,0,1-1.22.49A1.55,1.55,0,0,1,306.24,89.7Zm-.11,2.3h2.59v11.1h-2.59Z"/><path class="cls-2" d="M322.61,92l-4.8,11.1h-2.65L310.36,92h2.72l3.45,8.24,3.6-8.24Z"/><path class="cls-2" d="M331.85,93.06a4.41,4.41,0,0,1,1.29,3.6v6.47h-2.45v-1.44a3.83,3.83,0,0,1-1.44,1.15,4.93,4.93,0,0,1-2.18.38,6.26,6.26,0,0,1-2.22-.43,2.93,2.93,0,0,1-1.44-1.23,2.78,2.78,0,0,1-.49-1.7,3,3,0,0,1,1.17-2.45,5.44,5.44,0,0,1,3.5-.93h2.88v-.16a2.27,2.27,0,0,0-.73-1.8,3,3,0,0,0-2.08-.64,5.6,5.6,0,0,0-1.86.28,3.4,3.4,0,0,0-1.44.79l-1-1.86a6.33,6.33,0,0,1,2.07-1,10.32,10.32,0,0,1,2.59-.37A6.1,6.1,0,0,1,331.85,93.06ZM329.51,101a2.56,2.56,0,0,0,1.06-1.28V98.41h-2.72c-1.44,0-2.22.49-2.22,1.44a1.42,1.42,0,0,0,.58,1.15,2.94,2.94,0,0,0,1.58.43A5.77,5.77,0,0,0,329.51,101Z"/><path class="cls-2" d="M336.61,89.7a1.77,1.77,0,0,1-.49-1.15,1.54,1.54,0,0,1,.49-1.16,1.67,1.67,0,0,1,1.22-.42,2,2,0,0,1,1.23.42,1.51,1.51,0,0,1,0,2.23,1.8,1.8,0,0,1-1.23.49A1.5,1.5,0,0,1,336.61,89.7Zm-.09,2.3h2.6v11.1h-2.6Z"/></svg>