<svg id="Calque_1" data-name="Calque 1" xmlns="http://www.w3.org/2000/svg" viewBox="0 0 1300 600"><defs><style>.cls-1{fill:#51c9bd;}.cls-2{fill:#dcfdfa;}.cls-3{fill:#86f1e6;}.cls-4{fill:#b1f8f0;}.cls-5,.cls-7,.cls-8{fill:none;}.cls-5{stroke:#86f1e6;stroke-width:0.82px;}.cls-6{fill:#c83820;}.cls-8{stroke:#fff;stroke-width:0.49px;opacity:0.15;isolation:isolate;}</style></defs><title>cover_mihivai</title><rect class="cls-1" y="-8.44" width="1300" height="616.51"/><path id="Tracé_23" data-name="Tracé 23" class="cls-2" d="M-624.52,601.58S-575,467.92-388.1,461.86s274.64-144.18,433-150.26,217.9,172.53,426.66,163.33S766.25,601.68,766.25,601.68Z"/><path id="Tracé_25" data-name="Tracé 25" class="cls-3" d="M540.73,171.64a97.55,97.55,0,0,1-2.08,20c-9,44-47.85,58.92-94.2,58.92-53.17,0-96.34-25.42-96.34-79a96.61,96.61,0,0,1,96.34-96.83h0a96.52,96.52,0,0,1,96.33,96.72v.11h0"/><path id="Tracé_26" data-name="Tracé 26" class="cls-2" d="M457.09,162.58c-1,1.95-2,4.15-3,6.47-6,12.82-13.24,28.84-20.48,26,0,0,1.31-11.2-7.94-11.16a8.41,8.41,0,0,0-8.8,8h0v.77c0,6.66,4.95,10.18,9.86,13.74a27.5,27.5,0,0,1,8.11,7.53c3.63,6-3,37.62-3,37.62l27.1,10.72L461,236.11c9,.55,19.88,0,25.74-3.89,12.5-8.36,16.62-31.37,17.89-44.7A136.37,136.37,0,0,1,457.09,162.58Z"/><path id="Tracé_27" data-name="Tracé 27" class="cls-3" d="M486.08,195l6.62,16.2H485Z"/><path id="Tracé_28" data-name="Tracé 28" class="cls-4" d="M479,195.73c0,3.22-2.06,5.75-4.22,5.63s-3.75-2.83-3.61-6,2-5.76,4.2-5.63,3.77,2.83,3.63,6"/><path id="Tracé_29" data-name="Tracé 29" class="cls-4" d="M499.25,195.22c0,3.22-2.06,5.75-4.19,5.63s-3.82-3-3.61-6,2-5.76,4.18-5.63,3.8,3,3.62,6"/><path id="Tracé_30" data-name="Tracé 30" class="cls-5" d="M483.13,218.63a9.92,9.92,0,0,1-9.85-3.84"/><path id="Tracé_31" data-name="Tracé 31" class="cls-3" d="M546.56,640.36l-2.31,20.28s42.92,11.36,59.07,28.17h-80l3-58.1Zm92.12-94.26,9.21,18.28s42.15-14.46,65-9.33l-66.23,44.19L616.5,549.45Z"/><path id="Tracé_32" data-name="Tracé 32" class="cls-2" d="M525.31,636l21.28,8.52-.21,16.83-21.74-.81Zm93.3-82.59,22.47-4.72,9,14.17-18.64,11.45Z"/><path id="Tracé_33" data-name="Tracé 33" class="cls-3" d="M520.64,351.11,372.07,395.3l-3,28.4c-1.95,27.9,24.84,51.91,52.62,51.91h0l97.31-.68-2.26,174.6h51l11-120.41L611,576.53l43.22-29.11L575.46,384.86C557.58,353.08,548.12,344.84,520.64,351.11Z"/><path id="Tracé_34" data-name="Tracé 34" class="cls-3" d="M533.05,405.65h0l-111.4,70L519,475l-2.29,174.61h51.06l17.5-191.05c4.36-34.77-17.31-52.92-52.15-52.92"/><path id="Tracé_35" data-name="Tracé 35" class="cls-6" d="M413.64,402.43h-5.93v-.3l6,.39"/><path id="Tracé_36" data-name="Tracé 36" class="cls-4" d="M539.51,469.8,519,472.37l-32.81-51.72L485,403.45l-50-.74-21.12-.28h0l-6-.39c-26.92-1.9-64.19-7.16-66.73-21.74-4.66-26.41,30.44-77.69,34.6-83.63l.37-.58a67.73,67.73,0,0,1,17.34-18.53,53.33,53.33,0,0,1,30.37-8.28l2.58-18.73L465.52,256l-2.13,15.56c11.46,1.11,19.26,3.37,26.58,10.14,23.4,21.66,25.16,102.85,25.16,102.85Z"/><path id="Tracé_37" data-name="Tracé 37" class="cls-3" d="M518.11,448.61,443.55,440a4.08,4.08,0,0,1-3.52-4.44v-.63L469.66,330a4,4,0,0,1,4.28-3l74.62,8.8a4,4,0,0,1,3.52,4.43v.64L522.6,445.75a4,4,0,0,1-4.3,3"/><path id="Tracé_38" data-name="Tracé 38" class="cls-2" d="M539.16,469.84a178.88,178.88,0,0,1,11.22,14.08,87,87,0,0,1,4,19.76c0,2.76-8.45,15.31-8.45,15.31-5.16-1.27-1.77-7.76-1.77-7.76s-4.61,4-6.53,3.87c-18.06-.6-17.13-9.84-16.7-11,1-2.59,5.82.37,5.82.37s-9.26-19-7-32.26Zm-55-70.56s3.19.81,3.24,2.85c0,.58-19.53,4.31-19.53,4.31l4.25.23,4.38-.21s2.29.42,2.45,2.36c0,.76-4,1.58-8.8,2.2a41.55,41.55,0,0,1-17.84-1.3l-1.27-.35a49.74,49.74,0,0,1-14.63-5.43,64.17,64.17,0,0,1-9.38-6.65l4.93-18.43,6.83-2.35a49,49,0,0,1,8.5-2.23c3.37-.64,6.62-.39,10.07-.74l-1.95,7.22a6.73,6.73,0,0,0-.65.93l.44.42c1.44,1.31,4.1,3.61,15.6,6.5a82.37,82.37,0,0,0,10.05.7c2.27.3,7,.74,7.32,3.52a2.59,2.59,0,0,1-.75,1.43,3.33,3.33,0,0,1,3.18,3c.25,1-6.46,2.1-6.46,2.1Z"/><path id="Tracé_40" data-name="Tracé 40" class="cls-3" d="M461.42,236.22s-10.78.33-15.39-2.2l14.82,9.4Z"/><path id="Tracé_41" data-name="Tracé 41" class="cls-7" d="M484.36,403.33c3-36.66,22.71-44.44,8.4-85.58"/><path id="Tracé_42" data-name="Tracé 42" class="cls-8" d="M530.48,479.24a19.77,19.77,0,0,0,11.27,12.68c3,1,2.29,13.45,9.75,12"/><path id="Tracé_43" data-name="Tracé 43" class="cls-7" d="M406.54,325l-18.85,31.39L434.48,375"/><path id="Tracé_44" data-name="Tracé 44" class="cls-4" d="M448,440.49l74.56,8.61a4,4,0,0,0,4.28-3l29.47-104.87a4,4,0,0,0-2.73-4.93l-.63-.16-74.58-8.51a4,4,0,0,0-4.29,3L459,384.54a59.32,59.32,0,0,0,12.06,4,75.08,75.08,0,0,0,10.05.68h.53c2.41.3,6.55.88,6.85,3.4a2.48,2.48,0,0,1-.73,1.39,3.39,3.39,0,0,1,3.19,3c0,1.11-6.69,2.17-6.69,2.17s3.22.84,3.29,2.87c0,.56-19.54,4.29-19.54,4.29l4.24.25,4.4-.21s2.31.46,2.43,2.34c0,.79-4,1.6-8.8,2.23a42.15,42.15,0,0,1-17.83-1.32H452l-7.47,25.83a4,4,0,0,0,2.7,4.93h0Z"/><path id="Tracé_45" data-name="Tracé 45" class="cls-3" d="M481.65,337.41c-.6,1.87-1.76,3-2.8,2.8s-1.25-2.08-.69-3.92,1.76-3,2.84-2.82,1.23,2.08.65,3.94"/><path class="cls-4" d="M686.1,363s44.7-103,116.06-103c57.86,0,64.31,72.92,117.4,71.14s79.91-35.21,127.75-35.21c60.38,0,110.21,67,110.21,67Z"/><path class="cls-4" d="M-224,132.35s34.57-79.7,89.77-79.7c44.77,0,49.75,56.41,90.83,55S18.41,80.45,55.42,80.45c46.71,0,85.25,51.85,85.25,51.85Z"/><path class="cls-4" d="M1094,127.71c-4.22-4.19-7.77-8-10.81-11.53h-5.13c3.64,4.22,8.17,9.16,13.66,14.74l2.18,2.28,2.09-2.08c5.58-5.68,10.18-10.6,13.85-14.94h-5C1101.86,119.66,1098.22,123.45,1094,127.71Z"/><path class="cls-4" d="M1074.65,82.17a11.45,11.45,0,0,1,15.91,3.08,11.82,11.82,0,0,1,1.21,2.31l.5,1.15h3.55l.5-1.15a11.56,11.56,0,0,1,7.48-7,11.26,11.26,0,0,1,14,7.53l0,.09a9.64,9.64,0,0,1,.41,4.13h3.86A15.2,15.2,0,0,0,1094,83.68a15.07,15.07,0,0,0-20.66-5.14l-.17.11a15.26,15.26,0,0,0-7.36,13.85h3.86A12,12,0,0,1,1074.65,82.17Z"/><path class="cls-4" d="M1117.61,96.14c-.31,1.06-.6,2.09-1,3s-.63,1.46-1,2.18H1072a12.78,12.78,0,0,1-1-2.18,12.38,12.38,0,0,1-.87-3h-3.93a31.78,31.78,0,0,0,1.27,4.41,48,48,0,0,0,7.39,11.77h4.91a78.77,78.77,0,0,1-5.39-7.19h39.16c-1.67,2.4-3.57,4.8-5.39,7.19h4.94a50.36,50.36,0,0,0,7.36-11.77,25,25,0,0,0,1.36-4.41Z"/><path class="cls-4" d="M1060,152.55a8,8,0,0,1,2,6.08v10.62h-4.32v-10a5.34,5.34,0,0,0-1.05-3.72,4,4,0,0,0-3.09-1.22,4.42,4.42,0,0,0-3.45,1.44,5.58,5.58,0,0,0-1.32,4.05v9.35h-4.39v-10a5.46,5.46,0,0,0-1-3.81,4,4,0,0,0-3.1-1.22,4.81,4.81,0,0,0-3.62,1.41,6.06,6.06,0,0,0-1.31,4.17v9.35h-4.46V150.77h4.14v2.4a6.34,6.34,0,0,1,2.66-1.94,8.76,8.76,0,0,1,3.5-.67,8.6,8.6,0,0,1,3.7.81,5.29,5.29,0,0,1,2.39,2.4,8,8,0,0,1,3-2.4,9.26,9.26,0,0,1,4-.81A8,8,0,0,1,1060,152.55Z"/><path class="cls-4" d="M1067.7,147a2.88,2.88,0,0,1-.81-1.92,2.51,2.51,0,0,1,.81-1.94,3.13,3.13,0,0,1,2-.69,3.33,3.33,0,0,1,2,.69,2.56,2.56,0,0,1,.82,1.78,2.65,2.65,0,0,1-.82,1.94,3,3,0,0,1-2,.81A2.39,2.39,0,0,1,1067.7,147Zm-.21,3.81h4.31v18.48h-4.31Z"/><path class="cls-4" d="M1093.59,152.55a7.89,7.89,0,0,1,2.13,6.08v10.62h-4.31v-10a5.4,5.4,0,0,0-1.22-3.72,4.24,4.24,0,0,0-3.19-1.22,5,5,0,0,0-3.81,1.44,6.58,6.58,0,0,0-1.44,4.14v9.31h-4.25V143.37h4.32V153a6.42,6.42,0,0,1,2.64-1.77,8.65,8.65,0,0,1,3.45-.62A7.44,7.44,0,0,1,1093.59,152.55Z"/><path class="cls-4" d="M1101.45,147a2.91,2.91,0,0,1-.79-1.92,2.62,2.62,0,0,1,.79-1.94,2.93,2.93,0,0,1,2-.69,3.44,3.44,0,0,1,2,.69,2.6,2.6,0,0,1,.81,1.78,2.64,2.64,0,0,1-.81,1.94,3.23,3.23,0,0,1-2,.81A2.55,2.55,0,0,1,1101.45,147Zm-.19,3.81h4.31v18.48h-4.31Z"/><path class="cls-4" d="M1128.68,150.77l-8,18.48h-4.41l-8-18.48h4.53l5.73,13.71,6-13.71Z"/><path class="cls-4" d="M1144.07,152.55a7.33,7.33,0,0,1,2.13,6V169.3h-4.07v-2.4a6.32,6.32,0,0,1-2.4,1.92,7.88,7.88,0,0,1-3.62.62,10.17,10.17,0,0,1-3.69-.71,4.8,4.8,0,0,1-2.4-2,4.59,4.59,0,0,1-.81-2.83,5,5,0,0,1,1.94-4.08,9.11,9.11,0,0,1,5.82-1.55h4.8V158a3.79,3.79,0,0,0-1.22-3,5,5,0,0,0-3.46-1.06,9.31,9.31,0,0,0-3.09.46,5.69,5.69,0,0,0-2.39,1.32l-1.68-3.1a10.61,10.61,0,0,1,3.45-1.67,17.54,17.54,0,0,1,4.31-.63A10.16,10.16,0,0,1,1144.07,152.55Zm-3.91,13.16a4.29,4.29,0,0,0,1.78-2.14v-2.13h-4.53c-2.4,0-3.7.81-3.7,2.4a2.4,2.4,0,0,0,1,1.91,5,5,0,0,0,2.64.72A9.32,9.32,0,0,0,1140.16,165.71Z"/><path class="cls-4" d="M1152,147a2.94,2.94,0,0,1-.82-1.92,2.65,2.65,0,0,1,.82-1.94,2.81,2.81,0,0,1,2-.69,3.38,3.38,0,0,1,2,.69,2.56,2.56,0,0,1,.82,1.78,2.61,2.61,0,0,1-.82,1.94,2.94,2.94,0,0,1-2,.81A2.5,2.5,0,0,1,1152,147Zm-.14,3.81h4.31v18.48h-4.31Z"/></svg>