<svg id="Calque_1" data-name="Calque 1" xmlns="http://www.w3.org/2000/svg" viewBox="0 0 800 530"><defs><style>.cls-1{fill:#51c9bd;}.cls-2{fill:#b1f8f0;}</style></defs><title>cover_mihivai</title><rect class="cls-1" x="-15.25" y="-9.57" width="852.12" height="566.81"/><path class="cls-2" d="M-159.12,118.45s34.57-79.7,89.77-79.7c44.77,0,49.75,56.41,90.83,55s61.81-27.2,98.82-27.2c46.71,0,85.25,51.85,85.25,51.85Z"/><path class="cls-2" d="M422.16,263.47c-12.3-12.22-22.65-23.33-31.51-33.62h-15c10.61,12.3,23.82,26.71,39.83,43l6.35,6.64,6.1-6.06c16.26-16.56,29.68-30.91,40.37-43.56H453.77C445.08,240,434.47,251.05,422.16,263.47Z"/><path class="cls-2" d="M365.75,130.69a33.39,33.39,0,0,1,46.36,8.94l0,0a33.82,33.82,0,0,1,3.53,6.74l1.46,3.35h10.35l1.46-3.35A33.69,33.69,0,0,1,450.74,126,32.82,32.82,0,0,1,491.55,148v.27a28.07,28.07,0,0,1,1.2,12H504a44.31,44.31,0,0,0-81.84-25.16,43.93,43.93,0,0,0-60.23-15l-.5.32A44.47,44.47,0,0,0,340,160.81h11.25A35,35,0,0,1,365.75,130.69Z"/><path class="cls-2" d="M491,171.42a73.51,73.51,0,0,1-2.92,8.75c-1.16,2.65-1.83,4.26-2.91,6.36H358a37.26,37.26,0,0,1-2.91-6.36,36,36,0,0,1-2.54-8.75H341.11a92.62,92.62,0,0,0,3.71,12.86,139.83,139.83,0,0,0,21.54,34.32h14.32a229.14,229.14,0,0,1-15.72-21H479.13c-4.87,7-10.41,14-15.71,21h14.4a147.15,147.15,0,0,0,21.46-34.32,73,73,0,0,0,4-12.86Z"/><path class="cls-2" d="M323,335.89a23.33,23.33,0,0,1,5.83,17.72v31h-12.6V355.42a15.54,15.54,0,0,0-3.06-10.84,11.63,11.63,0,0,0-9-3.56,12.88,12.88,0,0,0-10.06,4.2A16.25,16.25,0,0,0,290.3,357v27.26H277.5V355.13A15.94,15.94,0,0,0,274.58,344a11.69,11.69,0,0,0-9-3.56A14,14,0,0,0,255,344.58a17.67,17.67,0,0,0-3.82,12.15V384h-13V330.7h12.07v7A18.48,18.48,0,0,1,258,332a25.53,25.53,0,0,1,10.21-2A25,25,0,0,1,279,332.45a15.37,15.37,0,0,1,7,7,23.38,23.38,0,0,1,8.75-7,26.91,26.91,0,0,1,11.66-2.36A23.31,23.31,0,0,1,323,335.89Z"/><path class="cls-2" d="M345.49,319.71a8.42,8.42,0,0,1-2.37-5.6,7.35,7.35,0,0,1,2.37-5.66,9.14,9.14,0,0,1,5.83-2,9.77,9.77,0,0,1,5.83,2,7.5,7.5,0,0,1,2.39,5.19,7.75,7.75,0,0,1-2.39,5.66,8.79,8.79,0,0,1-5.83,2.36A7,7,0,0,1,345.49,319.71Zm-.62,11.1h12.57v53.88H344.87Z"/><path class="cls-2" d="M421,335.89a23,23,0,0,1,6.21,17.72v31H414.61V355.42a15.74,15.74,0,0,0-3.55-10.84,12.36,12.36,0,0,0-9.3-3.56,14.55,14.55,0,0,0-11.11,4.2,19.16,19.16,0,0,0-4.2,12.07v27.14H374.06V309.12h12.59V337.2a18.76,18.76,0,0,1,7.7-5.16,25.27,25.27,0,0,1,10.06-1.81A21.7,21.7,0,0,1,421,335.89Z"/><path class="cls-2" d="M443.88,319.71a8.48,8.48,0,0,1-2.3-5.6,7.66,7.66,0,0,1,2.3-5.66,8.57,8.57,0,0,1,5.83-2,10.1,10.1,0,0,1,5.84,2,7.59,7.59,0,0,1,2.36,5.19,7.73,7.73,0,0,1-2.36,5.66,9.48,9.48,0,0,1-5.84,2.36A7.45,7.45,0,0,1,443.88,319.71Zm-.55,11.1H455.9v53.88H443.33Z"/><path class="cls-2" d="M523.27,330.7,500,384.58H487.09L463.77,330.7H477l16.71,40,17.49-40Z"/><path class="cls-2" d="M568.14,335.89a21.36,21.36,0,0,1,6.21,17.49v31.34H562.49v-7a18.37,18.37,0,0,1-7,5.6,22.89,22.89,0,0,1-10.56,1.81,29.73,29.73,0,0,1-10.75-2.07,14,14,0,0,1-7-5.83,13.4,13.4,0,0,1-2.36-8.25,14.57,14.57,0,0,1,5.65-11.9,26.62,26.62,0,0,1,17-4.52h14v-.78a11.09,11.09,0,0,0-3.56-8.75,14.58,14.58,0,0,0-10.09-3.09,27.28,27.28,0,0,0-9,1.34,16.54,16.54,0,0,0-7,3.85l-4.9-9A30.88,30.88,0,0,1,537,331.22a50.76,50.76,0,0,1,12.56-1.83A29.58,29.58,0,0,1,568.14,335.89Zm-11.4,38.37a12.55,12.55,0,0,0,5.19-6.24v-6.21H548.72c-7,0-10.78,2.36-10.78,7a7,7,0,0,0,2.91,5.57,14.6,14.6,0,0,0,7.7,2.1,27.11,27.11,0,0,0,8.19-2.21Z"/><path class="cls-2" d="M591.26,319.71a8.64,8.64,0,0,1-2.39-5.6,7.75,7.75,0,0,1,2.39-5.66,8.24,8.24,0,0,1,5.83-2,9.88,9.88,0,0,1,5.83,2,7.42,7.42,0,0,1,2.39,5.19,7.58,7.58,0,0,1-2.39,5.66,8.54,8.54,0,0,1-5.83,2.36A7.29,7.29,0,0,1,591.26,319.71Zm-.41,11.1h12.57v53.88H590.85Z"/></svg>