<svg id="Calque_1" data-name="Calque 1" xmlns="http://www.w3.org/2000/svg" viewBox="0 0 767 350"><defs><style>.cls-1{fill:#51c9bd;}.cls-2{fill:#dcfdfa;}.cls-3{fill:#86f1e6;}.cls-4{fill:#b1f8f0;}.cls-5,.cls-7,.cls-8{fill:none;}.cls-5{stroke:#86f1e6;stroke-width:0.82px;}.cls-6{fill:#c83820;}.cls-8{stroke:#fff;stroke-width:0.49px;opacity:0.15;isolation:isolate;}</style></defs><title>cover_mobile_mihivai</title><rect class="cls-1" x="-16.25" y="-0.28" width="790.46" height="350.28"/><path id="Tracé_23" data-name="Tracé 23" class="cls-2" d="M-434.18,350.64s29.76-80.32,142.09-84S-127,180-31.87,176.37s131,103.69,256.42,98.16,177.12,76.18,177.12,76.18Z"/><path id="Tracé_25" data-name="Tracé 25" class="cls-3" d="M266.13,92.25a58.49,58.49,0,0,1-1.25,12c-5.42,26.46-28.75,35.42-56.61,35.42-32,0-57.9-15.28-57.9-47.47A58.06,58.06,0,0,1,208.27,34h0a58,58,0,0,1,57.89,58.13v.06h0"/><path id="Tracé_26" data-name="Tracé 26" class="cls-2" d="M215.86,86.81c-.58,1.17-1.17,2.49-1.81,3.89-3.61,7.7-8,17.33-12.3,15.63,0,0,.78-6.73-4.77-6.71a5.05,5.05,0,0,0-5.29,4.8h0v.47c0,4,3,6.11,5.92,8.25a16.62,16.62,0,0,1,4.88,4.53c2.18,3.62-1.81,22.61-1.81,22.61L217,146.72,218.23,131c5.43.33,12,0,15.47-2.34,7.51-5,10-18.85,10.75-26.86A82.2,82.2,0,0,1,215.86,86.81Z"/><path id="Tracé_27" data-name="Tracé 27" class="cls-3" d="M233.29,106.32l4,9.73h-4.62Z"/><path id="Tracé_28" data-name="Tracé 28" class="cls-4" d="M229.06,106.73c0,1.93-1.24,3.46-2.54,3.38s-2.26-1.7-2.17-3.61,1.23-3.46,2.53-3.39,2.26,1.7,2.18,3.62"/><path id="Tracé_29" data-name="Tracé 29" class="cls-4" d="M241.2,106.42c0,1.94-1.23,3.46-2.51,3.39s-2.3-1.81-2.17-3.62,1.22-3.46,2.5-3.39,2.29,1.81,2.18,3.62"/><path id="Tracé_30" data-name="Tracé 30" class="cls-5" d="M231.51,120.49a5.94,5.94,0,0,1-5.91-2.3"/><path id="Tracé_31" data-name="Tracé 31" class="cls-3" d="M269.63,374l-1.38,12.19S294,393,303.75,403.07h-48.1l1.81-34.92ZM325,317.3l5.54,11s25.33-8.69,39-5.61l-39.81,26.56-18.09-29.93Z"/><path id="Tracé_32" data-name="Tracé 32" class="cls-2" d="M256.86,371.33l12.8,5.12-.13,10.12-13.07-.49Zm56.08-49.63,13.5-2.84,5.43,8.52-11.21,6.87Z"/><path id="Tracé_33" data-name="Tracé 33" class="cls-3" d="M254.06,200.11l-89.29,26.56L163,243.74c-1.17,16.77,14.93,31.2,31.63,31.2h0l58.47-.41-1.35,104.94h30.63l6.6-72.38,19.4,28.5,26-17.49L287,220.4C276.26,201.3,270.58,196.35,254.06,200.11Z"/><path id="Tracé_34" data-name="Tracé 34" class="cls-3" d="M261.52,232.89h0l-67,42.05,58.48-.39-1.37,104.94h30.68l10.52-114.82c2.62-20.9-10.4-31.81-31.34-31.81"/><path id="Tracé_35" data-name="Tracé 35" class="cls-6" d="M189.75,231h-3.57v-.18l3.62.23"/><path id="Tracé_36" data-name="Tracé 36" class="cls-4" d="M265.4,271.45,253.09,273l-19.73-31.08-.71-10.34-30.07-.44L189.89,231h0l-3.62-.24c-16.18-1.14-38.58-4.3-40.1-13.06C143.36,201.78,164.46,171,167,167.4l.22-.35a40.67,40.67,0,0,1,10.42-11.14,32.11,32.11,0,0,1,18.26-5l1.55-11.25,23.52,3.26-1.28,9.35c6.89.67,11.58,2,16,6.09,14.06,13,15.12,61.82,15.12,61.82Z"/><path id="Tracé_37" data-name="Tracé 37" class="cls-3" d="M252.54,258.71l-44.81-5.19a2.45,2.45,0,0,1-2.12-2.66v-.38l17.81-63a2.4,2.4,0,0,1,2.57-1.81l44.85,5.29A2.43,2.43,0,0,1,273,193.6V194l-17.73,63a2.37,2.37,0,0,1-2.58,1.81"/><path id="Tracé_38" data-name="Tracé 38" class="cls-2" d="M265.19,271.47a107.24,107.24,0,0,1,6.74,8.46,51.77,51.77,0,0,1,2.39,11.87c0,1.67-5.08,9.21-5.08,9.21-3.1-.76-1.06-4.67-1.06-4.67s-2.77,2.4-3.92,2.33c-10.86-.36-10.3-5.91-10-6.6.57-1.56,3.5.22,3.5.22s-5.57-11.4-4.23-19.38Zm-33.07-42.41s1.91.49,1.94,1.72c0,.35-11.73,2.59-11.73,2.59l2.55.14,2.63-.13s1.38.25,1.47,1.42c0,.45-2.42.95-5.29,1.32a25.08,25.08,0,0,1-10.72-.78l-.76-.22a29.75,29.75,0,0,1-8.79-3.25,38.37,38.37,0,0,1-5.64-4l3-11.08,4.11-1.41A29.12,29.12,0,0,1,210,214c2-.38,4-.24,6-.45l-1.17,4.34a3.52,3.52,0,0,0-.39.56l.26.26c.87.78,2.47,2.16,9.37,3.9a51.1,51.1,0,0,0,6,.42c1.36.18,4.23.45,4.4,2.12a1.58,1.58,0,0,1-.46.86,2,2,0,0,1,1.92,1.81c.15.61-3.89,1.25-3.89,1.25Z"/><path id="Tracé_40" data-name="Tracé 40" class="cls-3" d="M218.47,131.06s-6.48.2-9.25-1.32l8.91,5.65Z"/><path id="Tracé_41" data-name="Tracé 41" class="cls-7" d="M232.25,231.5c1.81-22,13.65-26.71,5.05-51.44"/><path id="Tracé_42" data-name="Tracé 42" class="cls-8" d="M260,277.12a11.88,11.88,0,0,0,6.78,7.62c1.8.62,1.37,8.08,5.86,7.23"/><path id="Tracé_43" data-name="Tracé 43" class="cls-7" d="M185.49,184.39l-11.34,18.87,28.13,11.2"/><path id="Tracé_44" data-name="Tracé 44" class="cls-4" d="M210.4,253.83,255.21,259a2.37,2.37,0,0,0,2.57-1.8l17.72-63a2.42,2.42,0,0,0-1.64-3l-.39-.09L228.66,186a2.38,2.38,0,0,0-2.59,1.81l-9,32.4a35.58,35.58,0,0,0,7.24,2.41,45.44,45.44,0,0,0,6.05.41h.31c1.45.18,3.94.53,4.12,2a1.51,1.51,0,0,1-.43.84,2,2,0,0,1,1.91,1.81c0,.66-4,1.3-4,1.3s1.94.51,2,1.72c0,.34-11.75,2.59-11.75,2.59l2.55.14,2.65-.12s1.39.27,1.46,1.4c0,.48-2.42,1-5.29,1.35a25.4,25.4,0,0,1-10.72-.8h-.26l-4.49,15.53a2.39,2.39,0,0,0,1.62,3h0Z"/><path id="Tracé_45" data-name="Tracé 45" class="cls-3" d="M230.62,191.88c-.36,1.12-1.05,1.81-1.68,1.68s-.75-1.24-.41-2.36,1.06-1.81,1.7-1.69.74,1.25.39,2.37"/><path class="cls-4" d="M353.5,206.24s26.87-61.92,69.75-61.92c34.78,0,38.65,43.83,70.56,42.76s48-21.16,76.77-21.16c36.3,0,66.24,40.28,66.24,40.28Z"/><path class="cls-4" d="M-122.45,101.44s23.22-53.52,60.29-53.52c30.06,0,33.41,37.88,61,37S40.35,66.59,65.2,66.59c31.37,0,57.25,34.81,57.25,34.81Z"/><path class="cls-4" d="M598.64,64.85c-2.53-2.52-4.66-4.84-6.49-6.93h-3.09c2.19,2.54,4.92,5.51,8.22,8.86l1.31,1.37,1.25-1.25c3.36-3.42,6.12-6.37,8.33-9h-3C603.37,60,601.18,62.29,598.64,64.85Z"/><path class="cls-4" d="M587,37.48a6.89,6.89,0,0,1,9.56,1.85,6.79,6.79,0,0,1,.72,1.39l.31.69h2.13l.3-.69a7,7,0,0,1,4.5-4.18A6.76,6.76,0,0,1,613,41.07l0,.06a5.74,5.74,0,0,1,.25,2.47h2.32a9.14,9.14,0,0,0-16.92-5.21,9,9,0,0,0-12.41-3.09l-.11.06a9.2,9.2,0,0,0-4.42,8.33H584A7.22,7.22,0,0,1,587,37.48Z"/><path class="cls-4" d="M612.83,45.88c-.18.63-.36,1.25-.57,1.83s-.38.88-.58,1.31H585.43a8,8,0,0,1-.57-1.31,6.84,6.84,0,0,1-.52-1.83H582a17.43,17.43,0,0,0,.76,2.65,28.73,28.73,0,0,0,4.44,7.07h3a48.64,48.64,0,0,1-3.24-4.32h23.54c-1,1.44-2.15,2.88-3.24,4.32h3a30,30,0,0,0,4.43-7.07,16.26,16.26,0,0,0,.82-2.65Z"/><path class="cls-4" d="M578.2,79.78a4.8,4.8,0,0,1,1.18,3.66v6.38h-2.59v-6a3.23,3.23,0,0,0-.63-2.23,2.39,2.39,0,0,0-1.86-.74,2.68,2.68,0,0,0-2.08.87,3.4,3.4,0,0,0-.79,2.43v5.62h-2.64v-6a3.25,3.25,0,0,0-.63-2.29,2.39,2.39,0,0,0-1.86-.73,2.85,2.85,0,0,0-2.17.85,3.65,3.65,0,0,0-.8,2.5V89.7h-2.67v-11h2.49v1.44a3.89,3.89,0,0,1,1.6-1.17,5.37,5.37,0,0,1,2.1-.4,5.32,5.32,0,0,1,2.22.49,3.24,3.24,0,0,1,1.44,1.44,4.78,4.78,0,0,1,1.8-1.44,5.65,5.65,0,0,1,2.43-.49A4.82,4.82,0,0,1,578.2,79.78Z"/><path class="cls-4" d="M582.84,76.42a1.77,1.77,0,0,1-.49-1.15,1.53,1.53,0,0,1,.49-1.17,2,2,0,0,1,1.21-.42,2.07,2.07,0,0,1,1.22.42,1.51,1.51,0,0,1,.49,1.07,1.54,1.54,0,0,1-.49,1.16,1.73,1.73,0,0,1-1.22.49A1.43,1.43,0,0,1,582.84,76.42Zm-.13,2.29h2.59V89.82h-2.59Z"/><path class="cls-4" d="M598.4,79.78a4.75,4.75,0,0,1,1.28,3.66v6.38h-2.59v-6a3.22,3.22,0,0,0-.74-2.23,2.52,2.52,0,0,0-1.91-.74,3.05,3.05,0,0,0-2.29.87,4,4,0,0,0-.87,2.49v5.59h-2.55V74.26h2.6V80A3.88,3.88,0,0,1,592.91,79a5.24,5.24,0,0,1,2.07-.38A4.49,4.49,0,0,1,598.4,79.78Z"/><path class="cls-4" d="M603.12,76.42a1.75,1.75,0,0,1-.47-1.15,1.6,1.6,0,0,1,.47-1.17,1.77,1.77,0,0,1,1.23-.42,2.07,2.07,0,0,1,1.22.42,1.51,1.51,0,0,1,.49,1.07,1.54,1.54,0,0,1-.49,1.16,1.84,1.84,0,0,1-1.22.49A1.54,1.54,0,0,1,603.12,76.42ZM603,78.71h2.59V89.82H603Z"/><path class="cls-4" d="M619.49,78.71l-4.8,11.11H612l-4.8-11.11H610L613.41,87l3.6-8.24Z"/><path class="cls-4" d="M628.74,79.78a4.42,4.42,0,0,1,1.28,3.6v6.47h-2.45V88.41a3.85,3.85,0,0,1-1.44,1.15,4.79,4.79,0,0,1-2.18.37,6,6,0,0,1-2.21-.43,2.79,2.79,0,0,1-1.44-1.22,2.73,2.73,0,0,1-.49-1.7A3,3,0,0,1,621,84.13a5.51,5.51,0,0,1,3.5-.94h2.88V83a2.27,2.27,0,0,0-.73-1.8,3,3,0,0,0-2.07-.63,5.31,5.31,0,0,0-1.86.27,3.45,3.45,0,0,0-1.44.79l-1-1.85a6.43,6.43,0,0,1,2.07-1,10.41,10.41,0,0,1,2.6-.38A6.1,6.1,0,0,1,628.74,79.78Zm-2.35,7.91a2.61,2.61,0,0,0,1.07-1.29V85.12h-2.73c-1.44,0-2.22.49-2.22,1.44a1.43,1.43,0,0,0,.58,1.15,3.07,3.07,0,0,0,1.59.44A5.93,5.93,0,0,0,626.39,87.69Z"/><path class="cls-4" d="M633.49,76.42a1.77,1.77,0,0,1-.49-1.15,1.56,1.56,0,0,1,.49-1.17,1.77,1.77,0,0,1,1.23-.42,2.07,2.07,0,0,1,1.22.42,1.51,1.51,0,0,1,0,2.23,1.75,1.75,0,0,1-1.22.49A1.51,1.51,0,0,1,633.49,76.42Zm-.08,2.29H636V89.82h-2.59Z"/></svg>