<svg id="Calque_1" data-name="Calque 1" xmlns="http://www.w3.org/2000/svg" viewBox="0 0 550 520"><defs><style>.cls-1{fill:#ea4207;}</style></defs><title>h_mulvig_mobile</title><polygon class="cls-1" points="156.08 292.31 137.11 292.31 137.11 258.44 120 278.04 118.52 278.04 101.37 258.44 101.37 292.31 82.96 292.31 82.96 233.84 100.14 233.84 119.47 255.78 138.89 233.84 156.08 233.84 156.08 292.31"/><path class="cls-1" d="M237.63,266.1a25.58,25.58,0,0,1-3,12.83,23.21,23.21,0,0,1-7.94,8.37A35.92,35.92,0,0,1,216,291.73a49.51,49.51,0,0,1-11.45,1.35A48.7,48.7,0,0,1,189,290.55a27.49,27.49,0,0,1-12.6-8.6,23.88,23.88,0,0,1-5.08-15.83l-.19-9.08H190l.19,4.54a22.41,22.41,0,0,0,1.79,9.54,11.9,11.9,0,0,0,5,5.54,17,17,0,0,0,15,0,11.71,11.71,0,0,0,5-5.54,22.21,22.21,0,0,0,1.81-9.52l-.2-4.62h18.95Z"/><polygon class="cls-1" points="300.43 292.31 252.69 292.31 252.69 233.84 271.64 233.84 271.64 278.3 300.43 278.3 300.43 292.31"/><polygon class="cls-1" points="363.84 233.84 335.49 293.06 322.97 293.06 295.17 233.84 314.91 233.84 329.28 267.59 344.06 233.84 363.84 233.84"/><polygon class="cls-1" points="391.7 292.31 372.73 292.31 372.53 257.02 391.48 257.02 391.7 292.31"/><path class="cls-1" d="M467,288.15c-1.35.5-2.52.89-3.49,1.18l-2.78.85c-.89.24-2.18.58-4,1a82.7,82.7,0,0,1-8.59,1.42,75.89,75.89,0,0,1-9.05.48,47.08,47.08,0,0,1-17.6-3.23,28.62,28.62,0,0,1-13-10.07,28,28,0,0,1-4.88-16.8,32.7,32.7,0,0,1,2.52-12.58,22,22,0,0,1,7.68-9.9,36.12,36.12,0,0,1,8.67-4.7,38.37,38.37,0,0,1,8.55-2.2,69.11,69.11,0,0,1,9.21-.55A67.58,67.58,0,0,1,454,234.17c3.59.78,7.54,1.85,11.9,3.06v13.85a53.41,53.41,0,0,0-9-3.9,38.84,38.84,0,0,0-11.9-1.53,25.89,25.89,0,0,0-13.14,2.88,16.54,16.54,0,0,0-6.84,6.9,17.84,17.84,0,0,0-2,7.77,15.56,15.56,0,0,0,2.22,8.16,15.77,15.77,0,0,0,6.71,6,23.83,23.83,0,0,0,10.84,2.25,36.14,36.14,0,0,0,7.69-.89v-6.86H442V260.08H467Z"/><path class="cls-1" d="M172.11,330.2h0l-4.29,9.43h8.42ZM171,327.26h2.3l8.77,19.21h-2.86l-2.1-4.79H166.79l-2.12,4.72h-2.78Z"/><path class="cls-1" d="M193.1,335.73h4.37a7.87,7.87,0,0,0,2-.37,3.36,3.36,0,0,0,1.51-.92,2.66,2.66,0,0,0,.61-1.84A2.68,2.68,0,0,0,200,330a5,5,0,0,0-1.57-.44,15.57,15.57,0,0,0-1.81-.11h-3.43Zm-2.44-8.47h5.26a27.06,27.06,0,0,1,3,.17,8.57,8.57,0,0,1,2.63.72,4.65,4.65,0,0,1,1.89,1.58,4.82,4.82,0,0,1,.73,2.85,4.47,4.47,0,0,1-1.37,3.41,6.82,6.82,0,0,1-3.79,1.66l6,8.84h-3l-5.59-8.63H193.2v8.63h-2.44Z"/><path class="cls-1" d="M228.76,331.23a5.73,5.73,0,0,0-2.3-1.85,7.18,7.18,0,0,0-2.86-.59,7.92,7.92,0,0,0-7.26,5.06,8.18,8.18,0,0,0,0,6.15,7.45,7.45,0,0,0,1.6,2.52,8,8,0,0,0,9.05,1.63,7.75,7.75,0,0,0,2.6-2l1.85,1.45a8.34,8.34,0,0,1-3.38,2.55,11,11,0,0,1-4.44.81,10.49,10.49,0,0,1-7.48-2.82,10.08,10.08,0,0,1-2.22-3.19,10.4,10.4,0,0,1,0-8,9.63,9.63,0,0,1,2.18-3.21,10.09,10.09,0,0,1,3.31-2.14,11,11,0,0,1,4.25-.79,11.41,11.41,0,0,1,4,.74,7.45,7.45,0,0,1,3.25,2.3Z"/><polygon class="cls-1" points="240.66 327.26 243.1 327.26 243.1 335.4 254.14 335.4 254.14 327.26 256.6 327.26 256.6 346.46 254.14 346.46 254.14 337.5 243.1 337.5 243.1 346.46 240.66 346.46 240.66 327.26"/><rect class="cls-1" x="267.55" y="327.26" width="2.44" height="19.19"/><polygon class="cls-1" points="294.81 329.38 287.99 329.38 287.99 346.46 285.55 346.46 285.55 329.38 278.72 329.38 278.72 327.26 294.81 327.26 294.81 329.38"/><polygon class="cls-1" points="303.54 327.26 316.52 327.26 316.52 329.38 305.98 329.38 305.98 335.4 315.81 335.4 315.81 337.5 305.98 337.5 305.98 344.35 317.04 344.35 317.04 346.46 303.54 346.46 303.54 327.26"/><path class="cls-1" d="M341.12,331.23a5.82,5.82,0,0,0-2.3-1.85,7.4,7.4,0,0,0-2.84-.59,7.39,7.39,0,0,0-5.65,2.49,8.61,8.61,0,0,0-1.63,2.57,7.43,7.43,0,0,0-.57,3,8.09,8.09,0,0,0,.57,3.14,7.69,7.69,0,0,0,1.63,2.52,7.51,7.51,0,0,0,2.48,1.7,8.6,8.6,0,0,0,6.57,0,7.75,7.75,0,0,0,2.6-2l1.82,1.46a8.16,8.16,0,0,1-3.35,2.54,11.19,11.19,0,0,1-11.95-2,9.65,9.65,0,0,1-2.2-3.19,10.44,10.44,0,0,1,0-8,9.88,9.88,0,0,1,2.16-3.21,10.79,10.79,0,0,1,7.56-2.92,11.36,11.36,0,0,1,4,.74,7.24,7.24,0,0,1,3.24,2.31Z"/><polygon class="cls-1" points="366.88 329.38 360.05 329.38 360.05 346.46 357.61 346.46 357.61 329.38 350.79 329.38 350.79 327.26 366.88 327.26 366.88 329.38"/><polygon class="cls-1" points="375.61 327.26 388.59 327.26 388.59 329.38 378.05 329.38 378.05 335.4 387.87 335.4 387.87 337.5 378.05 337.5 378.05 344.35 389.1 344.35 389.1 346.46 375.61 346.46 375.61 327.26"/></svg>