<svg id="Calque_1" data-name="Calque 1" xmlns="http://www.w3.org/2000/svg" viewBox="0 0 1300 650"><defs><style>.cls-1{fill:#ea4207;}</style></defs><title>h_mulvig</title><polygon class="cls-1" points="467.95 365.93 438.73 365.93 438.73 309.84 412.38 342.31 410.08 342.31 383.68 309.84 383.68 365.93 355.31 365.93 355.31 269.1 381.78 269.1 411.55 305.44 441.48 269.1 467.95 269.1 467.95 365.93"/><path class="cls-1" d="M593.57,322.53a44.78,44.78,0,0,1-4.64,21.24,37.43,37.43,0,0,1-12.23,13.88A53.7,53.7,0,0,1,560.23,365a71.91,71.91,0,0,1-17.64,2.23A70.46,70.46,0,0,1,518.66,363a42.31,42.31,0,0,1-19.41-14.25,41.49,41.49,0,0,1-7.83-26.22l-.3-15h29.1l.3,7.52a39.33,39.33,0,0,0,2.75,15.8A19.13,19.13,0,0,0,531,340a24.44,24.44,0,0,0,23,0,18.94,18.94,0,0,0,7.7-9.17,39.22,39.22,0,0,0,2.79-15.77l-.31-7.64h29.19Z"/><polygon class="cls-1" points="690.32 365.93 616.77 365.93 616.77 269.1 645.96 269.1 645.96 342.73 690.32 342.73 690.32 365.93"/><polygon class="cls-1" points="788 269.1 744.33 367.19 725.04 367.19 682.22 269.1 712.63 269.1 734.76 325 757.53 269.1 788 269.1"/><polygon class="cls-1" points="830.92 365.93 801.7 365.93 801.39 307.49 830.58 307.49 830.92 365.93"/><path class="cls-1" d="M947,359.06c-2.08.82-3.88,1.46-5.38,1.95l-4.28,1.41c-1.38.39-3.36.95-6.11,1.59a121.5,121.5,0,0,1-13.24,2.35,111.9,111.9,0,0,1-13.94.8,68.41,68.41,0,0,1-27.11-5.35,44.72,44.72,0,0,1-20-16.69,49.15,49.15,0,0,1-7.52-27.82,58,58,0,0,1,3.88-20.84,36.27,36.27,0,0,1,11.83-16.39,56.56,56.56,0,0,1,26.53-11.43,100.45,100.45,0,0,1,14.19-.92,97.6,97.6,0,0,1,21.09,1.93c5.53,1.28,11.61,3.06,18.34,5.07v22.93a79.87,79.87,0,0,0-13.88-6.45A55.88,55.88,0,0,0,913,288.66a37.66,37.66,0,0,0-20.24,4.77,26.69,26.69,0,0,0-10.54,11.43,31.19,31.19,0,0,0-3.06,12.87,27.18,27.18,0,0,0,3.43,13.51,24.78,24.78,0,0,0,10.33,9.93,34.39,34.39,0,0,0,16.69,3.73,52.17,52.17,0,0,0,11.86-1.46V332.07H908.34V312.56H947Z"/><path class="cls-1" d="M492.64,428.68h0L486,444.3h13Zm-1.71-4.86h3.55L508,455.64h-4.4l-3.24-7.94h-15.9l-3.27,7.82H476.9Z"/><path class="cls-1" d="M525,437.85h6.73a11.71,11.71,0,0,0,3-.61,5.12,5.12,0,0,0,2.33-1.52,4.69,4.69,0,0,0,.95-3.06,5.08,5.08,0,0,0-.71-2.72,4.45,4.45,0,0,0-1.77-1.59,6.8,6.8,0,0,0-2.42-.73,19.88,19.88,0,0,0-2.78-.19h-5.29Zm-3.76-14h8.1a41.28,41.28,0,0,1,4.59.28,12.75,12.75,0,0,1,4.06,1.19,7.38,7.38,0,0,1,2.91,2.63,8.53,8.53,0,0,1,1.13,4.71,7.81,7.81,0,0,1-2.11,5.65,10.24,10.24,0,0,1-5.84,2.75l9.17,14.64h-4.61L530,441.37h-4.86v14.3h-3.76Z"/><path class="cls-1" d="M579.91,430.4a8.77,8.77,0,0,0-3.55-3.06,10.43,10.43,0,0,0-4.4-1,11.7,11.7,0,0,0-4.86,1.07,12.3,12.3,0,0,0-3.82,3.06,12.76,12.76,0,0,0-2.5,4.25,14.5,14.5,0,0,0,0,10.18,12.47,12.47,0,0,0,2.47,4.18,11.64,11.64,0,0,0,17.94-.61l2.85,2.42a12.94,12.94,0,0,1-5.2,4.21,15.94,15.94,0,0,1-6.85,1.35,15.67,15.67,0,0,1-6.38-1.19,15.73,15.73,0,0,1-8.56-8.78,18,18,0,0,1-1.23-6.69,18.29,18.29,0,0,1,1.23-6.54,15.86,15.86,0,0,1,3.36-5.32,15.3,15.3,0,0,1,5.1-3.54,16.05,16.05,0,0,1,6.55-1.32,16.85,16.85,0,0,1,6.11,1.22,11.53,11.53,0,0,1,5,3.82Z"/><polygon class="cls-1" points="598.25 423.82 602.01 423.82 602.01 437.3 619 437.3 619 423.82 622.79 423.82 622.79 455.61 619 455.61 619 440.79 602.01 440.79 602.01 455.61 598.25 455.61 598.25 423.82"/><rect class="cls-1" x="639.67" y="423.82" width="3.76" height="31.79"/><polygon class="cls-1" points="681.66 427.34 671.15 427.34 671.15 455.61 667.39 455.61 667.39 427.34 656.88 427.34 656.88 423.82 681.66 423.82 681.66 427.34"/><polygon class="cls-1" points="695.11 423.82 715.11 423.82 715.11 427.34 698.87 427.34 698.87 437.3 714 437.3 714 440.79 698.87 440.79 698.87 452.13 715.9 452.13 715.9 455.61 695.11 455.61 695.11 423.82"/><path class="cls-1" d="M753,430.4a9.13,9.13,0,0,0-3.55-3.06,10.48,10.48,0,0,0-4.37-1,11.48,11.48,0,0,0-4.86,1.07,12.19,12.19,0,0,0-3.85,3.06,14.16,14.16,0,0,0-2.51,4.25,13.21,13.21,0,0,0-.88,5,14.44,14.44,0,0,0,.88,5.2,12.74,12.74,0,0,0,2.51,4.18,11.68,11.68,0,0,0,3.82,2.82,12.47,12.47,0,0,0,10.12,0,12.08,12.08,0,0,0,4-3.31l2.81,2.42a12.85,12.85,0,0,1-5.16,4.22,16.15,16.15,0,0,1-6.85,1.34,15.74,15.74,0,0,1-6.39-1.19,16.6,16.6,0,0,1-5.16-3.48,16.26,16.26,0,0,1-3.4-5.29,18.54,18.54,0,0,1,0-13.24,16.33,16.33,0,0,1,3.34-5.32,16,16,0,0,1,11.64-4.83,16.82,16.82,0,0,1,6.11,1.23,11.14,11.14,0,0,1,5,3.82Z"/><polygon class="cls-1" points="792.68 427.34 782.17 427.34 782.17 455.61 778.41 455.61 778.41 427.34 767.89 427.34 767.89 423.82 792.68 423.82 792.68 427.34"/><polygon class="cls-1" points="806.13 423.82 826.12 423.82 826.12 427.34 809.89 427.34 809.89 437.3 825.02 437.3 825.02 440.79 809.89 440.79 809.89 452.13 826.91 452.13 826.91 455.61 806.13 455.61 806.13 423.82"/></svg>