<?xml version="1.0" encoding="utf-8"?>
<!-- Generator: Adobe Illustrator 23.1.1, SVG Export Plug-In . SVG Version: 6.00 Build 0)  -->
<svg version="1.1" id="Calque_1" xmlns="http://www.w3.org/2000/svg" xmlns:xlink="http://www.w3.org/1999/xlink" x="0px" y="0px"
	 viewBox="0 0 263 160" style="enable-background:new 0 0 263 160;" xml:space="preserve">
<style type="text/css">
	.st0{fill:url(#SVGID_1_);}
	.st1{fill:#B7B5B5;stroke:#343334;stroke-width:0.75;stroke-miterlimit:10;}
	.st2{fill:#343334;stroke:#343334;stroke-width:0.75;stroke-miterlimit:10;}
	.st3{fill:#FFFFFF;}
	.st4{clip-path:url(#SVGID_3_);}
	.st5{fill:#415E35;}
	.st6{fill:#B7B5B5;stroke:#343334;stroke-width:3.187031e-02;stroke-miterlimit:10;}
	.st7{fill:#343334;stroke:#343334;stroke-width:3.187031e-02;stroke-miterlimit:10;}
	.st8{clip-path:url(#SVGID_5_);fill:#415E35;}
	.st9{clip-path:url(#SVGID_5_);}
	.st10{clip-path:url(#SVGID_5_);fill:#FFFFFF;}
	.st11{fill:url(#SVGID_6_);}
</style>
<linearGradient id="SVGID_1_" gradientUnits="userSpaceOnUse" x1="222.1557" y1="645.1377" x2="48.7965" y2="286.5853">
	<stop  offset="0" style="stop-color:#263320"/>
	<stop  offset="4.694238e-02" style="stop-color:#2A3923"/>
	<stop  offset="0.2279" style="stop-color:#364D2D"/>
	<stop  offset="0.4103" style="stop-color:#3E5933"/>
	<stop  offset="0.5949" style="stop-color:#405D35"/>
	<stop  offset="0.9703" style="stop-color:#2A3923"/>
</linearGradient>
<rect x="-23.3" y="361.2" class="st0" width="326.4" height="227.8"/>
<title>mulvig_web_mockup</title>
<path class="st1" d="M5258.5,6348.6v146c0,87.2-70.7,157.8-157.8,157.8l0,0h-4134c-87.2,0-157.8-70.7-157.8-157.8l0,0l0,0v-146"/>
<path class="st2" d="M5100.6,3742.6h-4134c-87.2,0-157.8,70.7-157.8,157.8v2463.2h4449.7V3900.4
	C5258.5,3813.3,5187.8,3742.6,5100.6,3742.6C5100.7,3742.6,5100.6,3742.6,5100.6,3742.6z M5102.8,6199H964.4V3907.2h4138.4V6199z"/>
<rect x="964.4" y="3907.2" class="st3" width="4131.7" height="2291.8"/>
<g>
	<defs>
		<rect id="SVGID_2_" x="964.4" y="3907.2" width="4138.4" height="2295.5"/>
	</defs>
	<clipPath id="SVGID_3_">
		<use xlink:href="#SVGID_2_"  style="overflow:visible;"/>
	</clipPath>
	<g class="st4">
		<rect x="964.4" y="4246.7" class="st5" width="4138.4" height="1962.5"/>
		<polygon points="2867.8,4078.7 2843.7,4078.7 2843.7,4032.4 2822,4059.2 2820.1,4059.2 2798.3,4032.4 2798.3,4078.7 
			2774.9,4078.7 2774.9,3998.9 2796.7,3998.9 2821.3,4028.8 2845.9,3998.9 2867.8,3998.9 		"/>
		<path d="M2971.3,4042.9c0,6.8-1.3,12.7-3.8,17.5c-2.4,4.6-5.9,8.5-10.1,11.4c-4.2,2.8-8.8,4.8-13.6,6.1c-4.8,1.2-9.6,1.8-14.5,1.8
			c-6.7,0-13.4-1.2-19.7-3.5c-6.4-2.3-11.9-6.4-16-11.8c-4.3-5.5-6.4-12.7-6.4-21.6l-0.2-12.4h24l0.2,6.2c-0.1,4.5,0.6,8.9,2.3,13
			c1.3,3.1,3.5,5.8,6.3,7.5c5.9,3.2,13.1,3.2,19,0c2.9-1.7,5.1-4.4,6.4-7.5c1.6-4.1,2.4-8.6,2.3-13l-0.2-6.3h24.1L2971.3,4042.9z"/>
		<polygon points="3051.1,4078.7 2990.5,4078.7 2990.5,3998.9 3014.5,3998.9 3014.5,4059.6 3051.1,4059.6 		"/>
		<polygon points="3131.6,3998.9 3095.6,4079.7 3079.7,4079.7 3044.4,3998.9 3069.5,3998.9 3087.8,4044.9 3106.5,3998.9 		"/>
		<polygon points="3167,4078.7 3142.9,4078.7 3142.7,4030.5 3166.8,4030.5 		"/>
		<path d="M3262.7,4073c-1.7,0.7-3.2,1.2-4.4,1.6c-1.2,0.4-2.4,0.8-3.5,1.1s-2.8,0.8-4.9,1.3c-3.6,0.8-7.2,1.5-10.9,1.9
			c-3.8,0.5-7.7,0.7-11.5,0.7c-7.7,0.1-15.4-1.4-22.5-4.4c-6.7-2.8-12.5-7.6-16.5-13.8c-4.1-6.2-6.2-13.9-6.2-22.9
			c0-5.9,1.1-11.7,3.2-17.2c1.9-5.3,5.3-10,9.8-13.5c3.3-2.6,7.1-4.8,11-6.4c3.5-1.4,7.1-2.4,10.9-3c3.9-0.5,7.8-0.8,11.7-0.8
			c5.8-0.1,11.7,0.4,17.4,1.6c4.6,1.1,9.6,2.4,15,4.2v18.9c-3.6-2.1-7.5-3.9-11.5-5.3c-4.9-1.5-10-2.2-15.1-2.1
			c-7,0-12.5,1.3-16.7,3.9c-3.8,2.2-6.8,5.5-8.7,9.4c-1.6,3.3-2.4,6.9-2.4,10.6c0,3.9,0.9,7.7,2.8,11.1c2,3.5,4.9,6.3,8.5,8.2
			c4.3,2.2,9,3.2,13.8,3.1c3.3,0,6.6-0.4,9.8-1.2v-9.4h-10.8v-16.1h31.9L3262.7,4073z"/>
		<path d="M2888.1,4130.4L2888.1,4130.4l-5.5,12.9h10.7L2888.1,4130.4z M2886.7,4126.4h2.9l11.1,26.2h-3.6l-2.7-6.5h-13.1l-2.7,6.5
			h-3.5L2886.7,4126.4z"/>
		<path d="M2914.8,4138h2.8c0.9,0,1.8,0,2.7-0.1c0.9,0,1.7-0.2,2.6-0.5c0.7-0.2,1.4-0.7,1.9-1.3c0.6-0.7,0.8-1.6,0.8-2.5
			c0-0.8-0.2-1.6-0.6-2.2c-0.4-0.6-0.9-1-1.5-1.3c-0.6-0.3-1.3-0.5-2-0.6c-0.8-0.1-1.5-0.2-2.3-0.1h-4.4L2914.8,4138z
			 M2911.7,4126.4h6.7c1.3,0,2.5,0.1,3.8,0.2c1.2,0.1,2.3,0.5,3.4,1c1,0.5,1.8,1.2,2.4,2.2c0.7,1.2,1,2.5,0.9,3.9
			c0.1,1.7-0.6,3.4-1.8,4.7c-1.3,1.3-3,2.1-4.8,2.3l7.4,12.1h-3.8l-7.1-11.8h-4v11.8h-3.1L2911.7,4126.4z"/>
		<path d="M2960.1,4131.8c-0.8-1-1.8-1.9-2.9-2.4c-1.1-0.5-2.4-0.8-3.6-0.8c-1.4,0-2.8,0.3-4,0.9c-1.2,0.6-2.3,1.4-3.2,2.4
			c-0.9,1-1.6,2.2-2.1,3.5c-0.5,1.3-0.8,2.7-0.8,4.1c0,1.5,0.2,2.9,0.8,4.3c0.5,1.3,1.2,2.4,2.1,3.4c0.9,1,2,1.8,3.1,2.3
			c2.7,1.2,5.7,1.1,8.4-0.1c1.3-0.7,2.4-1.6,3.3-2.7l2.3,2c-1.1,1.5-2.6,2.7-4.3,3.5c-1.8,0.8-3.7,1.1-5.6,1.1c-1.8,0-3.6-0.3-5.3-1
			c-1.6-0.7-3-1.6-4.2-2.9c-1.2-1.3-2.2-2.7-2.8-4.3c-0.7-1.8-1-3.6-1-5.5c0-1.8,0.3-3.7,1-5.4c0.6-1.6,1.6-3.1,2.8-4.4
			c1.2-1.2,2.6-2.2,4.2-2.9c1.7-0.7,3.5-1.1,5.4-1.1c1.8,0,3.5,0.3,5.1,1c1.6,0.6,3.1,1.7,4.1,3.1L2960.1,4131.8z"/>
		<polygon points="2975.2,4126.4 2978.3,4126.4 2978.3,4137.5 2992.3,4137.5 2992.3,4126.4 2995.4,4126.4 2995.4,4152.6 
			2992.3,4152.6 2992.3,4140.4 2978.3,4140.4 2978.3,4152.6 2975.2,4152.6 		"/>
		<rect x="3009.4" y="4126.4" width="3.1" height="26.2"/>
		<polygon points="3044,4129.3 3035.3,4129.3 3035.3,4152.6 3032.2,4152.6 3032.2,4129.3 3023.5,4129.3 3023.5,4126.4 3044,4126.4 
					"/>
		<polygon points="3055.1,4126.4 3071.5,4126.4 3071.5,4129.3 3058.2,4129.3 3058.2,4137.5 3070.6,4137.5 3070.6,4140.4 
			3058.2,4140.4 3058.2,4149.8 3072.2,4149.8 3072.2,4152.6 3055.1,4152.6 		"/>
		<path d="M3102.8,4131.8c-0.8-1-1.8-1.9-2.9-2.4c-1.1-0.5-2.4-0.8-3.6-0.8c-1.4,0-2.8,0.3-4,0.9c-1.2,0.6-2.3,1.4-3.2,2.4
			c-0.9,1-1.6,2.2-2.1,3.5c-0.5,1.3-0.7,2.7-0.7,4.1c0,1.5,0.2,2.9,0.7,4.3c0.5,1.3,1.2,2.4,2.1,3.4c0.9,1,2,1.8,3.1,2.3
			c2.7,1.2,5.7,1.1,8.4-0.1c1.3-0.7,2.4-1.6,3.3-2.7l2.3,2c-1.1,1.5-2.6,2.7-4.3,3.5c-1.8,0.8-3.7,1.1-5.6,1.1c-1.8,0-3.6-0.3-5.3-1
			c-1.6-0.7-3-1.7-4.2-2.9c-1.2-1.3-2.2-2.7-2.8-4.3c-0.7-1.8-1-3.6-1-5.5c0-1.8,0.3-3.7,1-5.4c0.6-1.6,1.6-3.1,2.8-4.4
			c2.5-2.6,6-4,9.6-4c1.8,0,3.5,0.3,5.1,1c1.6,0.6,3.1,1.7,4.1,3.1L3102.8,4131.8z"/>
		<polygon points="3135.5,4129.3 3126.8,4129.3 3126.8,4152.6 3123.7,4152.6 3123.7,4129.3 3115.1,4129.3 3115.1,4126.4 
			3135.5,4126.4 		"/>
		<polygon points="3146.6,4126.4 3163.1,4126.4 3163.1,4129.3 3149.7,4129.3 3149.7,4137.5 3162.2,4137.5 3162.2,4140.4 
			3149.7,4140.4 3149.7,4149.8 3163.7,4149.8 3163.7,4152.6 3146.6,4152.6 		"/>
		<path d="M1257.1,4067.9c0.1-1-0.3-2-1.1-2.6c-1.3-0.6-2.6-0.8-4-0.7h-1.7v6.3h1.7c1,0,2-0.1,3-0.2c0.6-0.1,1.2-0.4,1.5-0.9
			C1256.9,4069.2,1257.1,4068.5,1257.1,4067.9z M1265.2,4067.9c0,1-0.2,1.9-0.5,2.9c-0.4,1-0.9,1.9-1.6,2.6c-0.8,0.9-1.9,1.6-3,2
			c-1.4,0.5-3,0.8-4.5,0.8h-5.2v9.9h-7.9v-26.4h13.1c1.5,0,3.1,0.2,4.5,0.8c1.1,0.4,2.2,1.1,3,2c0.7,0.8,1.3,1.7,1.6,2.6
			C1265,4065.9,1265.2,4066.9,1265.2,4067.9L1265.2,4067.9z"/>
		<path d="M1286.2,4067.9c0.1-1-0.4-2-1.2-2.5c-1.2-0.6-2.6-0.8-3.9-0.7h-1.7v6.3h1.7c1.4,0.1,2.7-0.1,4-0.6
			C1286,4069.7,1286.4,4068.8,1286.2,4067.9z M1297,4085.9h-8.5l-2.1-4.7c-0.5-1.3-1.2-2.6-2-3.8c-0.4-0.7-1.1-1.2-1.8-1.5
			c-0.7-0.2-1.5-0.4-2.2-0.3h-0.9v10.3h-8v-26.3h13.5c1.9-0.1,3.7,0.4,5.3,1.3c1.3,0.8,2.3,1.9,3,3.2c0.6,1.1,0.9,2.4,0.9,3.6
			c0,1.2-0.2,2.3-0.8,3.4c-0.4,0.8-1,1.5-1.6,2c-0.6,0.4-1.2,0.8-1.9,1.2c0.8,0.5,1.5,1.1,2.1,1.8c0.9,1.3,1.7,2.7,2.2,4.1
			L1297,4085.9z"/>
		<path d="M1322.6,4072.7c0-0.9-0.1-1.8-0.4-2.7c-0.3-0.8-0.7-1.5-1.3-2.1c-0.6-0.6-1.3-1.1-2.2-1.4c-0.9-0.4-1.9-0.5-2.9-0.5
			c-3.7-0.2-6.9,2.7-7.1,6.4s2.7,6.9,6.4,7.1c0.2,0,0.5,0,0.7,0c1.3,0,2.6-0.2,3.8-0.9c1-0.5,1.8-1.4,2.3-2.4
			C1322.4,4075.1,1322.7,4073.9,1322.6,4072.7z M1330.7,4072.7c0,2.4-0.6,4.7-1.7,6.8c-1.2,2.1-2.9,3.8-5.1,4.9
			c-2.5,1.3-5.3,1.9-8.2,1.8c-2.9,0.1-5.7-0.6-8.3-1.9c-2.1-1.1-3.9-2.9-5-5c-2.2-4.1-2.2-9.1,0-13.3c1.1-2.1,2.9-3.9,5-5
			c2.5-1.3,5.4-2,8.3-1.9c2.2,0,4.4,0.3,6.5,1.1c1.8,0.6,3.4,1.6,4.7,2.9c1.2,1.2,2.2,2.7,2.8,4.3
			C1330.4,4069.1,1330.7,4070.9,1330.7,4072.7L1330.7,4072.7z"/>
		<path d="M1346.4,4082.6c0,2-0.1,4-0.6,6c-0.4,1.6-1.2,3-2.5,4.1c-1.7,1.2-3.8,1.8-5.8,1.6c-1,0-1.9-0.1-2.8-0.3l-1.2-6.3
			c0.8,0,1.6-0.1,2.4-0.2c0.6-0.1,1.1-0.3,1.5-0.6c0.4-0.4,0.7-0.9,0.8-1.4c0.2-1.4,0.2-2.9,0.2-4.4v-21.6h7.9V4082.6z"/>
		<polygon points="1374.8,4085.9 1354.9,4085.9 1354.9,4059.5 1374.5,4059.5 1374.5,4064.8 1362.9,4064.8 1362.9,4069.7 
			1373.9,4069.7 1373.9,4074.9 1362.9,4074.9 1362.9,4080.6 1374.8,4080.6 		"/>
		<polygon points="1407.3,4065.9 1397.6,4065.9 1397.6,4085.9 1389.7,4085.9 1389.7,4065.9 1380.1,4065.9 1380.1,4059.5 
			1407.3,4059.5 		"/>
		<path d="M1432.3,4078.2c0,1.5-0.4,3-1.3,4.3c-0.9,1.2-2.1,2.2-3.5,2.8c-1.6,0.7-3.4,1-5.2,1c-0.6,0-1.2,0-2-0.1
			c-1.1-0.1-2.1-0.3-3.2-0.6c-1.4-0.4-2.8-0.8-4.1-1.4v-6.5c1.3,0.8,2.6,1.5,3.9,2.1c1.3,0.5,2.7,0.8,4.1,0.8
			c0.9,0.1,1.9-0.1,2.6-0.7c0.3-0.3,0.6-0.8,0.6-1.3c0-0.7-0.4-1.4-1-1.8c-0.9-0.6-1.9-1.1-3-1.5c-1.3-0.5-2.6-1.2-3.8-2
			c-1.1-0.7-2-1.6-2.7-2.7c-0.7-1.1-1-2.5-1-3.8c-0.1-2.9,1.6-5.5,4.2-6.6c1.7-0.7,3.4-1.1,5.2-1c1.4,0,2.7,0.1,4.1,0.4
			c1.1,0.2,2.1,0.6,3.1,1c0.6,0.2,1.1,0.5,1.7,0.8v6.1c-1.1-0.8-2.3-1.5-3.6-2.1c-1.3-0.6-2.8-0.9-4.2-0.9c-0.8-0.1-1.5,0.1-2.1,0.6
			c-0.4,0.3-0.7,0.9-0.7,1.4c0,0.5,0.2,1,0.7,1.4c0.7,0.6,1.5,1,2.4,1.4c1.7,0.8,3.3,1.6,4.9,2.6c1.1,0.7,2.1,1.6,2.9,2.6
			C1432,4075.6,1432.3,4076.9,1432.3,4078.2z"/>
		<path d="M4630.1,4087.1c-1.1,0.6-2.2,1-3.3,1.4c-1.1,0.3-2.3,0.6-3.5,0.7c-1.2,0.1-2.4,0.2-3.6,0.2c-2.1,0-4.2-0.3-6.2-1
			c-1.8-0.6-3.4-1.6-4.7-2.8c-1.3-1.2-2.3-2.7-3-4.3c-0.7-1.7-1-3.6-1-5.4c0-2,0.4-4.1,1.2-6c0.7-1.7,1.9-3.1,3.3-4.2
			c1.4-1.1,3.1-2,4.8-2.5c1.9-0.5,3.8-0.8,5.7-0.8c3.5,0.1,6.9,0.8,10.2,2v7c-1.2-0.8-2.5-1.4-3.9-2c-1.4-0.6-3-0.8-4.5-0.8
			c-1.5,0-2.9,0.3-4.3,0.9c-1.3,0.6-2.4,1.5-3.2,2.6c-1.5,2.3-1.6,5.3-0.1,7.6c0.7,1.1,1.8,2,3,2.6c1.3,0.7,2.8,1,4.3,1
			c1.2,0,2.4-0.1,3.6-0.5c1-0.2,2-0.6,2.9-1c0.8-0.4,1.6-0.9,2.4-1.3L4630.1,4087.1z"/>
		<path d="M4656.9,4075.9c0-0.9-0.1-1.8-0.4-2.7c-0.3-0.8-0.7-1.5-1.3-2.1c-0.6-0.6-1.3-1.1-2.1-1.4c-0.9-0.4-1.9-0.5-2.9-0.5
			c-3.7-0.2-6.9,2.7-7.1,6.4c-0.2,3.7,2.7,6.9,6.4,7.1c0.2,0,0.5,0,0.7,0c1.3,0,2.6-0.3,3.7-0.9c1-0.5,1.8-1.4,2.3-2.4
			C4656.7,4078.3,4657,4077.1,4656.9,4075.9z M4665,4075.9c0,2.4-0.6,4.7-1.7,6.8c-1.2,2.1-2.9,3.8-5.1,4.9
			c-2.5,1.3-5.3,1.9-8.2,1.8c-2.9,0.1-5.7-0.6-8.3-1.9c-2.1-1.1-3.9-2.9-5-5c-2.2-4.1-2.2-9.1,0-13.3c1.1-2.1,2.9-3.9,5-5
			c2.5-1.3,5.4-2,8.3-1.9c2.2,0,4.4,0.3,6.5,1.1c1.8,0.6,3.4,1.6,4.7,2.9c1.2,1.2,2.2,2.7,2.8,4.3
			C4664.7,4072.4,4665,4074.1,4665,4075.9L4665,4075.9z"/>
		<polygon points="4699.9,4089.1 4692.9,4089.1 4679.2,4074.4 4679.2,4089.1 4671.4,4089.1 4671.4,4062.8 4678.4,4062.8 
			4692,4077.4 4692,4062.8 4699.9,4062.8 		"/>
		<polygon points="4733.7,4069.2 4724.1,4069.2 4724.1,4089.1 4716.2,4089.1 4716.2,4069.2 4706.5,4069.2 4706.5,4062.8 
			4733.7,4062.8 		"/>
		<path d="M4753.8,4079.2l-3.9-9.6l-3.9,9.6H4753.8z M4765.8,4089.1h-8.1l-2.1-5.3h-11.4l-2.2,5.3h-8.1l11.6-26.3h8.8L4765.8,4089.1
			z"/>
		<path d="M4794.3,4087.1c-1.1,0.6-2.2,1-3.3,1.4c-1.1,0.3-2.3,0.6-3.5,0.7c-1.2,0.1-2.4,0.2-3.6,0.2c-2.1,0-4.2-0.3-6.2-1
			c-1.7-0.6-3.4-1.6-4.7-2.8c-1.3-1.2-2.3-2.7-3-4.3c-0.7-1.7-1-3.6-1-5.4c0-2,0.4-4.1,1.2-6c0.7-1.7,1.9-3.1,3.3-4.2
			c1.4-1.1,3.1-2,4.8-2.5c1.9-0.5,3.8-0.8,5.7-0.8c3.5,0.1,6.9,0.8,10.2,2v7c-1.2-0.8-2.5-1.4-3.9-2c-1.4-0.6-3-0.8-4.5-0.8
			c-1.5,0-2.9,0.3-4.3,0.9c-1.3,0.6-2.4,1.5-3.2,2.6c-1.5,2.3-1.6,5.3-0.1,7.6c0.7,1.1,1.8,2,3,2.6c1.3,0.7,2.8,1,4.3,1
			c1.2,0,2.4-0.1,3.6-0.5c1-0.2,2-0.6,2.9-1c0.8-0.4,1.6-0.9,2.4-1.3V4087.1z"/>
		<polygon points="4826.8,4069.2 4817.2,4069.2 4817.2,4089.1 4809.2,4089.1 4809.2,4069.2 4799.6,4069.2 4799.6,4062.8 
			4826.8,4062.8 		"/>
		<polygon class="st3" points="2134.3,4677.1 2153.2,4660.8 2064.2,4557.6 2064.2,4557.5 1788.8,4658 1788.8,4658.1 1788.8,4658.1 
			1788.8,4764.2 1813.7,4764.2 1813.7,4675.4 2056.5,4586.7 		"/>
		<rect x="1788.8" y="4789.9" class="st3" width="25.1" height="25.1"/>
		<polygon class="st3" points="2194.3,4705.2 1997,4705.2 1997,4730.3 2194.3,4730.3 2194.3,4815 2219.4,4815 2219.4,4730.3 
			2219.4,4705.2 		"/>
		<rect x="3287.6" y="4798.3" class="st3" width="22.7" height="22.7"/>
		<path class="st3" d="M3273.7,4579.6c-16.7-18.7-36-28.5-55.9-28.5c-31.7,0-61,25.1-81.5,68.5c-7.4-15.8-16.1-29.4-25.6-40
			c-16.7-18.7-36-28.5-55.9-28.5c-31.7,0-61,25.1-81.5,68.5c-7.4-15.8-16.1-29.4-25.6-40c-16.6-18.7-36-28.5-55.9-28.5
			c-38.6,0-73.6,37.2-93.6,99.5l-0.6,1.9v168.6h24.9v-164.8c16.3-49.7,42.8-80.4,69.4-80.4c26.2,0,52.4,30.1,68.8,78.7V4821h24.9
			v-164.7c16.3-49.7,42.8-80.4,69.4-80.4c26.2,0,52.4,30.1,68.8,78.7V4821h24.9v-164.7c16.3-49.7,42.8-80.4,69.4-80.4
			s53.1,30.9,69.4,80.6l23.6-7.8C3301.4,4620.2,3288.6,4596.3,3273.7,4579.6z"/>
		<rect x="3139.7" y="5605.5" class="st3" width="24.9" height="61.7"/>
		<rect x="3030.1" y="5605.5" class="st3" width="24.9" height="61.7"/>
		<rect x="2924.2" y="5605.5" class="st3" width="24.9" height="61.7"/>
		<polygon class="st3" points="3225.8,5407.9 2835.3,5407.9 2835.3,5407.8 2810.5,5407.8 2810.5,5667.3 2835.3,5667.3 
			2835.3,5556.2 3225.8,5556.2 3225.8,5531.4 3055,5531.4 3055,5482.1 3030.1,5482.1 3030.1,5531.4 2949,5531.4 2949,5482.1 
			2924.2,5482.1 2924.2,5531.4 2835.3,5531.4 2835.3,5432.8 3225.8,5432.8 		"/>
		<rect x="3140.8" y="5482.1" class="st3" width="22.7" height="22.7"/>
		<rect x="1876.1" y="5691.7" class="st3" width="25.1" height="25.1"/>
		<rect x="1877.6" y="5359.3" class="st3" width="22.1" height="238.5"/>
		<polygon class="st3" points="2132.5,5715.3 2010.6,5715.3 2010.6,5693.2 2110.3,5693.2 2110.3,5382.5 1876.2,5382.5 
			1876.2,5360.4 2132.5,5360.4 		"/>
		<rect x="3951.5" y="5631.1" class="st3" width="22.7" height="22.7"/>
		<path class="st3" d="M4099.3,5483.3c-10.1-0.9-15.6-4.4-22.4-8.6c-9.1-5.7-19.5-12.2-39.4-12.2s-30.3,6.5-39.5,12.2
			c-7.9,5-14.1,8.9-27.7,8.9s-19.8-3.9-27.7-8.9c-9.1-5.7-19.5-12.2-39.5-12.2v22.1c13.6,0,19.8,3.9,27.7,8.9
			c9.1,5.7,19.5,12.2,39.5,12.2s30.3-6.5,39.4-12.2c7.9-4.9,14.1-8.9,27.7-8.9s19.8,3.9,27.7,8.9c9.1,5.7,19.5,12.2,39.4,12.2v-0.5
			l133.8-57.3v212.4h22.1v-246L4099.3,5483.3z"/>
		<path class="st3" d="M4108,5653.8h-22.1c0-42.4-34.4-76.7-76.8-76.6c-42.3,0-76.6,34.3-76.6,76.6h-22.1
			c0-54.6,44.3-98.8,98.8-98.8C4063.8,5555,4108,5599.2,4108,5653.8L4108,5653.8z"/>
		<rect x="4210.8" y="4796" class="st3" width="22.7" height="22.7"/>
		<polygon class="st3" points="4278.1,4818.7 4256,4818.7 4256,4662.3 4085.3,4575.7 3909.2,4662.3 3909.2,4818.7 3887.1,4818.7 
			3887.1,4648.6 4085.4,4551 4278.1,4648.7 		"/>
		<text transform="matrix(1 0 0 1 1864.5557 5016.5664)" class="st3" style="font-family:'Avenir-Medium'; font-size:38.8px;">P</text>
		<text transform="matrix(1 0 0 1 1886.6357 5016.5664)" class="st3" style="font-family:'Avenir-Medium'; font-size:38.8px;">A</text>
		<text transform="matrix(1 0 0 1 1915.8857 5016.5664)" class="st3" style="font-family:'Avenir-Medium'; font-size:38.8px;">R</text>
		<text transform="matrix(1 0 0 1 1940.8357 5016.5664)" class="st3" style="font-family:'Avenir-Medium'; font-size:38.8px;">T</text>
		<text transform="matrix(1 0 0 1 1965.0457 5016.5664)" class="st3" style="font-family:'Avenir-Medium'; font-size:38.8px;">I</text>
		<text transform="matrix(1 0 0 1 1977.7656 5016.5664)" class="st3" style="font-family:'Avenir-Medium'; font-size:38.8px;">C</text>
		<text transform="matrix(1 0 0 1 2007.0256 5016.5664)" class="st3" style="font-family:'Avenir-Medium'; font-size:38.8px;">U</text>
		<text transform="matrix(1 0 0 1 2036.2756 5016.5664)" class="st3" style="font-family:'Avenir-Medium'; font-size:38.8px;">L</text>
		<text transform="matrix(1 0 0 1 2058.3557 5016.5664)" class="st3" style="font-family:'Avenir-Medium'; font-size:38.8px;">I</text>
		<text transform="matrix(1 0 0 1 2071.0757 5016.5664)" class="st3" style="font-family:'Avenir-Medium'; font-size:38.8px;">E</text>
		<text transform="matrix(1 0 0 1 2096.7156 5016.5664)" class="st3" style="font-family:'Avenir-Medium'; font-size:38.8px;">R</text>
		<text transform="matrix(1 0 0 1 2904.8757 5016.5664)" class="st3" style="font-family:'Avenir-Medium'; font-size:38.8px;">P</text>
		<text transform="matrix(1 0 0 1 2926.9556 5016.5664)" class="st3" style="font-family:'Avenir-Medium'; font-size:38.8px;">A</text>
		<text transform="matrix(1 0 0 1 2952.6357 5016.5664)" class="st3" style="font-family:'Avenir-Medium'; font-size:38.8px;">T</text>
		<text transform="matrix(1 0 0 1 2976.8457 5016.5664)" class="st3" style="font-family:'Avenir-Medium'; font-size:38.8px;">R</text>
		<text transform="matrix(1 0 0 1 3002.4956 5016.5664)" class="st3" style="font-family:'Avenir-Medium'; font-size:38.8px;">I</text>
		<text transform="matrix(1 0 0 1 3015.2156 5016.5664)" class="st3" style="font-family:'Avenir-Medium'; font-size:38.8px;">M</text>
		<text transform="matrix(1 0 0 1 3052.3057 5016.5664)" class="st3" style="font-family:'Avenir-Medium'; font-size:38.8px;">O</text>
		<text transform="matrix(1 0 0 1 3086.5256 5016.5664)" class="st3" style="font-family:'Avenir-Medium'; font-size:38.8px;">I</text>
		<text transform="matrix(1 0 0 1 3099.2556 5016.5664)" class="st3" style="font-family:'Avenir-Medium'; font-size:38.8px;">N</text>
		<text transform="matrix(1 0 0 1 3132.0757 5016.5664)" class="st3" style="font-family:'Avenir-Medium'; font-size:38.8px;">E</text>
		<text transform="matrix(1 0 0 1 3932.1255 5016.5664)" class="st3" style="font-family:'Avenir-Medium'; font-size:38.8px;">I</text>
		<text transform="matrix(1 0 0 1 3944.8555 5016.5664)" class="st3" style="font-family:'Avenir-Medium'; font-size:38.8px;">N</text>
		<text transform="matrix(1 0 0 1 3977.6758 5016.5664)" class="st3" style="font-family:'Avenir-Medium'; font-size:38.8px;">S</text>
		<text transform="matrix(1 0 0 1 4001.1855 5016.5664)" class="st3" style="font-family:'Avenir-Medium'; font-size:38.8px;">T</text>
		<text transform="matrix(1 0 0 1 4025.3955 5016.5664)" class="st3" style="font-family:'Avenir-Medium'; font-size:38.8px;">I</text>
		<text transform="matrix(1 0 0 1 4038.1255 5016.5664)" class="st3" style="font-family:'Avenir-Medium'; font-size:38.8px;">T</text>
		<text transform="matrix(1 0 0 1 4062.3354 5016.5664)" class="st3" style="font-family:'Avenir-Medium'; font-size:38.8px;">U</text>
		<text transform="matrix(1 0 0 1 4091.5854 5016.5664)" class="st3" style="font-family:'Avenir-Medium'; font-size:38.8px;">T</text>
		<text transform="matrix(1 0 0 1 4115.7959 5016.5664)" class="st3" style="font-family:'Avenir-Medium'; font-size:38.8px;">I</text>
		<text transform="matrix(1 0 0 1 4128.5259 5016.5664)" class="st3" style="font-family:'Avenir-Medium'; font-size:38.8px;">O</text>
		<text transform="matrix(1 0 0 1 4162.7456 5016.5664)" class="st3" style="font-family:'Avenir-Medium'; font-size:38.8px;">N</text>
		<text transform="matrix(1 0 0 1 4195.5654 5016.5664)" class="st3" style="font-family:'Avenir-Medium'; font-size:38.8px;">S</text>
		<text transform="matrix(1 0 0 1 1863.7656 5918.6064)" class="st3" style="font-family:'Avenir-Medium'; font-size:38.8px;">S</text>
		<text transform="matrix(1 0 0 1 1887.2756 5918.6064)" class="st3" style="font-family:'Avenir-Medium'; font-size:38.8px;">U</text>
		<text transform="matrix(1 0 0 1 1916.5256 5918.6064)" class="st3" style="font-family:'Avenir-Medium'; font-size:38.8px;">R</text>
		<text transform="matrix(1 0 0 1 1942.1658 5918.6064)" class="st3" style="font-family:'Avenir-Medium'; font-size:38.8px;">-</text>
		<text transform="matrix(1 0 0 1 1956.3657 5918.6064)" class="st3" style="font-family:'Avenir-Medium'; font-size:38.8px;">M</text>
		<text transform="matrix(1 0 0 1 1993.4556 5918.6064)" class="st3" style="font-family:'Avenir-Medium'; font-size:38.8px;">E</text>
		<text transform="matrix(1 0 0 1 2019.1057 5918.6064)" class="st3" style="font-family:'Avenir-Medium'; font-size:38.8px;">S</text>
		<text transform="matrix(1 0 0 1 2042.6157 5918.6064)" class="st3" style="font-family:'Avenir-Medium'; font-size:38.8px;">U</text>
		<text transform="matrix(1 0 0 1 2071.8657 5918.6064)" class="st3" style="font-family:'Avenir-Medium'; font-size:38.8px;">R</text>
		<text transform="matrix(1 0 0 1 2097.5156 5918.6064)" class="st3" style="font-family:'Avenir-Medium'; font-size:38.8px;">E</text>
		<text transform="matrix(1 0 0 1 2928.4856 5918.6064)" class="st3" style="font-family:'Avenir-Medium'; font-size:38.8px;">L</text>
		<text transform="matrix(1 0 0 1 2950.5657 5918.6064)" class="st3" style="font-family:'Avenir-Medium'; font-size:38.8px;">O</text>
		<text transform="matrix(1 0 0 1 2984.7856 5918.6064)" class="st3" style="font-family:'Avenir-Medium'; font-size:38.8px;">G</text>
		<text transform="matrix(1 0 0 1 3016.9158 5918.6064)" class="st3" style="font-family:'Avenir-Medium'; font-size:38.8px;">E</text>
		<text transform="matrix(1 0 0 1 3042.5557 5918.6064)" class="st3" style="font-family:'Avenir-Medium'; font-size:38.8px;">M</text>
		<text transform="matrix(1 0 0 1 3079.6458 5918.6064)" class="st3" style="font-family:'Avenir-Medium'; font-size:38.8px;">E</text>
		<text transform="matrix(1 0 0 1 3105.2957 5918.6064)" class="st3" style="font-family:'Avenir-Medium'; font-size:38.8px;">N</text>
		<text transform="matrix(1 0 0 1 3138.1157 5918.6064)" class="st3" style="font-family:'Avenir-Medium'; font-size:38.8px;">T</text>
		<text transform="matrix(1 0 0 1 3162.3257 5918.6064)" class="st3" style="font-family:'Avenir-Medium'; font-size:38.8px;">S</text>
		<text transform="matrix(1 0 0 1 3984.7158 5918.6064)" class="st3" style="font-family:'Avenir-Medium'; font-size:38.8px;">C</text>
		<text transform="matrix(1 0 0 1 4013.9658 5918.6064)" class="st3" style="font-family:'Avenir-Medium'; font-size:38.8px;">U</text>
		<text transform="matrix(1 0 0 1 4043.2256 5918.6064)" class="st3" style="font-family:'Avenir-Medium'; font-size:38.8px;">L</text>
		<text transform="matrix(1 0 0 1 4061.7358 5918.6064)" class="st3" style="font-family:'Avenir-Medium'; font-size:38.8px;">T</text>
		<text transform="matrix(1 0 0 1 4085.9458 5918.6064)" class="st3" style="font-family:'Avenir-Medium'; font-size:38.8px;">U</text>
		<text transform="matrix(1 0 0 1 4115.1958 5918.6064)" class="st3" style="font-family:'Avenir-Medium'; font-size:38.8px;">R</text>
		<text transform="matrix(1 0 0 1 4140.8354 5918.6064)" class="st3" style="font-family:'Avenir-Medium'; font-size:38.8px;">E</text>
	</g>
</g>
<image style="overflow:visible;enable-background:new    ;" width="2192" height="3112" xlink:href="8C2D8D1B13EFA24C.png"  transform="matrix(1.08 0 0 1.08 -164.4143 4020.9465)">
</image>
<path class="st6" d="M104,710.8v6.2c0,3.7-3,6.7-6.7,6.7l0,0H-78.3c-3.7,0-6.7-3-6.7-6.7l0,0l0,0v-6.2"/>
<path class="st7" d="M97.3,600H-78.3c-3.7,0-6.7,3-6.7,6.7v104.7H104V606.7C104,603,101,600,97.3,600C97.3,600,97.3,600,97.3,600z
	 M97.4,704.4H-78.4V607H97.4V704.4z"/>
<rect x="-78.4" y="607" class="st3" width="175.6" height="97.4"/>
<g>
	<defs>
		<rect id="SVGID_4_" x="-78.4" y="607" width="175.9" height="97.5"/>
	</defs>
	<clipPath id="SVGID_5_">
		<use xlink:href="#SVGID_4_"  style="overflow:visible;"/>
	</clipPath>
	<rect x="-78.4" y="621.4" class="st8" width="175.9" height="83.4"/>
	<polygon class="st9" points="2.4,614.3 1.4,614.3 1.4,612.3 0.5,613.5 0.4,613.5 -0.5,612.3 -0.5,614.3 -1.5,614.3 -1.5,610.9 
		-0.6,610.9 0.5,612.2 1.5,610.9 2.4,610.9 	"/>
	<path class="st9" d="M6.8,612.8c0,0.3-0.1,0.5-0.2,0.7c-0.1,0.2-0.2,0.4-0.4,0.5c-0.2,0.1-0.4,0.2-0.6,0.3
		c-0.2,0.1-0.4,0.1-0.6,0.1c-0.3,0-0.6,0-0.8-0.1c-0.3-0.1-0.5-0.3-0.7-0.5c-0.2-0.2-0.3-0.5-0.3-0.9l0-0.5h1l0,0.3
		c0,0.2,0,0.4,0.1,0.6c0.1,0.1,0.1,0.2,0.3,0.3c0.3,0.1,0.6,0.1,0.8,0c0.1-0.1,0.2-0.2,0.3-0.3c0.1-0.2,0.1-0.4,0.1-0.6l0-0.3h1
		L6.8,612.8z"/>
	<polygon class="st9" points="10.2,614.3 7.7,614.3 7.7,610.9 8.7,610.9 8.7,613.5 10.2,613.5 	"/>
	<polygon class="st9" points="13.7,610.9 12.1,614.4 11.4,614.4 9.9,610.9 11,610.9 11.8,612.9 12.6,610.9 	"/>
	<polygon class="st9" points="15.2,614.3 14.1,614.3 14.1,612.3 15.1,612.3 	"/>
	<path class="st9" d="M19.2,614.1c-0.1,0-0.1,0.1-0.2,0.1c-0.1,0-0.1,0-0.2,0s-0.1,0-0.2,0.1c-0.2,0-0.3,0.1-0.5,0.1
		c-0.2,0-0.3,0-0.5,0c-0.3,0-0.7-0.1-1-0.2c-0.3-0.1-0.5-0.3-0.7-0.6c-0.2-0.3-0.3-0.6-0.3-1c0-0.2,0-0.5,0.1-0.7
		c0.1-0.2,0.2-0.4,0.4-0.6c0.1-0.1,0.3-0.2,0.5-0.3c0.1-0.1,0.3-0.1,0.5-0.1c0.2,0,0.3,0,0.5,0c0.2,0,0.5,0,0.7,0.1
		c0.2,0,0.4,0.1,0.6,0.2v0.8c-0.2-0.1-0.3-0.2-0.5-0.2c-0.2-0.1-0.4-0.1-0.6-0.1c-0.3,0-0.5,0.1-0.7,0.2c-0.2,0.1-0.3,0.2-0.4,0.4
		c-0.1,0.1-0.1,0.3-0.1,0.5c0,0.2,0,0.3,0.1,0.5c0.1,0.1,0.2,0.3,0.4,0.3c0.2,0.1,0.4,0.1,0.6,0.1c0.1,0,0.3,0,0.4-0.1v-0.4h-0.5
		v-0.7h1.4L19.2,614.1z"/>
	<path class="st9" d="M3.3,616.5L3.3,616.5l-0.2,0.5h0.5L3.3,616.5z M3.2,616.3h0.1l0.5,1.1H3.7l-0.1-0.3H3l-0.1,0.3H2.8L3.2,616.3z
		"/>
	<path class="st9" d="M4.4,616.8h0.1c0,0,0.1,0,0.1,0c0,0,0.1,0,0.1,0c0,0,0.1,0,0.1-0.1c0,0,0-0.1,0-0.1c0,0,0-0.1,0-0.1
		c0,0,0,0-0.1-0.1c0,0-0.1,0-0.1,0c0,0-0.1,0-0.1,0H4.4L4.4,616.8z M4.3,616.3h0.3c0.1,0,0.1,0,0.2,0c0,0,0.1,0,0.1,0
		c0,0,0.1,0.1,0.1,0.1c0,0,0,0.1,0,0.2c0,0.1,0,0.1-0.1,0.2c-0.1,0.1-0.1,0.1-0.2,0.1l0.3,0.5H4.9L4.6,617H4.4v0.5H4.3L4.3,616.3z"
		/>
	<path class="st9" d="M6.4,616.6c0,0-0.1-0.1-0.1-0.1c0,0-0.1,0-0.2,0c-0.1,0-0.1,0-0.2,0c-0.1,0-0.1,0.1-0.1,0.1
		c0,0-0.1,0.1-0.1,0.1c0,0.1,0,0.1,0,0.2c0,0.1,0,0.1,0,0.2c0,0.1,0,0.1,0.1,0.1c0,0,0.1,0.1,0.1,0.1c0.1,0,0.2,0,0.4,0
		c0.1,0,0.1-0.1,0.1-0.1l0.1,0.1c0,0.1-0.1,0.1-0.2,0.1c-0.1,0-0.2,0-0.2,0c-0.1,0-0.2,0-0.2,0c-0.1,0-0.1-0.1-0.2-0.1
		c-0.1-0.1-0.1-0.1-0.1-0.2c0-0.1,0-0.2,0-0.2c0-0.1,0-0.2,0-0.2c0-0.1,0.1-0.1,0.1-0.2c0.1-0.1,0.1-0.1,0.2-0.1c0.1,0,0.2,0,0.2,0
		c0.1,0,0.1,0,0.2,0c0.1,0,0.1,0.1,0.2,0.1L6.4,616.6z"/>
	<polygon class="st9" points="7,616.3 7.1,616.3 7.1,616.8 7.7,616.8 7.7,616.3 7.9,616.3 7.9,617.5 7.7,617.5 7.7,616.9 7.1,616.9 
		7.1,617.5 7,617.5 	"/>
	<rect x="8.5" y="616.3" class="st9" width="0.1" height="1.1"/>
	<polygon class="st9" points="9.9,616.5 9.6,616.5 9.6,617.5 9.4,617.5 9.4,616.5 9.1,616.5 9.1,616.3 9.9,616.3 	"/>
	<polygon class="st9" points="10.4,616.3 11.1,616.3 11.1,616.5 10.5,616.5 10.5,616.8 11.1,616.8 11.1,616.9 10.5,616.9 
		10.5,617.3 11.1,617.3 11.1,617.5 10.4,617.5 	"/>
	<path class="st9" d="M12.4,616.6c0,0-0.1-0.1-0.1-0.1c0,0-0.1,0-0.2,0c-0.1,0-0.1,0-0.2,0c-0.1,0-0.1,0.1-0.1,0.1
		c0,0-0.1,0.1-0.1,0.1c0,0.1,0,0.1,0,0.2c0,0.1,0,0.1,0,0.2c0,0.1,0,0.1,0.1,0.1c0,0,0.1,0.1,0.1,0.1c0.1,0,0.2,0,0.4,0
		c0.1,0,0.1-0.1,0.1-0.1l0.1,0.1c0,0.1-0.1,0.1-0.2,0.1c-0.1,0-0.2,0-0.2,0c-0.1,0-0.2,0-0.2,0c-0.1,0-0.1-0.1-0.2-0.1
		c-0.1-0.1-0.1-0.1-0.1-0.2c0-0.1,0-0.2,0-0.2c0-0.1,0-0.2,0-0.2c0-0.1,0.1-0.1,0.1-0.2c0.1-0.1,0.3-0.2,0.4-0.2c0.1,0,0.1,0,0.2,0
		c0.1,0,0.1,0.1,0.2,0.1L12.4,616.6z"/>
	<polygon class="st9" points="13.8,616.5 13.4,616.5 13.4,617.5 13.3,617.5 13.3,616.5 12.9,616.5 12.9,616.3 13.8,616.3 	"/>
	<polygon class="st9" points="14.3,616.3 15,616.3 15,616.5 14.4,616.5 14.4,616.8 15,616.8 15,616.9 14.4,616.9 14.4,617.3 
		15,617.3 15,617.5 14.3,617.5 	"/>
	<path class="st9" d="M-66,613.8c0,0,0-0.1,0-0.1c-0.1,0-0.1,0-0.2,0h-0.1v0.3h0.1c0,0,0.1,0,0.1,0C-66.1,614-66,614-66,613.8
		C-66,613.9-66,613.9-66,613.8z M-65.7,613.8c0,0,0,0.1,0,0.1c0,0,0,0.1-0.1,0.1c0,0-0.1,0.1-0.1,0.1c-0.1,0-0.1,0-0.2,0h-0.2v0.4
		h-0.3v-1.1h0.6c0.1,0,0.1,0,0.2,0c0,0,0.1,0,0.1,0.1c0,0,0.1,0.1,0.1,0.1C-65.7,613.8-65.7,613.8-65.7,613.8L-65.7,613.8z"/>
	<path class="st9" d="M-64.8,613.8c0,0,0-0.1-0.1-0.1c-0.1,0-0.1,0-0.2,0h-0.1v0.3h0.1c0.1,0,0.1,0,0.2,0
		C-64.8,613.9-64.8,613.9-64.8,613.8z M-64.3,614.6h-0.4l-0.1-0.2c0-0.1-0.1-0.1-0.1-0.2c0,0,0-0.1-0.1-0.1c0,0-0.1,0-0.1,0h0v0.4
		h-0.3v-1.1h0.6c0.1,0,0.2,0,0.2,0.1c0.1,0,0.1,0.1,0.1,0.1c0,0,0,0.1,0,0.2c0,0,0,0.1,0,0.1c0,0,0,0.1-0.1,0.1c0,0-0.1,0-0.1,0.1
		c0,0,0.1,0,0.1,0.1c0,0.1,0.1,0.1,0.1,0.2L-64.3,614.6z"/>
	<path class="st9" d="M-63.2,614.1c0,0,0-0.1,0-0.1c0,0,0-0.1-0.1-0.1c0,0-0.1,0-0.1-0.1c0,0-0.1,0-0.1,0c-0.2,0-0.3,0.1-0.3,0.3
		s0.1,0.3,0.3,0.3c0,0,0,0,0,0c0.1,0,0.1,0,0.2,0c0,0,0.1-0.1,0.1-0.1C-63.2,614.2-63.2,614.1-63.2,614.1z M-62.9,614.1
		c0,0.1,0,0.2-0.1,0.3c0,0.1-0.1,0.2-0.2,0.2c-0.1,0.1-0.2,0.1-0.3,0.1c-0.1,0-0.2,0-0.4-0.1c-0.1,0-0.2-0.1-0.2-0.2
		c-0.1-0.2-0.1-0.4,0-0.6c0-0.1,0.1-0.2,0.2-0.2c0.1-0.1,0.2-0.1,0.4-0.1c0.1,0,0.2,0,0.3,0c0.1,0,0.1,0.1,0.2,0.1
		c0.1,0.1,0.1,0.1,0.1,0.2C-62.9,613.9-62.9,614-62.9,614.1L-62.9,614.1z"/>
	<path class="st9" d="M-62.2,614.5c0,0.1,0,0.2,0,0.3c0,0.1-0.1,0.1-0.1,0.2c-0.1,0.1-0.2,0.1-0.2,0.1c0,0-0.1,0-0.1,0l-0.1-0.3
		c0,0,0.1,0,0.1,0c0,0,0,0,0.1,0c0,0,0,0,0-0.1c0-0.1,0-0.1,0-0.2v-0.9h0.3V614.5z"/>
	<polygon class="st9" points="-61,614.6 -61.8,614.6 -61.8,613.5 -61,613.5 -61,613.7 -61.5,613.7 -61.5,613.9 -61,613.9 -61,614.2 
		-61.5,614.2 -61.5,614.4 -61,614.4 	"/>
	<polygon class="st9" points="-59.6,613.8 -60,613.8 -60,614.6 -60.4,614.6 -60.4,613.8 -60.8,613.8 -60.8,613.5 -59.6,613.5 	"/>
	<path class="st9" d="M-58.6,614.3c0,0.1,0,0.1-0.1,0.2c0,0.1-0.1,0.1-0.1,0.1c-0.1,0-0.1,0-0.2,0c0,0-0.1,0-0.1,0c0,0-0.1,0-0.1,0
		c-0.1,0-0.1,0-0.2-0.1v-0.3c0.1,0,0.1,0.1,0.2,0.1c0.1,0,0.1,0,0.2,0c0,0,0.1,0,0.1,0c0,0,0,0,0-0.1c0,0,0-0.1,0-0.1
		c0,0-0.1,0-0.1-0.1c-0.1,0-0.1-0.1-0.2-0.1c0,0-0.1-0.1-0.1-0.1c0,0,0-0.1,0-0.2c0-0.1,0.1-0.2,0.2-0.3c0.1,0,0.1,0,0.2,0
		c0.1,0,0.1,0,0.2,0c0,0,0.1,0,0.1,0c0,0,0,0,0.1,0v0.3c0,0-0.1-0.1-0.2-0.1c-0.1,0-0.1,0-0.2,0c0,0-0.1,0-0.1,0c0,0,0,0,0,0.1
		c0,0,0,0,0,0.1c0,0,0.1,0,0.1,0.1c0.1,0,0.1,0.1,0.2,0.1c0,0,0.1,0.1,0.1,0.1C-58.6,614.2-58.6,614.2-58.6,614.3z"/>
	<path class="st9" d="M77.3,614.7c0,0-0.1,0-0.1,0.1c0,0-0.1,0-0.1,0c-0.1,0-0.1,0-0.2,0c-0.1,0-0.2,0-0.3,0c-0.1,0-0.1-0.1-0.2-0.1
		c-0.1-0.1-0.1-0.1-0.1-0.2c0-0.1,0-0.2,0-0.2c0-0.1,0-0.2,0.1-0.3c0-0.1,0.1-0.1,0.1-0.2c0.1,0,0.1-0.1,0.2-0.1c0.1,0,0.2,0,0.2,0
		c0.1,0,0.3,0,0.4,0.1v0.3c-0.1,0-0.1-0.1-0.2-0.1c-0.1,0-0.1,0-0.2,0c-0.1,0-0.1,0-0.2,0c-0.1,0-0.1,0.1-0.1,0.1
		c-0.1,0.1-0.1,0.2,0,0.3c0,0,0.1,0.1,0.1,0.1c0.1,0,0.1,0,0.2,0c0.1,0,0.1,0,0.2,0c0,0,0.1,0,0.1,0c0,0,0.1,0,0.1-0.1L77.3,614.7z"
		/>
	<path class="st9" d="M78.5,614.2c0,0,0-0.1,0-0.1c0,0,0-0.1-0.1-0.1c0,0-0.1,0-0.1-0.1c0,0-0.1,0-0.1,0c-0.2,0-0.3,0.1-0.3,0.3
		c0,0.2,0.1,0.3,0.3,0.3c0,0,0,0,0,0c0.1,0,0.1,0,0.2,0c0,0,0.1-0.1,0.1-0.1C78.5,614.3,78.5,614.2,78.5,614.2z M78.8,614.2
		c0,0.1,0,0.2-0.1,0.3c0,0.1-0.1,0.2-0.2,0.2c-0.1,0.1-0.2,0.1-0.3,0.1c-0.1,0-0.2,0-0.4-0.1c-0.1,0-0.2-0.1-0.2-0.2
		c-0.1-0.2-0.1-0.4,0-0.6c0-0.1,0.1-0.2,0.2-0.2c0.1-0.1,0.2-0.1,0.4-0.1c0.1,0,0.2,0,0.3,0c0.1,0,0.1,0.1,0.2,0.1
		c0.1,0.1,0.1,0.1,0.1,0.2C78.8,614,78.8,614.1,78.8,614.2L78.8,614.2z"/>
	<polygon class="st9" points="80.3,614.8 80,614.8 79.4,614.1 79.4,614.8 79.1,614.8 79.1,613.6 79.4,613.6 80,614.3 80,613.6 
		80.3,613.6 	"/>
	<polygon class="st9" points="81.7,613.9 81.3,613.9 81.3,614.8 81,614.8 81,613.9 80.6,613.9 80.6,613.6 81.7,613.6 	"/>
	<path class="st9" d="M82.6,614.3l-0.2-0.4l-0.2,0.4H82.6z M83.1,614.8h-0.3l-0.1-0.2h-0.5l-0.1,0.2h-0.3l0.5-1.1h0.4L83.1,614.8z"
		/>
	<path class="st9" d="M84.3,614.7c0,0-0.1,0-0.1,0.1c0,0-0.1,0-0.1,0c-0.1,0-0.1,0-0.2,0c-0.1,0-0.2,0-0.3,0c-0.1,0-0.1-0.1-0.2-0.1
		c-0.1-0.1-0.1-0.1-0.1-0.2c0-0.1,0-0.2,0-0.2c0-0.1,0-0.2,0.1-0.3c0-0.1,0.1-0.1,0.1-0.2c0.1,0,0.1-0.1,0.2-0.1c0.1,0,0.2,0,0.2,0
		c0.1,0,0.3,0,0.4,0.1v0.3c-0.1,0-0.1-0.1-0.2-0.1c-0.1,0-0.1,0-0.2,0c-0.1,0-0.1,0-0.2,0c-0.1,0-0.1,0.1-0.1,0.1
		c-0.1,0.1-0.1,0.2,0,0.3c0,0,0.1,0.1,0.1,0.1c0.1,0,0.1,0,0.2,0c0.1,0,0.1,0,0.2,0c0,0,0.1,0,0.1,0c0,0,0.1,0,0.1-0.1V614.7z"/>
	<polygon class="st9" points="85.7,613.9 85.3,613.9 85.3,614.8 84.9,614.8 84.9,613.9 84.5,613.9 84.5,613.6 85.7,613.6 	"/>
	<polygon class="st10" points="-28.7,639.7 -27.9,639 -31.7,634.7 -31.7,634.7 -43.4,638.9 -43.4,638.9 -43.4,638.9 -43.4,643.4 
		-42.4,643.4 -42.4,639.7 -32,635.9 	"/>
	<rect x="-43.4" y="644.5" class="st10" width="1.1" height="1.1"/>
	<polygon class="st10" points="-26.2,640.9 -34.6,640.9 -34.6,642 -26.2,642 -26.2,645.6 -25.1,645.6 -25.1,642 -25.1,640.9 	"/>
	<rect x="20.3" y="644.9" class="st10" width="1" height="1"/>
	<path class="st10" d="M19.7,635.6c-0.7-0.8-1.5-1.2-2.4-1.2c-1.3,0-2.6,1.1-3.5,2.9c-0.3-0.7-0.7-1.2-1.1-1.7
		c-0.7-0.8-1.5-1.2-2.4-1.2c-1.3,0-2.6,1.1-3.5,2.9c-0.3-0.7-0.7-1.2-1.1-1.7c-0.7-0.8-1.5-1.2-2.4-1.2c-1.6,0-3.1,1.6-4,4.2l0,0.1
		v7.2h1.1v-7c0.7-2.1,1.8-3.4,2.9-3.4c1.1,0,2.2,1.3,2.9,3.3v7.1h1.1v-7c0.7-2.1,1.8-3.4,2.9-3.4c1.1,0,2.2,1.3,2.9,3.3v7.1h1.1v-7
		c0.7-2.1,1.8-3.4,2.9-3.4c1.1,0,2.3,1.3,2.9,3.4l1-0.3C20.9,637.3,20.3,636.3,19.7,635.6z"/>
	<rect x="14" y="679.2" class="st10" width="1.1" height="2.6"/>
	<rect x="9.3" y="679.2" class="st10" width="1.1" height="2.6"/>
	<rect x="4.8" y="679.2" class="st10" width="1.1" height="2.6"/>
	<polygon class="st10" points="17.7,670.8 1.1,670.8 1.1,670.8 0,670.8 0,681.8 1.1,681.8 1.1,677.1 17.7,677.1 17.7,676 10.4,676 
		10.4,673.9 9.3,673.9 9.3,676 5.9,676 5.9,673.9 4.8,673.9 4.8,676 1.1,676 1.1,671.9 17.7,671.9 	"/>
	<rect x="14" y="673.9" class="st10" width="1" height="1"/>
	<rect x="-39.7" y="682.9" class="st10" width="1.1" height="1.1"/>
	<rect x="-39.6" y="668.7" class="st10" width="0.9" height="10.1"/>
	<polygon class="st10" points="-28.8,683.9 -34,683.9 -34,682.9 -29.7,682.9 -29.7,669.7 -39.7,669.7 -39.7,668.8 -28.8,668.8 	"/>
	<rect x="48.5" y="680.3" class="st10" width="1" height="1"/>
	<path class="st10" d="M54.8,674c-0.4,0-0.7-0.2-1-0.4c-0.4-0.2-0.8-0.5-1.7-0.5c-0.8,0-1.3,0.3-1.7,0.5c-0.3,0.2-0.6,0.4-1.2,0.4
		s-0.8-0.2-1.2-0.4c-0.4-0.2-0.8-0.5-1.7-0.5v0.9c0.6,0,0.8,0.2,1.2,0.4c0.4,0.2,0.8,0.5,1.7,0.5s1.3-0.3,1.7-0.5
		c0.3-0.2,0.6-0.4,1.2-0.4s0.8,0.2,1.2,0.4c0.4,0.2,0.8,0.5,1.7,0.5v0l5.7-2.4v9h0.9v-10.5L54.8,674z"/>
	<path class="st10" d="M55.1,681.2h-0.9c0-1.8-1.5-3.3-3.3-3.3c-1.8,0-3.3,1.5-3.3,3.3h-0.9c0-2.3,1.9-4.2,4.2-4.2
		C53.3,677,55.1,678.9,55.1,681.2L55.1,681.2z"/>
	<rect x="59.5" y="644.8" class="st10" width="1" height="1"/>
	<polygon class="st10" points="62.4,645.8 61.4,645.8 61.4,639.1 54.2,635.4 46.7,639.1 46.7,645.8 45.8,645.8 45.8,638.5 
		54.2,634.4 62.4,638.5 	"/>
	<g style="clip-path:url(#SVGID_5_);enable-background:new    ;">
		<text transform="matrix(1 0 0 1 -40.1899 654.1632)" class="st3" style="font-family:'Avenir-Medium'; font-size:1.6488px;">P</text>
	</g>
	<g style="clip-path:url(#SVGID_5_);enable-background:new    ;">
		<text transform="matrix(1 0 0 1 -39.2524 654.1632)" class="st3" style="font-family:'Avenir-Medium'; font-size:1.6488px;">A</text>
	</g>
	<g style="clip-path:url(#SVGID_5_);enable-background:new    ;">
		<text transform="matrix(1 0 0 1 -38.0088 654.1632)" class="st3" style="font-family:'Avenir-Medium'; font-size:1.6488px;">R</text>
	</g>
	<g style="clip-path:url(#SVGID_5_);enable-background:new    ;">
		<text transform="matrix(1 0 0 1 -36.9487 654.1632)" class="st3" style="font-family:'Avenir-Medium'; font-size:1.6488px;">T</text>
	</g>
	<g style="clip-path:url(#SVGID_5_);enable-background:new    ;">
		<text transform="matrix(1 0 0 1 -35.9204 654.1632)" class="st3" style="font-family:'Avenir-Medium'; font-size:1.6488px;">I</text>
	</g>
	<g style="clip-path:url(#SVGID_5_);enable-background:new    ;">
		<text transform="matrix(1 0 0 1 -35.3799 654.1632)" class="st3" style="font-family:'Avenir-Medium'; font-size:1.6488px;">C</text>
	</g>
	<g style="clip-path:url(#SVGID_5_);enable-background:new    ;">
		<text transform="matrix(1 0 0 1 -34.1362 654.1632)" class="st3" style="font-family:'Avenir-Medium'; font-size:1.6488px;">U</text>
	</g>
	<g style="clip-path:url(#SVGID_5_);enable-background:new    ;">
		<text transform="matrix(1 0 0 1 -32.8936 654.1632)" class="st3" style="font-family:'Avenir-Medium'; font-size:1.6488px;">L</text>
	</g>
	<g style="clip-path:url(#SVGID_5_);enable-background:new    ;">
		<text transform="matrix(1 0 0 1 -31.9551 654.1632)" class="st3" style="font-family:'Avenir-Medium'; font-size:1.6488px;">I</text>
	</g>
	<g style="clip-path:url(#SVGID_5_);enable-background:new    ;">
		<text transform="matrix(1 0 0 1 -31.4141 654.1632)" class="st3" style="font-family:'Avenir-Medium'; font-size:1.6488px;">E</text>
	</g>
	<g style="clip-path:url(#SVGID_5_);enable-background:new    ;">
		<text transform="matrix(1 0 0 1 -30.3252 654.1632)" class="st3" style="font-family:'Avenir-Medium'; font-size:1.6488px;">R</text>
	</g>
	<g style="clip-path:url(#SVGID_5_);enable-background:new    ;">
		<text transform="matrix(1 0 0 1 4.0166 654.1632)" class="st3" style="font-family:'Avenir-Medium'; font-size:1.6488px;">P</text>
	</g>
	<g style="clip-path:url(#SVGID_5_);enable-background:new    ;">
		<text transform="matrix(1 0 0 1 4.9551 654.1632)" class="st3" style="font-family:'Avenir-Medium'; font-size:1.6488px;">A</text>
	</g>
	<g style="clip-path:url(#SVGID_5_);enable-background:new    ;">
		<text transform="matrix(1 0 0 1 6.0464 654.1632)" class="st3" style="font-family:'Avenir-Medium'; font-size:1.6488px;">T</text>
	</g>
	<g style="clip-path:url(#SVGID_5_);enable-background:new    ;">
		<text transform="matrix(1 0 0 1 7.0747 654.1632)" class="st3" style="font-family:'Avenir-Medium'; font-size:1.6488px;">R</text>
	</g>
	<g style="clip-path:url(#SVGID_5_);enable-background:new    ;">
		<text transform="matrix(1 0 0 1 8.1645 654.1632)" class="st3" style="font-family:'Avenir-Medium'; font-size:1.6488px;">I</text>
	</g>
	<g style="clip-path:url(#SVGID_5_);enable-background:new    ;">
		<text transform="matrix(1 0 0 1 8.7056 654.1632)" class="st3" style="font-family:'Avenir-Medium'; font-size:1.6488px;">M</text>
	</g>
	<g style="clip-path:url(#SVGID_5_);enable-background:new    ;">
		<text transform="matrix(1 0 0 1 10.2817 654.1632)" class="st3" style="font-family:'Avenir-Medium'; font-size:1.6488px;">O</text>
	</g>
	<g style="clip-path:url(#SVGID_5_);enable-background:new    ;">
		<text transform="matrix(1 0 0 1 11.7358 654.1632)" class="st3" style="font-family:'Avenir-Medium'; font-size:1.6488px;">I</text>
	</g>
	<g style="clip-path:url(#SVGID_5_);enable-background:new    ;">
		<text transform="matrix(1 0 0 1 12.2769 654.1632)" class="st3" style="font-family:'Avenir-Medium'; font-size:1.6488px;">N</text>
	</g>
	<g style="clip-path:url(#SVGID_5_);enable-background:new    ;">
		<text transform="matrix(1 0 0 1 13.6714 654.1632)" class="st3" style="font-family:'Avenir-Medium'; font-size:1.6488px;">E</text>
	</g>
	<g style="clip-path:url(#SVGID_5_);enable-background:new    ;">
		<text transform="matrix(1 0 0 1 47.6689 654.1632)" class="st3" style="font-family:'Avenir-Medium'; font-size:1.6488px;">I</text>
	</g>
	<g style="clip-path:url(#SVGID_5_);enable-background:new    ;">
		<text transform="matrix(1 0 0 1 48.2095 654.1632)" class="st3" style="font-family:'Avenir-Medium'; font-size:1.6488px;">N</text>
	</g>
	<g style="clip-path:url(#SVGID_5_);enable-background:new    ;">
		<text transform="matrix(1 0 0 1 49.6045 654.1632)" class="st3" style="font-family:'Avenir-Medium'; font-size:1.6488px;">S</text>
	</g>
	<g style="clip-path:url(#SVGID_5_);enable-background:new    ;">
		<text transform="matrix(1 0 0 1 50.603 654.1632)" class="st3" style="font-family:'Avenir-Medium'; font-size:1.6488px;">T</text>
	</g>
	<g style="clip-path:url(#SVGID_5_);enable-background:new    ;">
		<text transform="matrix(1 0 0 1 51.6318 654.1632)" class="st3" style="font-family:'Avenir-Medium'; font-size:1.6488px;">I</text>
	</g>
	<g style="clip-path:url(#SVGID_5_);enable-background:new    ;">
		<text transform="matrix(1 0 0 1 52.1724 654.1632)" class="st3" style="font-family:'Avenir-Medium'; font-size:1.6488px;">T</text>
	</g>
	<g style="clip-path:url(#SVGID_5_);enable-background:new    ;">
		<text transform="matrix(1 0 0 1 53.2017 654.1632)" class="st3" style="font-family:'Avenir-Medium'; font-size:1.6488px;">U</text>
	</g>
	<g style="clip-path:url(#SVGID_5_);enable-background:new    ;">
		<text transform="matrix(1 0 0 1 54.4443 654.1632)" class="st3" style="font-family:'Avenir-Medium'; font-size:1.6488px;">T</text>
	</g>
	<g style="clip-path:url(#SVGID_5_);enable-background:new    ;">
		<text transform="matrix(1 0 0 1 55.4731 654.1632)" class="st3" style="font-family:'Avenir-Medium'; font-size:1.6488px;">I</text>
	</g>
	<g style="clip-path:url(#SVGID_5_);enable-background:new    ;">
		<text transform="matrix(1 0 0 1 56.0142 654.1632)" class="st3" style="font-family:'Avenir-Medium'; font-size:1.6488px;">O</text>
	</g>
	<g style="clip-path:url(#SVGID_5_);enable-background:new    ;">
		<text transform="matrix(1 0 0 1 57.4683 654.1632)" class="st3" style="font-family:'Avenir-Medium'; font-size:1.6488px;">N</text>
	</g>
	<g style="clip-path:url(#SVGID_5_);enable-background:new    ;">
		<text transform="matrix(1 0 0 1 58.8633 654.1632)" class="st3" style="font-family:'Avenir-Medium'; font-size:1.6488px;">S</text>
	</g>
	<g style="clip-path:url(#SVGID_5_);enable-background:new    ;">
		<text transform="matrix(1 0 0 1 -40.2236 692.4943)" class="st3" style="font-family:'Avenir-Medium'; font-size:1.6488px;">S</text>
	</g>
	<g style="clip-path:url(#SVGID_5_);enable-background:new    ;">
		<text transform="matrix(1 0 0 1 -39.2251 692.4943)" class="st3" style="font-family:'Avenir-Medium'; font-size:1.6488px;">U</text>
	</g>
	<g style="clip-path:url(#SVGID_5_);enable-background:new    ;">
		<text transform="matrix(1 0 0 1 -37.9819 692.4943)" class="st3" style="font-family:'Avenir-Medium'; font-size:1.6488px;">R</text>
	</g>
	<g style="clip-path:url(#SVGID_5_);enable-background:new    ;">
		<text transform="matrix(1 0 0 1 -36.8926 692.4943)" class="st3" style="font-family:'Avenir-Medium'; font-size:1.6488px;">-</text>
	</g>
	<g style="clip-path:url(#SVGID_5_);enable-background:new    ;">
		<text transform="matrix(1 0 0 1 -36.2891 692.4943)" class="st3" style="font-family:'Avenir-Medium'; font-size:1.6488px;">M</text>
	</g>
	<g style="clip-path:url(#SVGID_5_);enable-background:new    ;">
		<text transform="matrix(1 0 0 1 -34.7129 692.4943)" class="st3" style="font-family:'Avenir-Medium'; font-size:1.6488px;">E</text>
	</g>
	<g style="clip-path:url(#SVGID_5_);enable-background:new    ;">
		<text transform="matrix(1 0 0 1 -33.623 692.4943)" class="st3" style="font-family:'Avenir-Medium'; font-size:1.6488px;">S</text>
	</g>
	<g style="clip-path:url(#SVGID_5_);enable-background:new    ;">
		<text transform="matrix(1 0 0 1 -32.624 692.4943)" class="st3" style="font-family:'Avenir-Medium'; font-size:1.6488px;">U</text>
	</g>
	<g style="clip-path:url(#SVGID_5_);enable-background:new    ;">
		<text transform="matrix(1 0 0 1 -31.3809 692.4943)" class="st3" style="font-family:'Avenir-Medium'; font-size:1.6488px;">R</text>
	</g>
	<g style="clip-path:url(#SVGID_5_);enable-background:new    ;">
		<text transform="matrix(1 0 0 1 -30.291 692.4943)" class="st3" style="font-family:'Avenir-Medium'; font-size:1.6488px;">E</text>
	</g>
	<g style="clip-path:url(#SVGID_5_);enable-background:new    ;">
		<text transform="matrix(1 0 0 1 5.02 692.4943)" class="st3" style="font-family:'Avenir-Medium'; font-size:1.6488px;">L</text>
	</g>
	<g style="clip-path:url(#SVGID_5_);enable-background:new    ;">
		<text transform="matrix(1 0 0 1 5.9585 692.4943)" class="st3" style="font-family:'Avenir-Medium'; font-size:1.6488px;">O</text>
	</g>
	<g style="clip-path:url(#SVGID_5_);enable-background:new    ;">
		<text transform="matrix(1 0 0 1 7.4126 692.4943)" class="st3" style="font-family:'Avenir-Medium'; font-size:1.6488px;">G</text>
	</g>
	<g style="clip-path:url(#SVGID_5_);enable-background:new    ;">
		<text transform="matrix(1 0 0 1 8.7778 692.4943)" class="st3" style="font-family:'Avenir-Medium'; font-size:1.6488px;">E</text>
	</g>
	<g style="clip-path:url(#SVGID_5_);enable-background:new    ;">
		<text transform="matrix(1 0 0 1 9.8672 692.4943)" class="st3" style="font-family:'Avenir-Medium'; font-size:1.6488px;">M</text>
	</g>
	<g style="clip-path:url(#SVGID_5_);enable-background:new    ;">
		<text transform="matrix(1 0 0 1 11.4438 692.4943)" class="st3" style="font-family:'Avenir-Medium'; font-size:1.6488px;">E</text>
	</g>
	<g style="clip-path:url(#SVGID_5_);enable-background:new    ;">
		<text transform="matrix(1 0 0 1 12.5337 692.4943)" class="st3" style="font-family:'Avenir-Medium'; font-size:1.6488px;">N</text>
	</g>
	<g style="clip-path:url(#SVGID_5_);enable-background:new    ;">
		<text transform="matrix(1 0 0 1 13.9282 692.4943)" class="st3" style="font-family:'Avenir-Medium'; font-size:1.6488px;">T</text>
	</g>
	<g style="clip-path:url(#SVGID_5_);enable-background:new    ;">
		<text transform="matrix(1 0 0 1 14.9565 692.4943)" class="st3" style="font-family:'Avenir-Medium'; font-size:1.6488px;">S</text>
	</g>
	<g style="clip-path:url(#SVGID_5_);enable-background:new    ;">
		<text transform="matrix(1 0 0 1 49.9033 692.4943)" class="st3" style="font-family:'Avenir-Medium'; font-size:1.6488px;">C</text>
	</g>
	<g style="clip-path:url(#SVGID_5_);enable-background:new    ;">
		<text transform="matrix(1 0 0 1 51.1465 692.4943)" class="st3" style="font-family:'Avenir-Medium'; font-size:1.6488px;">U</text>
	</g>
	<g style="clip-path:url(#SVGID_5_);enable-background:new    ;">
		<text transform="matrix(1 0 0 1 52.3896 692.4943)" class="st3" style="font-family:'Avenir-Medium'; font-size:1.6488px;">L</text>
	</g>
	<g style="clip-path:url(#SVGID_5_);enable-background:new    ;">
		<text transform="matrix(1 0 0 1 53.1758 692.4943)" class="st3" style="font-family:'Avenir-Medium'; font-size:1.6488px;">T</text>
	</g>
	<g style="clip-path:url(#SVGID_5_);enable-background:new    ;">
		<text transform="matrix(1 0 0 1 54.2046 692.4943)" class="st3" style="font-family:'Avenir-Medium'; font-size:1.6488px;">U</text>
	</g>
	<g style="clip-path:url(#SVGID_5_);enable-background:new    ;">
		<text transform="matrix(1 0 0 1 55.4478 692.4943)" class="st3" style="font-family:'Avenir-Medium'; font-size:1.6488px;">R</text>
	</g>
	<g style="clip-path:url(#SVGID_5_);enable-background:new    ;">
		<text transform="matrix(1 0 0 1 56.5376 692.4943)" class="st3" style="font-family:'Avenir-Medium'; font-size:1.6488px;">E</text>
	</g>
</g>
<image style="overflow:visible;enable-background:new    ;" width="2192" height="3112" xlink:href="8C2D8D1B13EFA24D.png"  transform="matrix(4.589325e-02 0 0 4.589325e-02 -126.4086 611.8556)">
</image>
<polygon points="80,476.4 70.5,476.4 70.5,458 61.8,468.6 61.1,468.6 52.5,458 52.5,476.4 43.2,476.4 43.2,444.7 51.8,444.7 
	61.6,456.6 71.4,444.7 80,444.7 "/>
<path d="M121.1,462.2c0,2.7-0.5,5-1.5,6.9c-0.9,1.8-2.3,3.4-4,4.5c-1.6,1.1-3.5,1.9-5.4,2.4c-1.9,0.5-3.8,0.7-5.8,0.7
	c-2.7,0-5.3-0.5-7.8-1.4c-2.5-0.9-4.7-2.5-6.3-4.7c-1.7-2.2-2.6-5.1-2.6-8.6l-0.1-4.9h9.5l0.1,2.5c-0.1,1.8,0.2,3.5,0.9,5.2
	c0.5,1.2,1.4,2.3,2.5,3c2.4,1.3,5.2,1.3,7.5,0c1.1-0.7,2-1.7,2.5-3c0.7-1.6,1-3.4,0.9-5.2l-0.1-2.5h9.6L121.1,462.2z"/>
<polygon points="152.8,476.4 128.7,476.4 128.7,444.7 138.3,444.7 138.3,468.8 152.8,468.8 "/>
<polygon points="184.7,444.7 170.4,476.8 164.1,476.8 150.1,444.7 160.1,444.7 167.3,463 174.8,444.7 "/>
<polygon points="198.8,476.4 189.2,476.4 189.1,457.3 198.7,457.3 "/>
<path d="M236.7,474.1c-0.7,0.3-1.3,0.5-1.8,0.6c-0.5,0.2-1,0.3-1.4,0.5s-1.1,0.3-2,0.5c-1.4,0.3-2.9,0.6-4.3,0.8
	c-1.5,0.2-3,0.3-4.6,0.3c-3.1,0-6.1-0.6-8.9-1.8c-2.7-1.1-5-3-6.6-5.5c-1.6-2.5-2.5-5.5-2.5-9.1c0-2.3,0.4-4.6,1.3-6.8
	c0.8-2.1,2.1-4,3.9-5.4c1.3-1,2.8-1.9,4.4-2.5c1.4-0.6,2.8-1,4.3-1.2c1.5-0.2,3.1-0.3,4.6-0.3c2.3,0,4.6,0.2,6.9,0.6
	c1.8,0.4,3.8,1,6,1.7v7.5c-1.4-0.8-3-1.5-4.5-2.1c-1.9-0.6-4-0.9-6-0.8c-2.8,0-5,0.5-6.6,1.6c-1.5,0.9-2.7,2.2-3.4,3.7
	c-0.6,1.3-1,2.8-1,4.2c0,1.5,0.4,3.1,1.1,4.4c0.8,1.4,2,2.5,3.4,3.2c1.7,0.9,3.6,1.3,5.5,1.2c1.3,0,2.6-0.2,3.9-0.5v-3.7h-4.3v-6.4
	h12.6L236.7,474.1z"/>
<path d="M88.1,496.9L88.1,496.9l-2.2,5.1h4.2L88.1,496.9z M87.5,495.3h1.2l4.4,10.4h-1.4l-1.1-2.6h-5.2l-1.1,2.6H83L87.5,495.3z"/>
<path d="M98.7,499.9h1.1c0.3,0,0.7,0,1.1,0c0.3,0,0.7-0.1,1-0.2c0.3-0.1,0.6-0.3,0.8-0.5c0.2-0.3,0.3-0.6,0.3-1
	c0-0.3-0.1-0.6-0.2-0.9c-0.1-0.2-0.3-0.4-0.6-0.5c-0.2-0.1-0.5-0.2-0.8-0.2c-0.3,0-0.6-0.1-0.9-0.1h-1.7L98.7,499.9z M97.4,495.3
	h2.7c0.5,0,1,0,1.5,0.1c0.5,0.1,0.9,0.2,1.3,0.4c0.4,0.2,0.7,0.5,1,0.9c0.3,0.5,0.4,1,0.4,1.5c0,0.7-0.2,1.4-0.7,1.9
	c-0.5,0.5-1.2,0.8-1.9,0.9l3,4.8h-1.5l-2.8-4.7h-1.6v4.7h-1.2L97.4,495.3z"/>
<path d="M116.7,497.5c-0.3-0.4-0.7-0.7-1.2-0.9c-0.4-0.2-0.9-0.3-1.4-0.3c-0.5,0-1.1,0.1-1.6,0.4c-0.5,0.2-0.9,0.6-1.3,0.9
	c-0.4,0.4-0.6,0.9-0.8,1.4c-0.2,0.5-0.3,1.1-0.3,1.6c0,0.6,0.1,1.2,0.3,1.7c0.2,0.5,0.5,1,0.8,1.4c0.4,0.4,0.8,0.7,1.2,0.9
	c1.1,0.5,2.3,0.4,3.3,0c0.5-0.3,1-0.6,1.3-1.1l0.9,0.8c-0.4,0.6-1,1.1-1.7,1.4c-0.7,0.3-1.5,0.5-2.2,0.4c-0.7,0-1.4-0.1-2.1-0.4
	c-0.6-0.3-1.2-0.7-1.7-1.1c-0.5-0.5-0.9-1.1-1.1-1.7c-0.3-0.7-0.4-1.4-0.4-2.2c0-0.7,0.1-1.5,0.4-2.1c0.2-0.6,0.6-1.2,1.1-1.7
	c0.5-0.5,1-0.9,1.7-1.2c0.7-0.3,1.4-0.4,2.1-0.4c0.7,0,1.4,0.1,2,0.4c0.7,0.3,1.2,0.7,1.6,1.2L116.7,497.5z"/>
<polygon points="122.6,495.3 123.9,495.3 123.9,499.7 129.4,499.7 129.4,495.3 130.7,495.3 130.7,505.7 129.4,505.7 129.4,500.9 
	123.9,500.9 123.9,505.7 122.6,505.7 "/>
<rect x="136.2" y="495.3" width="1.2" height="10.4"/>
<polygon points="149.9,496.5 146.5,496.5 146.5,505.7 145.3,505.7 145.3,496.5 141.8,496.5 141.8,495.3 149.9,495.3 "/>
<polygon points="154.3,495.3 160.9,495.3 160.9,496.5 155.6,496.5 155.6,499.7 160.5,499.7 160.5,500.9 155.6,500.9 155.6,504.6 
	161.1,504.6 161.1,505.7 154.3,505.7 "/>
<path d="M173.3,497.5c-0.3-0.4-0.7-0.7-1.2-0.9c-0.5-0.2-0.9-0.3-1.4-0.3c-0.5,0-1.1,0.1-1.6,0.4c-0.5,0.2-0.9,0.6-1.3,0.9
	c-0.4,0.4-0.6,0.9-0.8,1.4c-0.2,0.5-0.3,1.1-0.3,1.6c0,0.6,0.1,1.2,0.3,1.7c0.2,0.5,0.5,1,0.8,1.4c0.4,0.4,0.8,0.7,1.2,0.9
	c1.1,0.5,2.3,0.4,3.3,0c0.5-0.3,1-0.6,1.3-1.1l0.9,0.8c-0.4,0.6-1,1.1-1.7,1.4c-0.7,0.3-1.5,0.5-2.2,0.4c-0.7,0-1.4-0.1-2.1-0.4
	c-0.6-0.3-1.2-0.7-1.7-1.1c-0.5-0.5-0.9-1.1-1.1-1.7c-0.3-0.7-0.4-1.4-0.4-2.2c0-0.7,0.1-1.5,0.4-2.1c0.2-0.6,0.6-1.2,1.1-1.7
	c1-1,2.4-1.6,3.8-1.6c0.7,0,1.4,0.1,2,0.4c0.7,0.3,1.2,0.7,1.6,1.2L173.3,497.5z"/>
<polygon points="186.3,496.5 182.8,496.5 182.8,505.7 181.6,505.7 181.6,496.5 178.1,496.5 178.1,495.3 186.3,495.3 "/>
<polygon points="190.7,495.3 197.2,495.3 197.2,496.5 191.9,496.5 191.9,499.7 196.8,499.7 196.8,500.9 191.9,500.9 191.9,504.6 
	197.5,504.6 197.5,505.7 190.7,505.7 "/>
<linearGradient id="SVGID_6_" gradientUnits="userSpaceOnUse" x1="222.1557" y1="250.0168" x2="48.7965" y2="-108.5356">
	<stop  offset="0" style="stop-color:#263320"/>
	<stop  offset="4.694238e-02" style="stop-color:#2A3923"/>
	<stop  offset="0.2279" style="stop-color:#364D2D"/>
	<stop  offset="0.4103" style="stop-color:#3E5933"/>
	<stop  offset="0.5949" style="stop-color:#405D35"/>
	<stop  offset="0.9703" style="stop-color:#2A3923"/>
</linearGradient>
<rect x="-23.3" y="-33.9" class="st11" width="326.4" height="227.8"/>
<polygon points="80,81.3 70.5,81.3 70.5,62.9 61.8,73.5 61.1,73.5 52.5,62.9 52.5,81.3 43.2,81.3 43.2,49.6 51.8,49.6 61.6,61.5 
	71.4,49.6 80,49.6 "/>
<path d="M121.1,67.1c0,2.7-0.5,5-1.5,6.9c-0.9,1.8-2.3,3.4-4,4.5c-1.6,1.1-3.5,1.9-5.4,2.4c-1.9,0.5-3.8,0.7-5.8,0.7
	c-2.7,0-5.3-0.5-7.8-1.4c-2.5-0.9-4.7-2.5-6.3-4.7c-1.7-2.2-2.6-5.1-2.6-8.6l-0.1-4.9h9.5l0.1,2.5c-0.1,1.8,0.2,3.5,0.9,5.2
	c0.5,1.2,1.4,2.3,2.5,3c2.4,1.3,5.2,1.3,7.5,0c1.1-0.7,2-1.7,2.5-3c0.7-1.6,1-3.4,0.9-5.2l-0.1-2.5h9.6L121.1,67.1z"/>
<polygon points="152.8,81.3 128.7,81.3 128.7,49.6 138.3,49.6 138.3,73.7 152.8,73.7 "/>
<polygon points="184.7,49.6 170.4,81.7 164.1,81.7 150.1,49.6 160.1,49.6 167.3,67.9 174.8,49.6 "/>
<polygon points="198.8,81.3 189.2,81.3 189.1,62.1 198.7,62.1 "/>
<path d="M236.7,79c-0.7,0.3-1.3,0.5-1.8,0.6c-0.5,0.2-1,0.3-1.4,0.5s-1.1,0.3-2,0.5c-1.4,0.3-2.9,0.6-4.3,0.8
	c-1.5,0.2-3,0.3-4.6,0.3c-3.1,0-6.1-0.6-8.9-1.8c-2.7-1.1-5-3-6.6-5.5c-1.6-2.5-2.5-5.5-2.5-9.1c0-2.3,0.4-4.6,1.3-6.8
	c0.8-2.1,2.1-4,3.9-5.4c1.3-1,2.8-1.9,4.4-2.5c1.4-0.6,2.8-1,4.3-1.2c1.5-0.2,3.1-0.3,4.6-0.3c2.3,0,4.6,0.2,6.9,0.6
	c1.8,0.4,3.8,1,6,1.7v7.5c-1.4-0.8-3-1.5-4.5-2.1c-1.9-0.6-4-0.9-6-0.8c-2.8,0-5,0.5-6.6,1.6c-1.5,0.9-2.7,2.2-3.4,3.7
	c-0.6,1.3-1,2.8-1,4.2c0,1.5,0.4,3.1,1.1,4.4c0.8,1.4,2,2.5,3.4,3.2c1.7,0.9,3.6,1.3,5.5,1.2c1.3,0,2.6-0.2,3.9-0.5v-3.7h-4.3v-6.4
	h12.6L236.7,79z"/>
<path d="M88.1,101.8L88.1,101.8l-2.2,5.1h4.2L88.1,101.8z M87.5,100.2h1.2l4.4,10.4h-1.4l-1.1-2.6h-5.2l-1.1,2.6H83L87.5,100.2z"/>
<path d="M98.7,104.8h1.1c0.3,0,0.7,0,1.1,0c0.3,0,0.7-0.1,1-0.2c0.3-0.1,0.6-0.3,0.8-0.5c0.2-0.3,0.3-0.6,0.3-1
	c0-0.3-0.1-0.6-0.2-0.9c-0.1-0.2-0.3-0.4-0.6-0.5c-0.2-0.1-0.5-0.2-0.8-0.2c-0.3,0-0.6-0.1-0.9-0.1h-1.7L98.7,104.8z M97.4,100.2
	h2.7c0.5,0,1,0,1.5,0.1c0.5,0.1,0.9,0.2,1.3,0.4c0.4,0.2,0.7,0.5,1,0.9c0.3,0.5,0.4,1,0.4,1.5c0,0.7-0.2,1.4-0.7,1.9
	c-0.5,0.5-1.2,0.8-1.9,0.9l3,4.8h-1.5l-2.8-4.7h-1.6v4.7h-1.2L97.4,100.2z"/>
<path d="M116.7,102.3c-0.3-0.4-0.7-0.7-1.2-0.9c-0.4-0.2-0.9-0.3-1.4-0.3c-0.5,0-1.1,0.1-1.6,0.4c-0.5,0.2-0.9,0.6-1.3,0.9
	c-0.4,0.4-0.6,0.9-0.8,1.4c-0.2,0.5-0.3,1.1-0.3,1.6c0,0.6,0.1,1.2,0.3,1.7c0.2,0.5,0.5,1,0.8,1.4c0.4,0.4,0.8,0.7,1.2,0.9
	c1.1,0.5,2.3,0.4,3.3,0c0.5-0.3,1-0.6,1.3-1.1l0.9,0.8c-0.4,0.6-1,1.1-1.7,1.4c-0.7,0.3-1.5,0.5-2.2,0.4c-0.7,0-1.4-0.1-2.1-0.4
	c-0.6-0.3-1.2-0.7-1.7-1.1c-0.5-0.5-0.9-1.1-1.1-1.7c-0.3-0.7-0.4-1.4-0.4-2.2c0-0.7,0.1-1.5,0.4-2.1c0.2-0.6,0.6-1.2,1.1-1.7
	c0.5-0.5,1-0.9,1.7-1.2c0.7-0.3,1.4-0.4,2.1-0.4c0.7,0,1.4,0.1,2,0.4c0.7,0.3,1.2,0.7,1.6,1.2L116.7,102.3z"/>
<polygon points="122.6,100.2 123.9,100.2 123.9,104.6 129.4,104.6 129.4,100.2 130.7,100.2 130.7,110.6 129.4,110.6 129.4,105.7 
	123.9,105.7 123.9,110.6 122.6,110.6 "/>
<rect x="136.2" y="100.2" width="1.2" height="10.4"/>
<polygon points="149.9,101.3 146.5,101.3 146.5,110.6 145.3,110.6 145.3,101.3 141.8,101.3 141.8,100.2 149.9,100.2 "/>
<polygon points="154.3,100.2 160.9,100.2 160.9,101.3 155.6,101.3 155.6,104.6 160.5,104.6 160.5,105.7 155.6,105.7 155.6,109.5 
	161.1,109.5 161.1,110.6 154.3,110.6 "/>
<path d="M173.3,102.3c-0.3-0.4-0.7-0.7-1.2-0.9c-0.5-0.2-0.9-0.3-1.4-0.3c-0.5,0-1.1,0.1-1.6,0.4c-0.5,0.2-0.9,0.6-1.3,0.9
	c-0.4,0.4-0.6,0.9-0.8,1.4c-0.2,0.5-0.3,1.1-0.3,1.6c0,0.6,0.1,1.2,0.3,1.7c0.2,0.5,0.5,1,0.8,1.4c0.4,0.4,0.8,0.7,1.2,0.9
	c1.1,0.5,2.3,0.4,3.3,0c0.5-0.3,1-0.6,1.3-1.1l0.9,0.8c-0.4,0.6-1,1.1-1.7,1.4c-0.7,0.3-1.5,0.5-2.2,0.4c-0.7,0-1.4-0.1-2.1-0.4
	c-0.6-0.3-1.2-0.7-1.7-1.1c-0.5-0.5-0.9-1.1-1.1-1.7c-0.3-0.7-0.4-1.4-0.4-2.2c0-0.7,0.1-1.5,0.4-2.1c0.2-0.6,0.6-1.2,1.1-1.7
	c1-1,2.4-1.6,3.8-1.6c0.7,0,1.4,0.1,2,0.4c0.7,0.3,1.2,0.7,1.6,1.2L173.3,102.3z"/>
<polygon points="186.3,101.3 182.8,101.3 182.8,110.6 181.6,110.6 181.6,101.3 178.1,101.3 178.1,100.2 186.3,100.2 "/>
<polygon points="190.7,100.2 197.2,100.2 197.2,101.3 191.9,101.3 191.9,104.6 196.8,104.6 196.8,105.7 191.9,105.7 191.9,109.5 
	197.5,109.5 197.5,110.6 190.7,110.6 "/>
</svg>
