<?xml version="1.0" encoding="utf-8"?>
<!-- Generator: Adobe Illustrator 23.1.1, SVG Export Plug-In . SVG Version: 6.00 Build 0)  -->
<svg version="1.1" id="Calque_1" xmlns="http://www.w3.org/2000/svg" xmlns:xlink="http://www.w3.org/1999/xlink" x="0px" y="0px"
	 viewBox="0 0 300 200" style="enable-background:new 0 0 300 200;" xml:space="preserve">
<style type="text/css">
	.st0{fill:url(#SVGID_1_);}
	.st1{filter:url(#Adobe_OpacityMaskFilter);}
	.st2{mask:url(#SVGID_2_);fill:url(#SVGID_3_);}
	.st3{fill:#090C07;}
	.st4{fill:url(#SVGID_4_);}
	.st5{filter:url(#Adobe_OpacityMaskFilter_1_);}
	.st6{mask:url(#SVGID_5_);fill:url(#SVGID_6_);}
</style>
<linearGradient id="SVGID_1_" gradientUnits="userSpaceOnUse" x1="1300.2604" y1="-692.6393" x2="1012.8901" y2="-98.2885">
	<stop  offset="0" style="stop-color:#263320"/>
	<stop  offset="5.000000e-02" style="stop-color:#2A3923"/>
	<stop  offset="0.23" style="stop-color:#364D2D"/>
	<stop  offset="0.41" style="stop-color:#3E5933"/>
	<stop  offset="0.59" style="stop-color:#405D35"/>
	<stop  offset="0.97" style="stop-color:#2A3923"/>
</linearGradient>
<rect x="922.2" y="-613.5" class="st0" width="483.7" height="405.4"/>
<title>mulvig_logo_aw</title>
<defs>
	<filter id="Adobe_OpacityMaskFilter" filterUnits="userSpaceOnUse" x="-27.7" y="-20.4" width="361.4" height="260.7">
		<feColorMatrix  type="matrix" values="1 0 0 0 0  0 1 0 0 0  0 0 1 0 0  0 0 0 1 0"/>
	</filter>
</defs>
<mask maskUnits="userSpaceOnUse" x="-27.7" y="-20.4" width="361.4" height="260.7" id="SVGID_2_">
	<g class="st1">
		<g id="mulvig_x5F_concrete_3_">
			
				<image style="overflow:visible;" width="800" height="625" id="mulvig_x5F_concrete_4_" xlink:href="92A0ACBD2BC1917E.png"  transform="matrix(0.5143 -2.435147e-02 2.435147e-02 0.5143 -22.8176 -35.467)">
			</image>
		</g>
	</g>
</mask>
<linearGradient id="SVGID_3_" gradientUnits="userSpaceOnUse" x1="241.1193" y1="-92.6564" x2="55.1523" y2="291.9678" gradientTransform="matrix(0.9989 -4.729302e-02 -4.729302e-02 -0.9989 4.4962 206.7578)">
	<stop  offset="0" style="stop-color:#263320"/>
	<stop  offset="5.000000e-02" style="stop-color:#2A3923"/>
	<stop  offset="0.23" style="stop-color:#364D2D"/>
	<stop  offset="0.41" style="stop-color:#3E5933"/>
	<stop  offset="0.59" style="stop-color:#405D35"/>
	<stop  offset="0.97" style="stop-color:#2A3923"/>
</linearGradient>
<polygon class="st2" points="-27.7,-3.9 322.1,-20.4 333.7,223.7 -16.1,240.2 "/>
<g>
	<polygon class="st3" points="91.2,102.2 81.7,102.2 81.7,83.9 73,94.5 72.3,94.5 63.6,83.9 63.6,102.2 54.4,102.2 54.4,70.6 
		63,70.6 72.8,82.5 82.6,70.6 91.2,70.6 	"/>
	<path class="st3" d="M132.3,88c0.1,2.4-0.5,4.8-1.5,6.9c-0.9,1.8-2.3,3.4-4,4.5c-1.6,1.1-3.5,1.9-5.4,2.4c-1.9,0.5-3.8,0.7-5.8,0.7
		c-2.7,0-5.3-0.5-7.8-1.4c-2.5-0.9-4.7-2.5-6.3-4.7c-1.8-2.5-2.7-5.5-2.6-8.6l-0.1-4.9h9.5l0.1,2.5c-0.1,1.8,0.2,3.5,0.9,5.2
		c0.5,1.2,1.4,2.3,2.5,3c2.4,1.3,5.2,1.3,7.5,0c1.1-0.7,2-1.8,2.5-3c0.7-1.6,1-3.4,0.9-5.2l-0.1-2.5h9.6L132.3,88z"/>
	<polygon class="st3" points="164,102.2 139.9,102.2 139.9,70.6 149.4,70.6 149.4,94.7 164,94.7 	"/>
	<polygon class="st3" points="195.9,70.6 181.6,102.7 175.3,102.7 161.3,70.6 171.3,70.6 178.5,88.9 185.9,70.6 	"/>
	<polygon class="st3" points="210,102.2 200.4,102.2 200.3,83.1 209.9,83.1 	"/>
	<path class="st3" d="M247.9,100c-0.7,0.3-1.3,0.5-1.8,0.6l-1.4,0.5c-0.4,0.1-1.1,0.3-2,0.5c-1.4,0.3-2.9,0.6-4.3,0.8
		c-1.5,0.2-3,0.3-4.6,0.3c-3,0-6.1-0.6-8.9-1.7c-2.7-1.1-5-3-6.6-5.5c-1.7-2.7-2.6-5.9-2.5-9.1c0-2.3,0.4-4.6,1.3-6.8
		c0.8-2.1,2.1-4,3.9-5.4c1.3-1.1,2.8-1.9,4.4-2.6c1.4-0.6,2.8-1,4.3-1.2c1.5-0.2,3.1-0.3,4.6-0.3c2.3,0,4.6,0.2,6.9,0.6
		c1.8,0.4,3.8,1,6,1.7v7.5c-1.4-0.8-3-1.6-4.5-2.1c-1.9-0.6-4-0.9-6-0.8c-2.3-0.1-4.6,0.4-6.6,1.6c-1.5,0.9-2.7,2.2-3.4,3.7
		c-0.6,1.3-1,2.8-1,4.2c0,1.5,0.4,3.1,1.1,4.4c0.8,1.4,2,2.5,3.4,3.2c1.7,0.9,3.6,1.3,5.5,1.2c1.3,0,2.6-0.2,3.9-0.5v-3.7h-4.3v-6.4
		h12.6L247.9,100z"/>
	<path class="st3" d="M99.3,122.8L99.3,122.8l-2.2,5.1h4.2L99.3,122.8z M98.7,121.2h1.2l4.4,10.4h-1.4l-1.1-2.6h-5.2l-1.1,2.6h-1.4
		L98.7,121.2z"/>
	<path class="st3" d="M109.9,125.8h1.1c0.3,0,0.7,0,1.1,0c0.3,0,0.7-0.1,1-0.2c0.3-0.1,0.6-0.3,0.8-0.5c0.2-0.3,0.3-0.6,0.3-1
		c0-0.3-0.1-0.6-0.2-0.9c-0.1-0.2-0.3-0.4-0.6-0.5c-0.2-0.1-0.5-0.2-0.8-0.2c-0.3,0-0.6-0.1-0.9-0.1h-1.7L109.9,125.8z M108.6,121.2
		h2.7c0.5,0,1,0,1.5,0.1c0.5,0.1,0.9,0.2,1.3,0.4c0.4,0.2,0.7,0.5,0.9,0.9c0.3,0.5,0.4,1,0.4,1.5c0,0.7-0.2,1.4-0.7,1.8
		c-0.5,0.5-1.2,0.8-1.9,0.9l3,4.8h-1.5l-2.8-4.7h-1.6v4.7h-1.2L108.6,121.2z"/>
	<path class="st3" d="M127.8,123.3c-0.3-0.4-0.7-0.8-1.2-1c-0.5-0.2-0.9-0.3-1.4-0.3c-0.5,0-1.1,0.1-1.6,0.3c-0.5,0.2-0.9,0.6-1.2,1
		c-0.4,0.4-0.6,0.9-0.8,1.4c-0.4,1.1-0.4,2.3,0,3.3c0.2,0.5,0.5,1,0.8,1.4c1.2,1.3,3,1.6,4.6,0.9c0.5-0.3,1-0.6,1.3-1.1l0.9,0.8
		c-0.4,0.6-1,1.1-1.7,1.4c-0.7,0.3-1.5,0.5-2.2,0.4c-0.7,0-1.4-0.1-2.1-0.4c-0.6-0.3-1.2-0.7-1.7-1.1c-0.5-0.5-0.9-1.1-1.1-1.7
		c-0.3-0.7-0.4-1.4-0.4-2.2c0-0.7,0.1-1.5,0.4-2.1c0.2-0.6,0.6-1.2,1.1-1.7c0.5-0.5,1-0.9,1.7-1.2c0.7-0.3,1.4-0.4,2.1-0.4
		c0.7,0,1.4,0.1,2,0.4c0.7,0.3,1.2,0.7,1.6,1.2L127.8,123.3z"/>
	<polygon class="st3" points="133.8,121.2 135.1,121.2 135.1,125.6 140.6,125.6 140.6,121.2 141.9,121.2 141.9,131.6 140.6,131.6 
		140.6,126.7 135.1,126.7 135.1,131.6 133.8,131.6 	"/>
	<rect x="147.4" y="121.2" class="st3" width="1.2" height="10.4"/>
	<polygon class="st3" points="161.1,122.3 157.7,122.3 157.7,131.6 156.5,131.6 156.5,122.3 153,122.3 153,121.2 161.1,121.2 	"/>
	<polygon class="st3" points="165.5,121.2 172.1,121.2 172.1,122.3 166.8,122.3 166.8,125.6 171.7,125.6 171.7,126.7 166.8,126.7 
		166.8,130.4 172.3,130.4 172.3,131.6 165.5,131.6 	"/>
	<path class="st3" d="M184.5,123.3c-0.3-0.4-0.7-0.8-1.2-1c-0.4-0.2-0.9-0.3-1.4-0.3c-0.5,0-1.1,0.1-1.6,0.3c-0.5,0.2-0.9,0.6-1.3,1
		c-0.4,0.4-0.6,0.9-0.8,1.4c-0.2,0.5-0.3,1.1-0.3,1.6c0,0.6,0.1,1.2,0.3,1.7c0.2,0.5,0.5,1,0.8,1.4c0.3,0.4,0.8,0.7,1.2,0.9
		c1.1,0.5,2.3,0.5,3.3,0c0.5-0.3,1-0.6,1.3-1.1l0.9,0.8c-0.4,0.6-1,1.1-1.7,1.4c-0.7,0.3-1.5,0.5-2.2,0.4c-0.7,0-1.4-0.1-2.1-0.4
		c-0.6-0.3-1.2-0.7-1.7-1.1c-0.5-0.5-0.9-1.1-1.1-1.7c-0.5-1.4-0.5-2.9,0-4.3c0.2-0.6,0.6-1.2,1.1-1.7c1-1,2.4-1.6,3.8-1.6
		c0.7,0,1.4,0.1,2,0.4c0.7,0.3,1.2,0.7,1.6,1.2L184.5,123.3z"/>
	<polygon class="st3" points="197.4,122.3 194,122.3 194,131.6 192.8,131.6 192.8,122.3 189.3,122.3 189.3,121.2 197.4,121.2 	"/>
	<polygon class="st3" points="201.9,121.2 208.4,121.2 208.4,122.3 203.1,122.3 203.1,125.6 208,125.6 208,126.7 203.1,126.7 
		203.1,130.4 208.6,130.4 208.6,131.6 201.9,131.6 	"/>
</g>
<g id="mulvig_x5F_concrete_7_">
	
		<image style="overflow:visible;" width="800" height="625" id="mulvig_x5F_concrete_8_" xlink:href="92A0ACBD2BC19182.png"  transform="matrix(0.48 0 0 0.48 247.93 -541.9598)">
	</image>
</g>
<linearGradient id="SVGID_4_" gradientUnits="userSpaceOnUse" x1="2188.3191" y1="-692.6393" x2="1900.9487" y2="-98.2885">
	<stop  offset="0" style="stop-color:#263320"/>
	<stop  offset="5.000000e-02" style="stop-color:#2A3923"/>
	<stop  offset="0.23" style="stop-color:#364D2D"/>
	<stop  offset="0.41" style="stop-color:#3E5933"/>
	<stop  offset="0.59" style="stop-color:#405D35"/>
	<stop  offset="0.97" style="stop-color:#2A3923"/>
</linearGradient>
<rect x="1810.2" y="-613.5" class="st4" width="483.7" height="405.4"/>
<g id="mulvig_x5F_concrete_1_">
	
		<image style="overflow:visible;" width="800" height="625" id="mulvig_x5F_concrete_2_" xlink:href="92A0ACBD2BC19185.png"  transform="matrix(0.48 0 0 0.48 1728.0278 -541.9598)">
	</image>
</g>
<rect x="740.3" y="-424.9" style="fill:none;" width="398.1" height="96.6"/>
<text transform="matrix(1 0 0 1 740.3215 -373.7842)" style="font-family:'MyriadPro-Regular'; font-size:72px;">+</text>
<rect x="1562.1" y="-424.9" style="fill:none;" width="398.1" height="96.6"/>
<text transform="matrix(1 0 0 1 1562.1072 -373.7842)" style="font-family:'MyriadPro-Regular'; font-size:72px;">=</text>
<defs>
	<filter id="Adobe_OpacityMaskFilter_1_" filterUnits="userSpaceOnUse" x="2750.8" y="-613.5" width="483.7" height="405.4">
		<feColorMatrix  type="matrix" values="1 0 0 0 0  0 1 0 0 0  0 0 1 0 0  0 0 0 1 0"/>
	</filter>
</defs>
<mask maskUnits="userSpaceOnUse" x="2750.8" y="-613.5" width="483.7" height="405.4" id="SVGID_5_">
	<g class="st5">
		<g id="mulvig_x5F_concrete_5_">
			
				<image style="overflow:visible;" width="800" height="625" id="mulvig_x5F_concrete_6_" xlink:href="92A0ACBD2BC19186.png"  transform="matrix(0.48 0 0 0.48 2668.6301 -541.9598)">
			</image>
		</g>
	</g>
</mask>
<linearGradient id="SVGID_6_" gradientUnits="userSpaceOnUse" x1="3128.9214" y1="-692.6393" x2="2841.551" y2="-98.2885">
	<stop  offset="0" style="stop-color:#263320"/>
	<stop  offset="5.000000e-02" style="stop-color:#2A3923"/>
	<stop  offset="0.23" style="stop-color:#364D2D"/>
	<stop  offset="0.41" style="stop-color:#3E5933"/>
	<stop  offset="0.59" style="stop-color:#405D35"/>
	<stop  offset="0.97" style="stop-color:#2A3923"/>
</linearGradient>
<rect x="2750.8" y="-613.5" class="st6" width="483.7" height="405.4"/>
<rect x="2502.7" y="-424.9" style="fill:none;" width="398.1" height="96.6"/>
<text transform="matrix(1 0 0 1 2502.7095 -373.7842)" style="font-family:'MyriadPro-Regular'; font-size:72px;">=</text>
<rect x="2481.1" y="-853.5" style="fill:none;" width="1041.8" height="96.6"/>
<text transform="matrix(1 0 0 1 2481.0942 -817.97)"><tspan x="0" y="0" style="font-family:'MyriadPro-Regular'; font-size:50px;">bouton ‘ créer un masque</tspan><tspan x="0" y="60" style="font-family:'MyriadPro-Regular'; font-size:50px;">dans  Fenêtre -&gt; Transparence </tspan></text>
</svg>
