<svg id="Calque_1" data-name="Calque 1" xmlns="http://www.w3.org/2000/svg" viewBox="0 0 1521.06 605.64"><defs><style>.cls-1{fill:#1d1d1b;}</style></defs><title>mulvig_logo</title><path class="cls-1" d="M350.4,316.87H285V191.27l-59,72.73H220.9l-59.12-72.73v125.6H98.26V100.08h59.28l66.63,81.36,67-81.36H350.4Z"/><path class="cls-1" d="M631.64,219.74q0,27.84-10.41,47.47a83.37,83.37,0,0,1-27.52,31,118.41,118.41,0,0,1-36.91,16.43,161.36,161.36,0,0,1-39.49,5,157.05,157.05,0,0,1-53.61-9.38,95.29,95.29,0,0,1-43.55-31.91q-17.52-22.51-17.52-58.65L402,186H467.2l.68,16.82q0,21.45,6.17,35.43t17.21,20.49q11,6.5,26,6.49a50,50,0,0,0,25.49-6.41q11.12-6.42,17.28-20.33t6.18-35.35L565.58,186H631Z"/><path class="cls-1" d="M848.28,316.87H683.58V100.08H749V264.94h99.32Z"/><path class="cls-1" d="M1067,100.08,969.2,319.68H926l-95.86-219.6h68l49.55,125.13,51-125.13Z"/><path class="cls-1" d="M1163,316.87h-65.38L1096.94,186h65.38Z"/><path class="cls-1" d="M1422.8,301.54q-7,2.65-12,4.38t-9.62,3.15q-4.62,1.41-13.37,3.6a283.41,283.41,0,0,1-29.65,5.24,260.1,260.1,0,0,1-31.19,1.79q-33,0-61-12a100.24,100.24,0,0,1-44.82-37.39Q1204.3,244.95,1204.3,208a130.9,130.9,0,0,1,8.68-46.67q8.68-22.91,26.49-36.67a123.18,123.18,0,0,1,29.8-17.44,127.79,127.79,0,0,1,29.48-8.06,227.83,227.83,0,0,1,31.75-2q28.63,0,47.24,4.3t40.82,11.35v51.3a180.73,180.73,0,0,0-31.13-14.39q-16.4-5.78-41-5.78-28.31,0-45.28,10.72t-23.56,25.5q-6.66,14.86-6.65,28.78a61.37,61.37,0,0,0,7.66,30.27q7.67,13.88,23.15,22.22t37.36,8.38a117.36,117.36,0,0,0,26.59-3.28V241h-29.4V197.37h86.49Z"/><path class="cls-1" d="M401.88,446.47h7.93l30.27,71.19h-9.84L423,500.16H387.4l-7.34,17.5H370.5Zm3.83,10.86h-.21l-14.78,35h29.06Z"/><path class="cls-1" d="M469.67,446.47h18.2a87.34,87.34,0,0,1,10.22.63,27.56,27.56,0,0,1,9.1,2.61,16.55,16.55,0,0,1,6.53,5.89c1.67,2.57,2.52,6.09,2.52,10.5q0,7.84-4.73,12.68t-13.08,6.09l20.22,32.79H508.29l-19.3-32H478.13v32h-8.46Zm8.46,31.38h7.53q3.52,0,7.3-.2a25.28,25.28,0,0,0,6.94-1.31,11.86,11.86,0,0,0,5.22-3.48c1.38-1.57,2.08-3.83,2.08-6.79a11.11,11.11,0,0,0-1.52-6.13,10.09,10.09,0,0,0-4-3.56,16.7,16.7,0,0,0-5.53-1.66,49.25,49.25,0,0,0-6.19-.41H478.13Z"/><path class="cls-1" d="M601.1,461.14a20.5,20.5,0,0,0-7.94-6.48,23.59,23.59,0,0,0-9.85-2.16,25,25,0,0,0-10.92,2.41,27.36,27.36,0,0,0-8.6,6.49,30,30,0,0,0-5.63,9.46,32,32,0,0,0-2,11.2,33,33,0,0,0,2,11.63,29,29,0,0,0,5.59,9.35,26.19,26.19,0,0,0,8.55,6.31,27.53,27.53,0,0,0,22.7-.26,26.44,26.44,0,0,0,9-7.39l6.34,5.34a29.46,29.46,0,0,1-11.61,9.46,37.76,37.76,0,0,1-15.34,3,36.18,36.18,0,0,1-14.29-2.82,35.28,35.28,0,0,1-11.51-7.8,36.06,36.06,0,0,1-7.65-11.82,41.94,41.94,0,0,1-.1-29.66,35.35,35.35,0,0,1,33.55-22.71,38.08,38.08,0,0,1,13.92,2.61,25.64,25.64,0,0,1,11.2,8.55Z"/><path class="cls-1" d="M642.14,446.47h8.46v30.16h38V446.47h8.44v71.19h-8.44V484.48h-38v33.18h-8.46Z"/><path class="cls-1" d="M734.88,446.47h8.46v71.19h-8.46Z"/><path class="cls-1" d="M828.92,454.31H805.38v63.35h-8.46V454.31H773.39v-7.84h55.5Z"/><path class="cls-1" d="M859,446.47h44.78v7.84h-36.3v22.32h33.88v7.85H867.46v25.35h38.11v7.83H859Z"/><path class="cls-1" d="M988.63,461.14a20.43,20.43,0,0,0-7.94-6.48,23.59,23.59,0,0,0-9.85-2.16,24.93,24.93,0,0,0-10.91,2.41,27.4,27.4,0,0,0-8.61,6.49,30,30,0,0,0-5.63,9.46,31.73,31.73,0,0,0-2,11.2,33,33,0,0,0,2,11.63,29.09,29.09,0,0,0,5.59,9.35,26.26,26.26,0,0,0,8.54,6.31,27.55,27.55,0,0,0,22.71-.26,26.31,26.31,0,0,0,8.94-7.39l6.35,5.34a29.49,29.49,0,0,1-11.62,9.46,37.71,37.71,0,0,1-15.33,3,36.11,36.11,0,0,1-14.29-2.82,35.33,35.33,0,0,1-11.52-7.8,35.88,35.88,0,0,1-7.64-11.82,41.94,41.94,0,0,1-.1-29.66,35.16,35.16,0,0,1,19-19.82,35.85,35.85,0,0,1,14.59-2.91,37.92,37.92,0,0,1,13.92,2.61A25.71,25.71,0,0,1,996,455.86Z"/><path class="cls-1" d="M1077.44,454.31h-23.53v63.35h-8.46V454.31h-23.54v-7.84h55.53Z"/><path class="cls-1" d="M1107.51,446.47h44.77v7.84H1116v22.32h33.88v7.85H1116v25.35h38.1v7.83h-46.58Z"/></svg>