<svg id="Calque_1" data-name="Calque 1" xmlns="http://www.w3.org/2000/svg" xmlns:xlink="http://www.w3.org/1999/xlink" viewBox="0 0 300 200"><defs><style>.cls-1{fill:url(#Dégradé_sans_nom_14);}</style><linearGradient id="Dégradé_sans_nom_14" x1="233.35" y1="271.01" x2="59.99" y2="-87.54" gradientUnits="userSpaceOnUse"><stop offset="0" stop-color="#263320"/><stop offset="0.05" stop-color="#2a3923"/><stop offset="0.23" stop-color="#364d2d"/><stop offset="0.41" stop-color="#3e5933"/><stop offset="0.59" stop-color="#405d35"/><stop offset="0.97" stop-color="#2a3923"/></linearGradient></defs><title>mulvig_logo_aw</title><rect class="cls-1" x="-12.08" y="-12.91" width="326.45" height="227.81"/><polygon points="91.21 102.25 81.65 102.25 81.65 83.9 73.03 94.52 72.28 94.52 63.64 83.9 63.64 102.25 54.36 102.25 54.36 70.57 63.02 70.57 72.76 82.46 82.55 70.57 91.21 70.57 91.21 102.25"/><path d="M132.31,88.05A14.67,14.67,0,0,1,130.79,95a12.24,12.24,0,0,1-4,4.54,17.52,17.52,0,0,1-5.39,2.4,23.46,23.46,0,0,1-5.77.73,23,23,0,0,1-7.83-1.37,13.87,13.87,0,0,1-6.35-4.66,13.58,13.58,0,0,1-2.56-8.58l-.1-4.92h9.52l.1,2.46a12.85,12.85,0,0,0,.9,5.17,6.27,6.27,0,0,0,2.52,3,8,8,0,0,0,7.54,0,6.2,6.2,0,0,0,2.52-3,12.84,12.84,0,0,0,.91-5.16l-.1-2.5h9.55Z"/><polygon points="163.96 102.25 139.9 102.25 139.9 70.57 149.45 70.57 149.45 94.66 163.96 94.66 163.96 102.25"/><polygon points="195.92 70.57 181.63 102.66 175.32 102.66 161.31 70.57 171.26 70.57 178.5 88.86 185.95 70.57 195.92 70.57"/><polygon points="209.96 102.25 200.4 102.25 200.3 83.13 209.85 83.13 209.96 102.25"/><path d="M247.92,100c-.68.27-1.27.48-1.76.64l-1.4.46c-.45.13-1.1.31-2,.52a39.64,39.64,0,0,1-4.33.77,36.58,36.58,0,0,1-4.56.26A22.35,22.35,0,0,1,225,100.9a14.61,14.61,0,0,1-6.55-5.46,16.08,16.08,0,0,1-2.46-9.1,19,19,0,0,1,1.27-6.82,11.87,11.87,0,0,1,3.87-5.36,18.05,18.05,0,0,1,4.37-2.55,18.38,18.38,0,0,1,4.31-1.19,32.77,32.77,0,0,1,4.64-.3,31.94,31.94,0,0,1,6.9.63c1.81.42,3.8,1,6,1.66v7.5a26.35,26.35,0,0,0-4.54-2.11,18.22,18.22,0,0,0-6-.83,12.31,12.31,0,0,0-6.62,1.56,8.71,8.71,0,0,0-3.45,3.74,10.21,10.21,0,0,0-1,4.21,8.89,8.89,0,0,0,1.12,4.42,8.14,8.14,0,0,0,3.38,3.25,11.26,11.26,0,0,0,5.46,1.22,16.89,16.89,0,0,0,3.88-.48V91.17h-4.29V84.79h12.64Z"/><path d="M99.29,122.78h0l-2.16,5.11h4.24Zm-.56-1.59h1.16l4.42,10.41h-1.44L101.81,129h-5.2l-1.07,2.56h-1.4Z"/><path d="M109.87,125.78H111c.35,0,.71,0,1.07,0a3.92,3.92,0,0,0,1-.2,1.69,1.69,0,0,0,.76-.5,1.51,1.51,0,0,0,.31-1,1.65,1.65,0,0,0-.23-.89,1.46,1.46,0,0,0-.58-.52,2.26,2.26,0,0,0-.79-.24,7,7,0,0,0-.91-.06h-1.73Zm-1.23-4.59h2.65a12.58,12.58,0,0,1,1.5.09,4.16,4.16,0,0,1,1.33.39,2.39,2.39,0,0,1,.95.86,2.77,2.77,0,0,1,.37,1.54,2.55,2.55,0,0,1-.69,1.85,3.37,3.37,0,0,1-1.91.9l3,4.79h-1.51l-2.82-4.68h-1.59v4.68h-1.23Z"/><path d="M127.84,123.34a2.89,2.89,0,0,0-1.16-1,3.4,3.4,0,0,0-1.44-.32,3.8,3.8,0,0,0-1.59.35,4,4,0,0,0-1.25,1,4.26,4.26,0,0,0-.82,1.39,4.77,4.77,0,0,0,0,3.33,4.14,4.14,0,0,0,.81,1.37,3.85,3.85,0,0,0,4.56.88,3.91,3.91,0,0,0,1.31-1.08l.93.79a4.23,4.23,0,0,1-1.7,1.38,5.24,5.24,0,0,1-2.24.44,5.14,5.14,0,0,1-2.09-.39,5.37,5.37,0,0,1-1.68-1.14,5.48,5.48,0,0,1-1.12-1.73,5.86,5.86,0,0,1-.4-2.19,6,6,0,0,1,.4-2.14,5.2,5.2,0,0,1,1.1-1.74,5,5,0,0,1,1.67-1.16,5.25,5.25,0,0,1,2.14-.43,5.48,5.48,0,0,1,2,.4,3.74,3.74,0,0,1,1.64,1.25Z"/><polygon points="133.84 121.19 135.07 121.19 135.07 125.6 140.63 125.6 140.63 121.19 141.87 121.19 141.87 131.59 140.63 131.59 140.63 126.74 135.07 126.74 135.07 131.59 133.84 131.59 133.84 121.19"/><rect x="147.39" y="121.19" width="1.23" height="10.4"/><polygon points="161.13 122.34 157.69 122.34 157.69 131.59 156.46 131.59 156.46 122.34 153.02 122.34 153.02 121.19 161.13 121.19 161.13 122.34"/><polygon points="165.53 121.19 172.07 121.19 172.07 122.34 166.76 122.34 166.76 125.6 171.71 125.6 171.71 126.74 166.76 126.74 166.76 130.45 172.33 130.45 172.33 131.59 165.53 131.59 165.53 121.19"/><path d="M184.47,123.34a3,3,0,0,0-1.16-1,3.39,3.39,0,0,0-1.43-.32,3.76,3.76,0,0,0-1.59.35,4,4,0,0,0-1.26,1,4.64,4.64,0,0,0-.82,1.39,4.31,4.31,0,0,0-.29,1.63,4.68,4.68,0,0,0,.29,1.7,4.17,4.17,0,0,0,.82,1.37,3.79,3.79,0,0,0,1.25.92,4.06,4.06,0,0,0,3.31,0,3.91,3.91,0,0,0,1.31-1.08l.92.79a4.2,4.2,0,0,1-1.69,1.38,5.24,5.24,0,0,1-2.24.44,5.14,5.14,0,0,1-2.09-.39,5.42,5.42,0,0,1-1.69-1.14,5.28,5.28,0,0,1-1.11-1.73,6.06,6.06,0,0,1,0-4.33,5.33,5.33,0,0,1,1.09-1.74A5.22,5.22,0,0,1,181.9,121a5.49,5.49,0,0,1,2,.4,3.66,3.66,0,0,1,1.63,1.25Z"/><polygon points="197.45 122.34 194.01 122.34 194.01 131.59 192.78 131.59 192.78 122.34 189.34 122.34 189.34 121.19 197.45 121.19 197.45 122.34"/><polygon points="201.85 121.19 208.39 121.19 208.39 122.34 203.08 122.34 203.08 125.6 208.03 125.6 208.03 126.74 203.08 126.74 203.08 130.45 208.65 130.45 208.65 131.59 201.85 131.59 201.85 121.19"/></svg>