<svg id="Calque_1" data-name="Calque 1" xmlns="http://www.w3.org/2000/svg" viewBox="0 0 103.35 99.52"><defs><style>.cls-1{fill:#ccaf54;}.cls-2{fill:#fff;}</style></defs><title>pastille_web_aw</title><circle class="cls-1" cx="51.68" cy="49.76" r="36.3"/><path class="cls-2" d="M46.92,39.9l3.49.63-7.67,17.4-5.3-1L37,42.46,31.4,55.87l-5.33-1L25,35.91l3.52.64L29,54l7-16.08h0l3.52.64.89,17.52Z"/><path class="cls-2" d="M54.6,60.42a6.59,6.59,0,0,1-3.55-1.66,6.17,6.17,0,0,1-1.67-2.91,8.36,8.36,0,0,1-.14-3.38A7.61,7.61,0,0,1,50.65,49a6.08,6.08,0,0,1,2.71-2A6.66,6.66,0,0,1,57,46.74a6.45,6.45,0,0,1,3,1.35,6,6,0,0,1,1.85,2.59,6.66,6.66,0,0,1,.27,3.47l-.13.74-9.66-1.75a4.23,4.23,0,0,0,.37,3.08A3.23,3.23,0,0,0,55,57.66a3.37,3.37,0,0,0,2.16-.24A2.47,2.47,0,0,0,58.48,56l3.2.58a5.54,5.54,0,0,1-2.45,3.21A6.38,6.38,0,0,1,54.6,60.42Zm-1.89-8.66L59,52.9c0-.15,0-.4,0-.73a3.77,3.77,0,0,0-.24-1.08,2.47,2.47,0,0,0-.76-1,3.89,3.89,0,0,0-3.57-.47,3.07,3.07,0,0,0-1.16,1.06A4.14,4.14,0,0,0,52.71,51.76Z"/><path class="cls-2" d="M71.43,63.48a5,5,0,0,1-2-.74,4.6,4.6,0,0,1-1.21-1.14,4.38,4.38,0,0,1-.61-1.08L67.46,60H67.4l-1,2.26-2.84-.52,3.31-18.19,3.39.62L68.86,52h.06c0-.06.15-.23.36-.5a4.51,4.51,0,0,1,.91-.87,4.34,4.34,0,0,1,1.53-.71,5,5,0,0,1,2.19,0,4.81,4.81,0,0,1,3.86,2.64,8.84,8.84,0,0,1,.38,5.24A8.6,8.6,0,0,1,76,62.41,4.86,4.86,0,0,1,71.43,63.48Zm-.55-3A3.31,3.31,0,0,0,73,60.32,2.93,2.93,0,0,0,74.3,59a7.23,7.23,0,0,0,.63-1.87,6.35,6.35,0,0,0,0-1.94,3,3,0,0,0-.79-1.65,3.48,3.48,0,0,0-2-.94,2.93,2.93,0,0,0-2.77.65,5.62,5.62,0,0,0-1,5.66A3.07,3.07,0,0,0,70.88,60.51Z"/></svg>