<svg id="Calque_1" data-name="Calque 1" xmlns="http://www.w3.org/2000/svg" viewBox="0 0 2276.35 3828.11"><defs><style>.cls-1{fill:#161616;}.cls-2{font-size:100px;fill:#707070;font-family:Raleway-Medium, Raleway;}</style></defs><title>processus_mulvig02</title><path class="cls-1" d="M687.63,747h-71.8V609L551,688.88h-5.7L480.43,609V747h-69.7V508.88h65.1l73.2,89.3,73.5-89.3h65.1Z"/><path class="cls-1" d="M996.53,640.28q0,30.6-11.4,52.1a91.85,91.85,0,0,1-30.2,34.1,129.16,129.16,0,0,1-40.5,18A176.21,176.21,0,0,1,871,750a172.89,172.89,0,0,1-58.8-10.3,104.41,104.41,0,0,1-47.8-35c-12.8-16.5-19.2-37.9-19.2-64.4l-.7-37h71.6l.8,18.5c0,15.7,2.3,28.7,6.8,38.9s10.8,17.7,18.9,22.5,17.6,7.1,28.6,7.1c10.5,0,19.9-2.3,28-7s14.5-12.1,19-22.3,6.8-23.1,6.8-38.8l-.7-18.9h71.8Z"/><path class="cls-1" d="M1234.53,747h-180.9V508.88h71.8V690h109.1Z"/><path class="cls-1" d="M1474.73,508.88l-107.4,241.2h-47.4l-105.3-241.2h74.7l54.5,137.4,56-137.4Z"/><path class="cls-1" d="M1580.23,747h-71.8l-.8-143.7h71.8Z"/><path class="cls-1" d="M1865.63,730.08q-7.8,3-13.2,4.8c-3.7,1.3-7.2,2.4-10.6,3.4s-8.3,2.4-14.7,4a322.05,322.05,0,0,1-32.6,5.8,280.64,280.64,0,0,1-34.3,2q-36.3,0-67-13.2a109.86,109.86,0,0,1-49.3-41.1q-18.45-27.75-18.5-68.4a145.28,145.28,0,0,1,9.5-51.3q9.6-25.2,29.1-40.3a138.29,138.29,0,0,1,32.8-19.2,140,140,0,0,1,32.4-8.8,239.68,239.68,0,0,1,34.9-2.2c21,0,38.3,1.6,51.9,4.7s28.6,7.3,44.8,12.4v56.4a203.85,203.85,0,0,0-34.2-15.8c-12-4.2-27-6.4-45-6.4q-31.05,0-49.7,11.8c-12.4,7.8-21.1,17.2-26,28.1s-7.3,21.4-7.3,31.6a67.43,67.43,0,0,0,8.4,33.2c5.6,10.1,14.1,18.3,25.4,24.4s25,9.2,41.1,9.2a131.09,131.09,0,0,0,29.2-3.6v-28h-32.3v-47.9h95Z"/><rect class="cls-1" x="1507.13" y="494.38" width="72.4" height="72.4"/><rect class="cls-1" x="747.13" y="494.38" width="72.4" height="72.4"/><rect class="cls-1" x="921.33" y="494.38" width="72.4" height="72.4"/><rect class="cls-1" x="965.53" y="495.18" width="4.5" height="1.5"/><path class="cls-1" d="M956.53,496.68h-9.1v-1.5h9.1Zm-18.2,0h-9.1v-1.5h9.1Zm-18.1,0h-9.1v-1.5h9.1Zm-18.1,0H893v-1.5h9.1Zm-18.1,0h-9.1v-1.5H884Zm-18.1,0h-9.1v-1.5h9.1Zm-18.2,0h-9v-1.5h9Zm-18.1,0h-9.1v-1.5h9.1Zm-18.1,0h-9.1v-1.5h9.1Zm-18.1,0h-9.1v-1.5h9.1Z"/><rect class="cls-1" x="770.83" y="495.18" width="4.5" height="1.5"/><rect class="cls-1" x="965.53" y="565.28" width="4.5" height="1.5"/><path class="cls-1" d="M956.53,566.78h-9.1v-1.5h9.1Zm-18.2,0h-9.1v-1.5h9.1Zm-18.1,0h-9.1v-1.5h9.1Zm-18.1,0H893v-1.5h9.1Zm-18.1,0h-9.1v-1.5H884Zm-18.1,0h-9.1v-1.5h9.1Zm-18.2,0h-9v-1.5h9Zm-18.1,0h-9.1v-1.5h9.1Zm-18.1,0h-9.1v-1.5h9.1Zm-18.1,0h-9.1v-1.5h9.1Z"/><rect class="cls-1" x="770.83" y="565.28" width="4.5" height="1.5"/><text class="cls-2" transform="translate(1090.87 1054.26)">01</text><path class="cls-1" d="M687.63,1827.09h-71.8v-138L551,1769h-5.7l-64.9-79.9v138h-69.7v-238.2h65.1l73.2,89.3,73.5-89.3h65.1Z"/><path class="cls-1" d="M996.53,1720.39q0,30.6-11.4,52.1t-30.2,34.1a129.16,129.16,0,0,1-40.5,18,176.21,176.21,0,0,1-43.4,5.5,172.89,172.89,0,0,1-58.8-10.3,104.41,104.41,0,0,1-47.8-35c-12.8-16.5-19.3-38-19.3-64.4l-.7-37H816l.8,18.5c0,15.7,2.3,28.7,6.8,38.9s10.8,17.8,18.9,22.5,17.6,7.1,28.6,7.1c10.5,0,19.9-2.3,28-7s14.5-12.1,19-22.3,6.8-23.1,6.8-38.8l-.7-18.8H996Z"/><path class="cls-1" d="M1234.53,1827.09h-180.9V1589h71.8v181.1h109.1Z"/><path class="cls-1" d="M1474.73,1589l-107.4,241.2h-47.4L1214.63,1589h74.7l54.5,137.4,56-137.4Z"/><path class="cls-1" d="M1580.23,1827.09h-71.8l-.8-143.7h71.8Z"/><path class="cls-1" d="M1865.63,1810.29q-7.8,3-13.2,4.8c-3.7,1.3-7.2,2.4-10.6,3.4s-8.3,2.4-14.7,4a322.05,322.05,0,0,1-32.6,5.8,280.64,280.64,0,0,1-34.3,2q-36.3,0-67-13.2a110,110,0,0,1-49.3-41.2q-18.45-27.75-18.5-68.4a145.28,145.28,0,0,1,9.5-51.3q9.6-25.2,29.1-40.3a134.64,134.64,0,0,1,32.8-19.1,140,140,0,0,1,32.4-8.8,239.68,239.68,0,0,1,34.9-2.2c21,0,38.3,1.6,51.9,4.7s28.6,7.3,44.8,12.5v56.3a203.85,203.85,0,0,0-34.2-15.8c-12-4.2-27-6.4-45-6.4q-31.05,0-49.7,11.8c-12.4,7.9-21.1,17.2-26,28.1s-7.3,21.4-7.3,31.6a67.43,67.43,0,0,0,8.4,33.2c5.6,10.1,14.1,18.3,25.4,24.4s25,9.2,41.1,9.2a131.09,131.09,0,0,0,29.2-3.6v-28h-32.3v-48h95Z"/><rect class="cls-1" x="1507.13" y="1574.49" width="72.4" height="72.4"/><rect class="cls-1" x="747.13" y="1573.89" width="246.6" height="73.7"/><text class="cls-2" transform="translate(1086.63 2134.46)">02</text><path class="cls-1" d="M687.63,2988.7h-71.8v-138L551,2930.6h-5.7l-64.9-79.9v138h-69.7V2750.5h65.1l73.2,89.3,73.5-89.3h65.1Z"/><path class="cls-1" d="M996.53,2882q0,30.6-11.4,52.1t-30.2,34.1a129.16,129.16,0,0,1-40.5,18,176.21,176.21,0,0,1-43.4,5.5,172.89,172.89,0,0,1-58.8-10.3,104.41,104.41,0,0,1-47.8-35c-12.8-16.5-19.3-38-19.3-64.4l-.7-37H816l.8,18.5c0,15.7,2.3,28.7,6.8,38.9s10.8,17.8,18.9,22.5,17.6,7.1,28.6,7.1c10.5,0,19.9-2.3,28-7s14.5-12.1,19-22.3,6.8-23.1,6.8-38.8l-.7-18.8H996Z"/><path class="cls-1" d="M1234.53,2988.7h-180.9V2750.6h71.8v181.1h109.1Z"/><path class="cls-1" d="M1474.73,2750.6l-107.4,241.2h-47.4l-105.3-241.2h74.7l54.5,137.4,56-137.4Z"/><path class="cls-1" d="M1580.23,2988.7h-71.8l-.8-143.7h71.8Z"/><path class="cls-1" d="M1865.63,2971.9l-13.2,4.8c-3.7,1.3-7.2,2.4-10.6,3.4s-8.3,2.4-14.7,4a322.05,322.05,0,0,1-32.6,5.8,280.64,280.64,0,0,1-34.3,2q-36.3,0-67-13.2a109.61,109.61,0,0,1-49.2-41.1c-12.3-18.6-18.5-41.3-18.5-68.4a145.28,145.28,0,0,1,9.5-51.3q9.6-25.2,29.1-40.3a134.93,134.93,0,0,1,65.1-28,239.68,239.68,0,0,1,34.9-2.2c21,0,38.3,1.6,51.9,4.7s28.6,7.3,44.8,12.5v56.3a203.85,203.85,0,0,0-34.2-15.8q-18-6.3-45-6.3-31.05,0-49.7,11.8c-12.4,7.8-21.1,17.2-26,28.1s-7.3,21.4-7.3,31.6a67.43,67.43,0,0,0,8.4,33.2c5.6,10.1,14.1,18.3,25.4,24.4s25,9.2,41.1,9.2a131.09,131.09,0,0,0,29.2-3.6v-28h-32.3v-47.9h95Z"/><rect class="cls-1" x="1507.13" y="2572.7" width="72.4" height="72.4"/><rect class="cls-1" x="747.13" y="2572" width="246.6" height="73.7"/><rect class="cls-1" x="746.33" y="2645.7" width="1.5" height="4.5"/><path class="cls-1" d="M747.83,2831.4h-1.5v-9.1h1.5Zm0-18.1h-1.5v-9.1h1.5Zm0-18.1h-1.5v-9.1h1.5Zm0-18.1h-1.5V2768h1.5Zm0-18.2h-1.5v-9.1h1.5Zm0-18.1h-1.5v-9.1h1.5Zm0-18.1h-1.5v-9.1h1.5Zm0-18.1h-1.5v-9.1h1.5Zm0-18.1h-1.5v-9.1h1.5Zm0-18.1h-1.5v-9.1h1.5Z"/><rect class="cls-1" x="746.33" y="2840.5" width="1.5" height="4.5"/><rect class="cls-1" x="993.03" y="2645.7" width="1.5" height="4.5"/><path class="cls-1" d="M994.53,2831.4H993v-9.1h1.5Zm0-18.1H993v-9.1h1.5Zm0-18.1H993v-9.1h1.5Zm0-18.1H993V2768h1.5Zm0-18.2H993v-9.1h1.5Zm0-18.1H993v-9.1h1.5Zm0-18.1H993v-9.1h1.5Zm0-18.1H993v-9.1h1.5Zm0-18.1H993v-9.1h1.5Zm0-18.1H993v-9.1h1.5Z"/><rect class="cls-1" x="993.03" y="2840.5" width="1.5" height="4.5"/><rect class="cls-1" x="1506.33" y="2645.7" width="1.5" height="4.5"/><path class="cls-1" d="M1507.83,2831.4h-1.5v-9.1h1.5Zm0-18.1h-1.5v-9.1h1.5Zm0-18.1h-1.5v-9.1h1.5Zm0-18.1h-1.5V2768h1.5Zm0-18.2h-1.5v-9.1h1.5Zm0-18.1h-1.5v-9.1h1.5Zm0-18.1h-1.5v-9.1h1.5Zm0-18.1h-1.5v-9.1h1.5Zm0-18.1h-1.5v-9.1h1.5Zm0-18.1h-1.5v-9.1h1.5Z"/><rect class="cls-1" x="1506.33" y="2840.5" width="1.5" height="4.5"/><rect class="cls-1" x="1578.73" y="2645.7" width="1.5" height="4.5"/><path class="cls-1" d="M1580.23,2831.4h-1.5v-9.1h1.5Zm0-18.1h-1.5v-9.1h1.5Zm0-18.1h-1.5v-9.1h1.5Zm0-18.1h-1.5V2768h1.5Zm0-18.2h-1.5v-9.1h1.5Zm0-18.1h-1.5v-9.1h1.5Zm0-18.1h-1.5v-9.1h1.5Zm0-18.1h-1.5v-9.1h1.5Zm0-18.1h-1.5v-9.1h1.5Zm0-18.1h-1.5v-9.1h1.5Z"/><rect class="cls-1" x="1578.73" y="2840.5" width="1.5" height="4.5"/><text class="cls-2" transform="translate(1080.48 3296.07)">03</text></svg>